<svg xmlns="http://www.w3.org/2000/svg" xmlns:xlink="http://www.w3.org/1999/xlink" width="500" zoomAndPan="magnify" viewBox="0 0 375 374.999991" height="500" preserveAspectRatio="xMidYMid meet" version="1.0"><defs><clipPath id="0a49b23115"><path d="M 0 141 L 373.5 141 L 373.5 183 L 0 183 Z M 0 141 " clip-rule="nonzero"/></clipPath><clipPath id="03916fc8a6"><path d="M 0 191 L 373.5 191 L 373.5 223 L 0 223 Z M 0 191 " clip-rule="nonzero"/></clipPath></defs><path fill="#4a8aaf" d="M 70.277344 40.910156 C 55.648438 52.570312 42.851562 66.367188 32.328125 81.832031 L 341.210938 81.832031 C 330.679688 66.367188 317.890625 52.570312 303.261719 40.910156 Z M 70.277344 40.910156 " fill-opacity="1" fill-rule="nonzero"/><path fill="#faba8a" d="M 26.382812 91.132812 C 18.695312 103.992188 12.585938 117.738281 8.183594 132.058594 L 365.34375 132.058594 C 360.945312 117.738281 354.828125 103.992188 347.144531 91.132812 Z M 26.382812 91.132812 " fill-opacity="1" fill-rule="nonzero"/><g clip-path="url(#0a49b23115)"><path fill="#fc9248" d="M 5.589844 141.359375 C 2.21875 154.75 0.34375 168.480469 0 182.285156 L 373.53125 182.285156 C 373.183594 168.480469 371.3125 154.75 367.9375 141.359375 Z M 5.589844 141.359375 " fill-opacity="1" fill-rule="nonzero"/></g><g clip-path="url(#03916fc8a6)"><path fill="#c32929" d="M 0 191.585938 C 0.261719 202.074219 1.410156 212.53125 3.425781 222.835938 L 370.105469 222.835938 C 372.121094 212.53125 373.269531 202.074219 373.53125 191.585938 Z M 0 191.585938 " fill-opacity="1" fill-rule="nonzero"/></g><path fill="#6bb8a6" d="M 8.183594 241.816406 C 12.585938 256.136719 18.703125 269.882812 26.382812 282.742188 L 347.136719 282.742188 C 354.820312 269.882812 360.9375 256.136719 365.335938 241.816406 Z M 8.183594 241.816406 " fill-opacity="1" fill-rule="nonzero"/><path fill="#34658e" d="M 186.609375 0.148438 C 149.722656 0.179688 113.675781 11.128906 83.003906 31.601562 L 290.523438 31.601562 C 259.808594 11.097656 223.703125 0.148438 186.765625 0.148438 Z M 186.609375 0.148438 " fill-opacity="1" fill-rule="nonzero"/><path fill="#4d8079" d="M 32.328125 292.042969 C 42.859375 307.511719 55.648438 321.308594 70.277344 332.96875 L 303.253906 332.96875 C 317.882812 321.300781 330.671875 307.511719 341.203125 292.042969 Z M 32.328125 292.042969 " fill-opacity="1" fill-rule="nonzero"/><path fill="#254e48" d="M 83.003906 342.265625 C 113.722656 362.777344 149.828125 373.71875 186.765625 373.71875 C 223.703125 373.71875 259.808594 362.769531 290.523438 342.265625 Z M 83.003906 342.265625 " fill-opacity="1" fill-rule="nonzero"/><path fill="#ffffff" d="M 175.589844 118.300781 C 175.589844 152.015625 148.253906 179.355469 114.523438 179.355469 C 80.792969 179.355469 53.457031 152.023438 53.457031 118.300781 C 53.457031 84.578125 80.792969 57.246094 114.523438 57.246094 C 148.253906 57.246094 175.589844 84.582031 175.589844 118.300781 Z M 175.589844 118.300781 " fill-opacity="1" fill-rule="nonzero"/><path fill="#4a8aaf" d="M 4.003906 230.792969 C 24.285156 315.28125 99.863281 374.851562 186.765625 374.851562 C 273.667969 374.851562 349.246094 315.28125 369.527344 230.792969 Z M 4.003906 230.792969 " fill-opacity="1" fill-rule="nonzero"/><path fill="#34658e" d="M 365.800781 244.125 L 147.9375 270.640625 L 351.207031 277.929688 C 357.167969 267.167969 362.054688 255.847656 365.800781 244.125 Z M 365.800781 244.125 " fill-opacity="1" fill-rule="nonzero"/><path fill="#34658e" d="M 19.847656 273.316406 C 25.074219 283.410156 31.203125 293.007812 38.160156 301.996094 L 266.675781 303.019531 Z M 19.847656 273.316406 " fill-opacity="1" fill-rule="nonzero"/><path fill="#34658e" d="M 104.636719 355.960938 C 130.234375 368.390625 158.3125 374.851562 186.765625 374.851562 C 211.371094 374.851562 235.742188 370.019531 258.488281 360.628906 Z M 104.636719 355.960938 " fill-opacity="1" fill-rule="nonzero"/><path fill="#051d3b" d="M 264.589844 21.125 C 252.246094 31.5625 250.28125 57.082031 250.28125 57.082031 C 254.988281 51.324219 260.828125 50.027344 260.828125 50.027344 C 251.855469 64.621094 252.808594 79.636719 252.808594 79.636719 C 252.808594 79.636719 267.640625 48.910156 292.789062 39.800781 C 317.9375 30.6875 337.964844 41.589844 337.964844 41.589844 C 322.027344 36.742188 297.714844 48.074219 297.714844 48.074219 C 309.324219 49.121094 319 55.605469 319 55.605469 C 294.503906 51.085938 268.429688 72.121094 268.429688 72.121094 C 280.464844 67.585938 293.664062 68.035156 293.664062 68.035156 C 269.425781 75.71875 259.742188 91.304688 259.742188 91.304688 C 259.742188 91.304688 302.890625 68.539062 339.621094 87.257812 C 339.621094 87.257812 325.117188 86.210938 310.378906 90.316406 L 321.136719 102.539062 C 321.136719 102.539062 308.167969 94.042969 290.144531 96.132812 L 298.402344 107.484375 C 298.402344 107.484375 286.378906 95.800781 260.933594 101.445312 C 273.609375 113.339844 294.378906 141.089844 293.769531 194.957031 L 278.246094 200.800781 C 281.6875 153.664062 265.683594 118.320312 256.886719 102.785156 C 254.785156 104.863281 246.910156 113.90625 250.417969 129.90625 C 250.417969 129.90625 246.527344 123.417969 244.886719 117.160156 C 244.886719 117.160156 228.453125 127.332031 230.945312 147.371094 C 230.945312 147.371094 227.171875 141.195312 226.207031 132.875 C 215.039062 137.808594 213.15625 150.089844 213.15625 150.089844 C 203.082031 119.519531 248.933594 97.179688 248.933594 97.179688 C 228.328125 96.257812 202.046875 117.738281 202.046875 117.738281 L 204.6875 105.53125 C 196.210938 108.003906 180.460938 118.996094 180.460938 118.996094 C 194.832031 86.089844 241.707031 84.710938 241.707031 84.710938 C 233.550781 62.222656 238.445312 30.882812 264.589844 21.125 Z M 264.589844 21.125 " fill-opacity="1" fill-rule="nonzero"/><path fill="#051d3b" d="M 300.988281 187.351562 C 268.382812 187.351562 237.890625 200.636719 219.527344 222.84375 L 371.25 222.84375 C 371.886719 219.574219 372.4375 216.300781 372.894531 213.011719 C 354.257812 196.636719 328.234375 187.351562 300.988281 187.351562 C 300.996094 187.351562 300.988281 187.351562 300.988281 187.351562 Z M 300.988281 187.351562 " fill-opacity="1" fill-rule="nonzero"/><path fill="#051d3b" d="M 306.851562 95.578125 C 313.8125 100.335938 316.195312 113.472656 316.195312 113.472656 C 313.445312 110.738281 310.34375 110.378906 310.34375 110.378906 C 315.777344 117.476562 316.085938 125.3125 316.085938 125.3125 C 316.085938 125.3125 306.746094 110.160156 293.207031 106.773438 C 279.671875 103.386719 269.859375 110.117188 269.859375 110.117188 C 277.871094 106.75 291.09375 111.332031 291.09375 111.332031 C 285.128906 112.5 280.449219 116.375 280.449219 116.375 C 292.921875 112.722656 307.578125 122.25 307.578125 122.25 C 301.085938 120.539062 294.265625 121.476562 294.265625 121.476562 C 307.253906 124.167969 313.109375 131.742188 313.109375 131.742188 C 313.109375 131.742188 289.5 122.234375 271.441406 133.910156 C 271.441406 133.910156 278.914062 132.589844 286.777344 133.933594 L 281.84375 140.847656 C 281.84375 140.847656 288.117188 135.746094 297.585938 135.867188 L 293.90625 142.199219 C 293.90625 142.199219 299.519531 135.492188 313.027344 137.066406 C 307.082031 143.914062 297.789062 159.417969 300.980469 187.34375 L 309.347656 189.546875 C 305.042969 165.273438 311.460938 146.074219 315.199219 137.542969 C 316.398438 138.511719 320.972656 142.78125 320.003906 151.273438 C 320.003906 151.273438 321.675781 147.699219 322.195312 144.363281 C 322.195312 144.363281 331.261719 148.761719 331.039062 159.300781 C 331.039062 159.300781 332.664062 155.898438 332.722656 151.527344 C 338.78125 153.492188 340.414062 159.765625 340.414062 159.765625 C 344.011719 143.367188 319.023438 134.21875 319.023438 134.21875 C 329.667969 132.644531 344.449219 142.378906 344.449219 142.378906 L 342.429688 136.1875 C 346.957031 137.019531 355.722656 141.882812 355.722656 141.882812 C 346.507812 125.578125 322.109375 127.359375 322.109375 127.359375 C 325.148438 115.25 320.933594 99.25 306.851562 95.578125 Z M 306.851562 95.578125 " fill-opacity="1" fill-rule="nonzero"/></svg>