<svg xmlns="http://www.w3.org/2000/svg" xmlns:xlink="http://www.w3.org/1999/xlink" width="500" zoomAndPan="magnify" viewBox="0 0 375 374.999991" height="500" preserveAspectRatio="xMidYMid meet" version="1.0"><defs><clipPath id="49a4534625"><path d="M 187.449219 0 C 290.976562 0 374.898438 83.925781 374.898438 187.449219 C 374.898438 290.976562 290.976562 374.898438 187.449219 374.898438 C 83.925781 374.898438 0 290.976562 0 187.449219 C 0 83.925781 83.925781 0 187.449219 0 Z M 187.449219 0 " clip-rule="evenodd"/></clipPath><clipPath id="207dd4654f"><path d="M 25 32 L 347 32 L 347 353 L 25 353 Z M 25 32 " clip-rule="nonzero"/></clipPath><clipPath id="249f08a301"><path d="M 187.449219 0 C 290.976562 0 374.898438 83.925781 374.898438 187.449219 C 374.898438 290.976562 290.976562 374.898438 187.449219 374.898438 C 83.925781 374.898438 0 290.976562 0 187.449219 C 0 83.925781 83.925781 0 187.449219 0 Z M 187.449219 0 " clip-rule="evenodd"/></clipPath><clipPath id="58408bd835"><path d="M 80 89 L 292 89 L 292 301 L 80 301 Z M 80 89 " clip-rule="nonzero"/></clipPath><clipPath id="2ab9b65ba6"><path d="M 187.449219 0 C 290.976562 0 374.898438 83.925781 374.898438 187.449219 C 374.898438 290.976562 290.976562 374.898438 187.449219 374.898438 C 83.925781 374.898438 0 290.976562 0 187.449219 C 0 83.925781 83.925781 0 187.449219 0 Z M 187.449219 0 " clip-rule="evenodd"/></clipPath><clipPath id="331bb87437"><path d="M 128 128 L 247 128 L 247 247 L 128 247 Z M 128 128 " clip-rule="nonzero"/></clipPath><clipPath id="5c57d5a5b6"><path d="M 187.449219 0 C 290.976562 0 374.898438 83.925781 374.898438 187.449219 C 374.898438 290.976562 290.976562 374.898438 187.449219 374.898438 C 83.925781 374.898438 0 290.976562 0 187.449219 C 0 83.925781 83.925781 0 187.449219 0 Z M 187.449219 0 " clip-rule="evenodd"/></clipPath><clipPath id="87eb01424b"><path d="M 108 201 L 347 201 L 347 270 L 108 270 Z M 108 201 " clip-rule="nonzero"/></clipPath><clipPath id="81a5abc652"><path d="M 187.449219 0 C 290.976562 0 374.898438 83.925781 374.898438 187.449219 C 374.898438 290.976562 290.976562 374.898438 187.449219 374.898438 C 83.925781 374.898438 0 290.976562 0 187.449219 C 0 83.925781 83.925781 0 187.449219 0 Z M 187.449219 0 " clip-rule="evenodd"/></clipPath><clipPath id="eacaa80a77"><path d="M 16 180 L 375 180 L 375 272 L 16 272 Z M 16 180 " clip-rule="nonzero"/></clipPath><clipPath id="75108452c7"><path d="M 187.449219 0 C 290.976562 0 374.898438 83.925781 374.898438 187.449219 C 374.898438 290.976562 290.976562 374.898438 187.449219 374.898438 C 83.925781 374.898438 0 290.976562 0 187.449219 C 0 83.925781 83.925781 0 187.449219 0 Z M 187.449219 0 " clip-rule="evenodd"/></clipPath><clipPath id="3f133409ed"><path d="M 163 179 L 266 179 L 266 267 L 163 267 Z M 163 179 " clip-rule="nonzero"/></clipPath><clipPath id="a6560c5cff"><path d="M 187.449219 0 C 290.976562 0 374.898438 83.925781 374.898438 187.449219 C 374.898438 290.976562 290.976562 374.898438 187.449219 374.898438 C 83.925781 374.898438 0 290.976562 0 187.449219 C 0 83.925781 83.925781 0 187.449219 0 Z M 187.449219 0 " clip-rule="evenodd"/></clipPath><clipPath id="c51d5e7cfe"><path d="M 76 236 L 136 236 L 136 271 L 76 271 Z M 76 236 " clip-rule="nonzero"/></clipPath><clipPath id="09c053fb3d"><path d="M 187.449219 0 C 290.976562 0 374.898438 83.925781 374.898438 187.449219 C 374.898438 290.976562 290.976562 374.898438 187.449219 374.898438 C 83.925781 374.898438 0 290.976562 0 187.449219 C 0 83.925781 83.925781 0 187.449219 0 Z M 187.449219 0 " clip-rule="evenodd"/></clipPath><clipPath id="76f00c90ab"><path d="M 289 240 L 315 240 L 315 266 L 289 266 Z M 289 240 " clip-rule="nonzero"/></clipPath><clipPath id="3d4de19517"><path d="M 187.449219 0 C 290.976562 0 374.898438 83.925781 374.898438 187.449219 C 374.898438 290.976562 290.976562 374.898438 187.449219 374.898438 C 83.925781 374.898438 0 290.976562 0 187.449219 C 0 83.925781 83.925781 0 187.449219 0 Z M 187.449219 0 " clip-rule="evenodd"/></clipPath><clipPath id="8d95744ff0"><path d="M 16 269 L 375 269 L 375 375 L 16 375 Z M 16 269 " clip-rule="nonzero"/></clipPath><clipPath id="81ee1234a9"><path d="M 187.449219 0 C 290.976562 0 374.898438 83.925781 374.898438 187.449219 C 374.898438 290.976562 290.976562 374.898438 187.449219 374.898438 C 83.925781 374.898438 0 290.976562 0 187.449219 C 0 83.925781 83.925781 0 187.449219 0 Z M 187.449219 0 " clip-rule="evenodd"/></clipPath><clipPath id="b1c251d365"><path d="M 4 227 L 375 227 L 375 309 L 4 309 Z M 4 227 " clip-rule="nonzero"/></clipPath><clipPath id="0cbedee6f6"><path d="M 187.449219 0 C 290.976562 0 374.898438 83.925781 374.898438 187.449219 C 374.898438 290.976562 290.976562 374.898438 187.449219 374.898438 C 83.925781 374.898438 0 290.976562 0 187.449219 C 0 83.925781 83.925781 0 187.449219 0 Z M 187.449219 0 " clip-rule="evenodd"/></clipPath><clipPath id="07c4cce56d"><path d="M 20 300 L 375 300 L 375 375 L 20 375 Z M 20 300 " clip-rule="nonzero"/></clipPath><clipPath id="8a37205459"><path d="M 187.449219 0 C 290.976562 0 374.898438 83.925781 374.898438 187.449219 C 374.898438 290.976562 290.976562 374.898438 187.449219 374.898438 C 83.925781 374.898438 0 290.976562 0 187.449219 C 0 83.925781 83.925781 0 187.449219 0 Z M 187.449219 0 " clip-rule="evenodd"/></clipPath></defs><g clip-path="url(#49a4534625)"><path fill="#d3523d" d="M 395.3125 185.625 C 395.3125 189.027344 395.230469 192.425781 395.0625 195.824219 C 394.894531 199.21875 394.644531 202.613281 394.3125 205.996094 C 393.980469 209.382812 393.5625 212.757812 393.0625 216.121094 C 392.566406 219.484375 391.984375 222.835938 391.320312 226.171875 C 390.65625 229.507812 389.910156 232.828125 389.085938 236.125 C 388.257812 239.425781 387.351562 242.703125 386.363281 245.957031 C 385.375 249.214844 384.308594 252.441406 383.164062 255.644531 C 382.019531 258.847656 380.792969 262.019531 379.492188 265.164062 C 378.191406 268.304688 376.8125 271.414062 375.359375 274.488281 C 373.90625 277.5625 372.375 280.601562 370.773438 283.601562 C 369.167969 286.601562 367.492188 289.558594 365.742188 292.476562 C 363.996094 295.394531 362.175781 298.265625 360.285156 301.09375 C 358.394531 303.921875 356.4375 306.703125 354.410156 309.4375 C 352.386719 312.167969 350.292969 314.847656 348.136719 317.476562 C 345.976562 320.105469 343.757812 322.683594 341.472656 325.203125 C 339.1875 327.722656 336.84375 330.1875 334.4375 332.589844 C 332.035156 334.996094 329.570312 337.339844 327.050781 339.625 C 324.53125 341.910156 321.953125 344.128906 319.324219 346.289062 C 316.695312 348.445312 314.015625 350.539062 311.285156 352.566406 C 308.550781 354.589844 305.769531 356.546875 302.941406 358.4375 C 300.113281 360.328125 297.242188 362.148438 294.324219 363.894531 C 291.40625 365.644531 288.449219 367.320312 285.449219 368.925781 C 282.449219 370.527344 279.410156 372.058594 276.335938 373.511719 C 273.261719 374.964844 270.152344 376.34375 267.011719 377.644531 C 263.867188 378.945312 260.695312 380.171875 257.492188 381.316406 C 254.289062 382.460938 251.0625 383.527344 247.804688 384.515625 C 244.550781 385.503906 241.273438 386.410156 237.972656 387.238281 C 234.675781 388.0625 231.355469 388.808594 228.019531 389.472656 C 224.683594 390.136719 221.332031 390.71875 217.96875 391.214844 C 214.605469 391.714844 211.230469 392.132812 207.84375 392.464844 C 204.460938 392.796875 201.066406 393.046875 197.671875 393.214844 C 194.273438 393.382812 190.875 393.464844 187.472656 393.464844 C 184.070312 393.464844 180.671875 393.382812 177.273438 393.214844 C 173.875 393.046875 170.484375 392.796875 167.101562 392.464844 C 163.714844 392.132812 160.339844 391.714844 156.976562 391.214844 C 153.609375 390.71875 150.261719 390.136719 146.925781 389.472656 C 143.589844 388.808594 140.269531 388.0625 136.972656 387.238281 C 133.671875 386.410156 130.394531 385.503906 127.140625 384.515625 C 123.882812 383.527344 120.65625 382.460938 117.453125 381.316406 C 114.25 380.171875 111.078125 378.945312 107.933594 377.644531 C 104.792969 376.34375 101.683594 374.964844 98.609375 373.511719 C 95.535156 372.058594 92.496094 370.527344 89.496094 368.925781 C 86.496094 367.320312 83.539062 365.644531 80.621094 363.894531 C 77.703125 362.148438 74.832031 360.328125 72.003906 358.4375 C 69.175781 356.546875 66.394531 354.589844 63.660156 352.566406 C 60.929688 350.539062 58.25 348.445312 55.621094 346.289062 C 52.988281 344.128906 50.414062 341.910156 47.894531 339.625 C 45.375 337.339844 42.910156 334.996094 40.507812 332.589844 C 38.101562 330.1875 35.757812 327.722656 33.472656 325.203125 C 31.1875 322.683594 28.96875 320.105469 26.808594 317.476562 C 24.652344 314.847656 22.558594 312.167969 20.53125 309.4375 C 18.507812 306.703125 16.546875 303.921875 14.660156 301.09375 C 12.769531 298.265625 10.949219 295.394531 9.203125 292.476562 C 7.453125 289.558594 5.777344 286.601562 4.171875 283.601562 C 2.570312 280.601562 1.039062 277.5625 -0.414062 274.488281 C -1.867188 271.414062 -3.246094 268.304688 -4.546875 265.164062 C -5.847656 262.019531 -7.074219 258.847656 -8.21875 255.644531 C -9.363281 252.441406 -10.429688 249.214844 -11.417969 245.957031 C -12.40625 242.703125 -13.3125 239.425781 -14.140625 236.125 C -14.964844 232.828125 -15.710938 229.507812 -16.375 226.171875 C -17.039062 222.835938 -17.621094 219.484375 -18.117188 216.121094 C -18.617188 212.757812 -19.035156 209.382812 -19.367188 205.996094 C -19.699219 202.613281 -19.953125 199.21875 -20.117188 195.824219 C -20.285156 192.425781 -20.367188 189.027344 -20.367188 185.625 C -20.367188 182.222656 -20.285156 178.824219 -20.117188 175.425781 C -19.953125 172.03125 -19.699219 168.636719 -19.367188 165.253906 C -19.035156 161.867188 -18.617188 158.492188 -18.117188 155.128906 C -17.621094 151.765625 -17.039062 148.414062 -16.375 145.078125 C -15.710938 141.742188 -14.964844 138.421875 -14.140625 135.125 C -13.3125 131.824219 -12.40625 128.546875 -11.417969 125.292969 C -10.429688 122.035156 -9.363281 118.808594 -8.21875 115.605469 C -7.074219 112.402344 -5.847656 109.230469 -4.546875 106.085938 C -3.246094 102.945312 -1.867188 99.835938 -0.414062 96.761719 C 1.039062 93.6875 2.570312 90.648438 4.171875 87.648438 C 5.777344 84.648438 7.453125 81.691406 9.203125 78.773438 C 10.949219 75.855469 12.769531 72.984375 14.660156 70.15625 C 16.546875 67.328125 18.507812 64.546875 20.53125 61.8125 C 22.558594 59.082031 24.652344 56.402344 26.808594 53.773438 C 28.96875 51.144531 31.1875 48.566406 33.472656 46.046875 C 35.757812 43.527344 38.101562 41.0625 40.507812 38.660156 C 42.910156 36.253906 45.375 33.910156 47.894531 31.625 C 50.414062 29.339844 52.988281 27.121094 55.621094 24.960938 C 58.25 22.804688 60.929688 20.710938 63.660156 18.683594 C 66.394531 16.660156 69.175781 14.699219 72.003906 12.8125 C 74.832031 10.921875 77.703125 9.101562 80.621094 7.355469 C 83.539062 5.605469 86.496094 3.929688 89.496094 2.324219 C 92.496094 0.722656 95.535156 -0.808594 98.609375 -2.261719 C 101.683594 -3.714844 104.792969 -5.09375 107.933594 -6.394531 C 111.078125 -7.695312 114.25 -8.921875 117.453125 -10.066406 C 120.65625 -11.210938 123.882812 -12.277344 127.140625 -13.265625 C 130.394531 -14.253906 133.671875 -15.160156 136.972656 -15.988281 C 140.269531 -16.8125 143.589844 -17.558594 146.925781 -18.222656 C 150.261719 -18.886719 153.609375 -19.46875 156.976562 -19.964844 C 160.339844 -20.464844 163.714844 -20.882812 167.101562 -21.214844 C 170.484375 -21.546875 173.875 -21.800781 177.273438 -21.964844 C 180.671875 -22.132812 184.070312 -22.214844 187.472656 -22.214844 C 190.875 -22.214844 194.273438 -22.132812 197.671875 -21.964844 C 201.066406 -21.800781 204.460938 -21.546875 207.84375 -21.214844 C 211.230469 -20.882812 214.605469 -20.464844 217.96875 -19.964844 C 221.332031 -19.46875 224.683594 -18.886719 228.019531 -18.222656 C 231.355469 -17.558594 234.675781 -16.8125 237.972656 -15.988281 C 241.273438 -15.160156 244.550781 -14.253906 247.804688 -13.265625 C 251.0625 -12.277344 254.289062 -11.210938 257.492188 -10.066406 C 260.695312 -8.921875 263.867188 -7.695312 267.011719 -6.394531 C 270.152344 -5.09375 273.261719 -3.714844 276.335938 -2.261719 C 279.410156 -0.808594 282.449219 0.722656 285.449219 2.324219 C 288.449219 3.929688 291.40625 5.605469 294.324219 7.355469 C 297.242188 9.101562 300.113281 10.921875 302.941406 12.8125 C 305.769531 14.699219 308.550781 16.660156 311.285156 18.683594 C 314.015625 20.710938 316.695312 22.804688 319.324219 24.960938 C 321.953125 27.121094 324.53125 29.339844 327.050781 31.625 C 329.570312 33.910156 332.035156 36.253906 334.4375 38.660156 C 336.84375 41.0625 339.1875 43.527344 341.472656 46.046875 C 343.757812 48.566406 345.976562 51.144531 348.136719 53.773438 C 350.292969 56.402344 352.386719 59.082031 354.410156 61.8125 C 356.4375 64.546875 358.394531 67.328125 360.285156 70.15625 C 362.175781 72.984375 363.996094 75.855469 365.742188 78.773438 C 367.492188 81.691406 369.167969 84.648438 370.773438 87.648438 C 372.375 90.648438 373.90625 93.6875 375.359375 96.761719 C 376.8125 99.835938 378.191406 102.945312 379.492188 106.085938 C 380.792969 109.230469 382.019531 112.402344 383.164062 115.605469 C 384.308594 118.808594 385.375 122.035156 386.363281 125.292969 C 387.351562 128.546875 388.257812 131.824219 389.085938 135.125 C 389.910156 138.421875 390.65625 141.742188 391.320312 145.078125 C 391.984375 148.414062 392.566406 151.765625 393.0625 155.128906 C 393.5625 158.492188 393.980469 161.867188 394.3125 165.253906 C 394.644531 168.636719 394.894531 172.03125 395.0625 175.425781 C 395.230469 178.824219 395.3125 182.222656 395.3125 185.625 Z M 395.3125 185.625 " fill-opacity="1" fill-rule="nonzero"/></g><g clip-path="url(#207dd4654f)"><g clip-path="url(#249f08a301)"><path fill="#e97f30" d="M 346.101562 192.476562 C 346.101562 195.09375 346.039062 197.714844 345.910156 200.328125 C 345.78125 202.945312 345.589844 205.558594 345.332031 208.164062 C 345.074219 210.773438 344.753906 213.371094 344.371094 215.960938 C 343.984375 218.554688 343.539062 221.132812 343.027344 223.703125 C 342.515625 226.273438 341.941406 228.828125 341.304688 231.371094 C 340.667969 233.910156 339.972656 236.433594 339.210938 238.941406 C 338.449219 241.449219 337.628906 243.933594 336.746094 246.402344 C 335.863281 248.867188 334.921875 251.3125 333.917969 253.730469 C 332.914062 256.152344 331.855469 258.546875 330.734375 260.914062 C 329.613281 263.28125 328.4375 265.621094 327.203125 267.933594 C 325.96875 270.242188 324.675781 272.523438 323.328125 274.769531 C 321.984375 277.015625 320.582031 279.226562 319.125 281.40625 C 317.671875 283.585938 316.164062 285.726562 314.601562 287.828125 C 313.042969 289.933594 311.429688 292 309.769531 294.023438 C 308.105469 296.050781 306.394531 298.03125 304.636719 299.972656 C 302.878906 301.914062 301.070312 303.8125 299.21875 305.664062 C 297.367188 307.515625 295.46875 309.320312 293.527344 311.082031 C 291.585938 312.839844 289.605469 314.550781 287.578125 316.210938 C 285.554688 317.875 283.488281 319.484375 281.386719 321.046875 C 279.28125 322.605469 277.140625 324.113281 274.960938 325.570312 C 272.785156 327.027344 270.570312 328.425781 268.324219 329.773438 C 266.078125 331.121094 263.796875 332.410156 261.488281 333.644531 C 259.179688 334.882812 256.839844 336.058594 254.46875 337.179688 C 252.101562 338.296875 249.707031 339.359375 247.289062 340.363281 C 244.867188 341.363281 242.425781 342.308594 239.957031 343.191406 C 237.492188 344.074219 235.003906 344.894531 232.496094 345.65625 C 229.992188 346.414062 227.464844 347.113281 224.925781 347.75 C 222.382812 348.386719 219.828125 348.960938 217.257812 349.472656 C 214.691406 349.984375 212.109375 350.429688 209.519531 350.816406 C 206.925781 351.199219 204.328125 351.519531 201.71875 351.777344 C 199.113281 352.035156 196.5 352.226562 193.886719 352.355469 C 191.269531 352.484375 188.652344 352.546875 186.03125 352.546875 C 183.410156 352.546875 180.792969 352.484375 178.175781 352.355469 C 175.558594 352.226562 172.949219 352.035156 170.339844 351.777344 C 167.734375 351.519531 165.132812 351.199219 162.542969 350.816406 C 159.953125 350.429688 157.371094 349.984375 154.800781 349.472656 C 152.234375 348.960938 149.675781 348.386719 147.136719 347.75 C 144.59375 347.113281 142.070312 346.414062 139.5625 345.65625 C 137.058594 344.894531 134.570312 344.074219 132.105469 343.191406 C 129.636719 342.308594 127.195312 341.363281 124.773438 340.363281 C 122.355469 339.359375 119.960938 338.296875 117.589844 337.179688 C 115.222656 336.058594 112.882812 334.882812 110.574219 333.644531 C 108.261719 332.410156 105.984375 331.121094 103.738281 329.773438 C 101.492188 328.425781 99.277344 327.027344 97.097656 325.570312 C 94.921875 324.113281 92.78125 322.605469 90.675781 321.046875 C 88.570312 319.484375 86.507812 317.875 84.480469 316.210938 C 82.457031 314.550781 80.472656 312.839844 78.53125 311.082031 C 76.59375 309.320312 74.695312 307.515625 72.84375 305.664062 C 70.992188 303.8125 69.183594 301.914062 67.425781 299.972656 C 65.664062 298.03125 63.957031 296.050781 62.292969 294.023438 C 60.632812 292 59.019531 289.933594 57.460938 287.828125 C 55.898438 285.726562 54.390625 283.585938 52.9375 281.40625 C 51.480469 279.226562 50.078125 277.015625 48.730469 274.769531 C 47.386719 272.523438 46.09375 270.242188 44.859375 267.933594 C 43.625 265.621094 42.449219 263.28125 41.328125 260.914062 C 40.207031 258.546875 39.144531 256.152344 38.144531 253.730469 C 37.140625 251.3125 36.199219 248.867188 35.316406 246.402344 C 34.433594 243.933594 33.613281 241.449219 32.851562 238.941406 C 32.089844 236.433594 31.390625 233.910156 30.753906 231.371094 C 30.121094 228.828125 29.546875 226.273438 29.035156 223.703125 C 28.523438 221.132812 28.074219 218.554688 27.691406 215.960938 C 27.308594 213.371094 26.984375 210.773438 26.730469 208.164062 C 26.472656 205.558594 26.28125 202.945312 26.152344 200.328125 C 26.023438 197.714844 25.957031 195.09375 25.957031 192.476562 C 25.957031 189.855469 26.023438 187.238281 26.152344 184.621094 C 26.28125 182.003906 26.472656 179.390625 26.730469 176.785156 C 26.984375 174.179688 27.308594 171.578125 27.691406 168.988281 C 28.074219 166.394531 28.523438 163.816406 29.035156 161.246094 C 29.546875 158.675781 30.121094 156.121094 30.753906 153.582031 C 31.390625 151.039062 32.089844 148.515625 32.851562 146.007812 C 33.613281 143.5 34.433594 141.015625 35.316406 138.546875 C 36.199219 136.082031 37.140625 133.636719 38.144531 131.21875 C 39.144531 128.796875 40.207031 126.402344 41.328125 124.035156 C 42.449219 121.667969 43.625 119.328125 44.859375 117.015625 C 46.09375 114.707031 47.386719 112.429688 48.730469 110.179688 C 50.078125 107.933594 51.480469 105.722656 52.9375 103.542969 C 54.390625 101.367188 55.898438 99.222656 57.460938 97.121094 C 59.019531 95.015625 60.632812 92.953125 62.292969 90.925781 C 63.957031 88.902344 65.664062 86.917969 67.425781 84.976562 C 69.183594 83.035156 70.992188 81.140625 72.84375 79.285156 C 74.695312 77.433594 76.59375 75.628906 78.53125 73.871094 C 80.472656 72.109375 82.457031 70.398438 84.480469 68.738281 C 86.507812 67.074219 88.570312 65.464844 90.675781 63.902344 C 92.78125 62.34375 94.921875 60.835938 97.097656 59.378906 C 99.277344 57.925781 101.492188 56.523438 103.738281 55.175781 C 105.984375 53.828125 108.261719 52.539062 110.574219 51.304688 C 112.882812 50.070312 115.222656 48.890625 117.589844 47.773438 C 119.960938 46.652344 122.355469 45.589844 124.773438 44.585938 C 127.195312 43.585938 129.636719 42.644531 132.105469 41.761719 C 134.570312 40.878906 137.058594 40.054688 139.5625 39.296875 C 142.070312 38.535156 144.59375 37.835938 147.136719 37.199219 C 149.675781 36.5625 152.234375 35.988281 154.800781 35.480469 C 157.371094 34.96875 159.953125 34.519531 162.542969 34.136719 C 165.132812 33.75 167.734375 33.429688 170.339844 33.171875 C 172.949219 32.917969 175.558594 32.722656 178.175781 32.59375 C 180.792969 32.46875 183.410156 32.402344 186.03125 32.402344 C 188.652344 32.402344 191.269531 32.46875 193.886719 32.59375 C 196.5 32.722656 199.113281 32.917969 201.71875 33.171875 C 204.328125 33.429688 206.925781 33.75 209.519531 34.136719 C 212.109375 34.519531 214.691406 34.96875 217.257812 35.480469 C 219.828125 35.988281 222.382812 36.5625 224.925781 37.199219 C 227.464844 37.835938 229.992188 38.535156 232.496094 39.296875 C 235.003906 40.054688 237.492188 40.878906 239.957031 41.761719 C 242.425781 42.644531 244.867188 43.585938 247.289062 44.585938 C 249.707031 45.589844 252.101562 46.652344 254.46875 47.773438 C 256.839844 48.890625 259.179688 50.070312 261.488281 51.304688 C 263.796875 52.539062 266.078125 53.828125 268.324219 55.175781 C 270.570312 56.523438 272.785156 57.925781 274.960938 59.378906 C 277.140625 60.835938 279.28125 62.34375 281.386719 63.902344 C 283.488281 65.464844 285.554688 67.074219 287.578125 68.738281 C 289.605469 70.398438 291.585938 72.109375 293.527344 73.871094 C 295.46875 75.628906 297.367188 77.433594 299.21875 79.285156 C 301.070312 81.140625 302.878906 83.035156 304.636719 84.976562 C 306.394531 86.917969 308.105469 88.902344 309.769531 90.925781 C 311.429688 92.953125 313.042969 95.015625 314.601562 97.121094 C 316.164062 99.222656 317.671875 101.367188 319.125 103.542969 C 320.582031 105.722656 321.984375 107.933594 323.328125 110.179688 C 324.675781 112.429688 325.96875 114.707031 327.203125 117.015625 C 328.4375 119.328125 329.613281 121.667969 330.734375 124.035156 C 331.855469 126.402344 332.914062 128.796875 333.917969 131.21875 C 334.921875 133.636719 335.863281 136.082031 336.746094 138.546875 C 337.628906 141.015625 338.449219 143.5 339.210938 146.007812 C 339.972656 148.515625 340.667969 151.039062 341.304688 153.582031 C 341.941406 156.121094 342.515625 158.675781 343.027344 161.246094 C 343.539062 163.816406 343.984375 166.394531 344.371094 168.988281 C 344.753906 171.578125 345.074219 174.179688 345.332031 176.785156 C 345.589844 179.390625 345.78125 182.003906 345.910156 184.621094 C 346.039062 187.238281 346.101562 189.855469 346.101562 192.476562 Z M 346.101562 192.476562 " fill-opacity="1" fill-rule="nonzero"/></g></g><g clip-path="url(#58408bd835)"><g clip-path="url(#2ab9b65ba6)"><path fill="#ef9f19" d="M 291.304688 195.179688 C 291.304688 196.902344 291.261719 198.625 291.179688 200.34375 C 291.09375 202.066406 290.964844 203.785156 290.796875 205.496094 C 290.628906 207.210938 290.417969 208.921875 290.164062 210.625 C 289.914062 212.332031 289.617188 214.027344 289.28125 215.71875 C 288.945312 217.40625 288.570312 219.085938 288.148438 220.757812 C 287.730469 222.429688 287.273438 224.089844 286.773438 225.738281 C 286.273438 227.386719 285.730469 229.023438 285.152344 230.644531 C 284.570312 232.265625 283.949219 233.875 283.292969 235.464844 C 282.632812 237.058594 281.933594 238.632812 281.199219 240.191406 C 280.460938 241.746094 279.6875 243.285156 278.875 244.804688 C 278.0625 246.324219 277.214844 247.824219 276.328125 249.300781 C 275.441406 250.777344 274.519531 252.234375 273.5625 253.667969 C 272.605469 255.097656 271.613281 256.507812 270.585938 257.890625 C 269.5625 259.273438 268.5 260.632812 267.410156 261.964844 C 266.316406 263.296875 265.191406 264.601562 264.035156 265.875 C 262.875 267.152344 261.6875 268.402344 260.472656 269.617188 C 259.253906 270.835938 258.003906 272.023438 256.726562 273.183594 C 255.453125 274.339844 254.148438 275.464844 252.816406 276.558594 C 251.484375 277.648438 250.125 278.710938 248.742188 279.734375 C 247.359375 280.761719 245.949219 281.753906 244.519531 282.710938 C 243.085938 283.667969 241.628906 284.589844 240.152344 285.476562 C 238.675781 286.363281 237.175781 287.210938 235.65625 288.023438 C 234.136719 288.835938 232.597656 289.609375 231.042969 290.34375 C 229.484375 291.082031 227.910156 291.78125 226.316406 292.441406 C 224.726562 293.097656 223.117188 293.71875 221.496094 294.300781 C 219.875 294.878906 218.238281 295.421875 216.589844 295.921875 C 214.941406 296.421875 213.28125 296.878906 211.609375 297.296875 C 209.9375 297.71875 208.257812 298.09375 206.570312 298.429688 C 204.878906 298.765625 203.183594 299.0625 201.476562 299.3125 C 199.773438 299.566406 198.0625 299.777344 196.347656 299.945312 C 194.636719 300.113281 192.917969 300.242188 191.195312 300.328125 C 189.476562 300.410156 187.753906 300.453125 186.03125 300.453125 C 184.308594 300.453125 182.585938 300.410156 180.867188 300.328125 C 179.144531 300.242188 177.425781 300.113281 175.710938 299.945312 C 173.996094 299.777344 172.289062 299.566406 170.582031 299.3125 C 168.878906 299.0625 167.183594 298.765625 165.492188 298.429688 C 163.804688 298.09375 162.121094 297.71875 160.453125 297.296875 C 158.78125 296.878906 157.121094 296.421875 155.472656 295.921875 C 153.824219 295.421875 152.1875 294.878906 150.566406 294.300781 C 148.941406 293.71875 147.335938 293.097656 145.746094 292.441406 C 144.152344 291.78125 142.578125 291.082031 141.019531 290.34375 C 139.464844 289.609375 137.925781 288.835938 136.40625 288.023438 C 134.886719 287.210938 133.386719 286.363281 131.910156 285.476562 C 130.429688 284.589844 128.976562 283.667969 127.542969 282.710938 C 126.109375 281.753906 124.703125 280.761719 123.320312 279.734375 C 121.933594 278.710938 120.578125 277.648438 119.246094 276.558594 C 117.914062 275.464844 116.609375 274.339844 115.332031 273.183594 C 114.058594 272.023438 112.808594 270.835938 111.589844 269.617188 C 110.371094 268.402344 109.183594 267.152344 108.027344 265.875 C 106.871094 264.601562 105.746094 263.296875 104.652344 261.964844 C 103.558594 260.632812 102.5 259.273438 101.472656 257.890625 C 100.449219 256.507812 99.457031 255.097656 98.5 253.667969 C 97.542969 252.234375 96.621094 250.777344 95.734375 249.300781 C 94.847656 247.824219 94 246.324219 93.1875 244.804688 C 92.375 243.285156 91.601562 241.746094 90.863281 240.191406 C 90.128906 238.632812 89.429688 237.058594 88.769531 235.464844 C 88.109375 233.875 87.492188 232.265625 86.910156 230.644531 C 86.332031 229.023438 85.789062 227.386719 85.289062 225.738281 C 84.789062 224.089844 84.332031 222.429688 83.910156 220.757812 C 83.492188 219.085938 83.117188 217.40625 82.78125 215.71875 C 82.445312 214.027344 82.148438 212.332031 81.894531 210.625 C 81.644531 208.921875 81.433594 207.210938 81.265625 205.496094 C 81.09375 203.785156 80.96875 202.066406 80.882812 200.34375 C 80.800781 198.625 80.757812 196.902344 80.757812 195.179688 C 80.757812 193.457031 80.800781 191.734375 80.882812 190.015625 C 80.96875 188.292969 81.09375 186.574219 81.265625 184.859375 C 81.433594 183.144531 81.644531 181.4375 81.894531 179.730469 C 82.148438 178.027344 82.445312 176.332031 82.78125 174.640625 C 83.117188 172.953125 83.492188 171.269531 83.910156 169.601562 C 84.332031 167.929688 84.789062 166.269531 85.289062 164.621094 C 85.789062 162.972656 86.332031 161.335938 86.910156 159.714844 C 87.492188 158.089844 88.109375 156.484375 88.769531 154.894531 C 89.429688 153.300781 90.128906 151.726562 90.863281 150.167969 C 91.601562 148.613281 92.375 147.074219 93.1875 145.554688 C 94 144.035156 94.847656 142.535156 95.734375 141.058594 C 96.621094 139.578125 97.542969 138.125 98.5 136.691406 C 99.457031 135.257812 100.449219 133.851562 101.472656 132.46875 C 102.5 131.082031 103.558594 129.726562 104.652344 128.394531 C 105.746094 127.0625 106.871094 125.757812 108.027344 124.480469 C 109.183594 123.203125 110.371094 121.957031 111.589844 120.738281 C 112.808594 119.519531 114.058594 118.332031 115.332031 117.175781 C 116.609375 116.019531 117.914062 114.894531 119.246094 113.800781 C 120.578125 112.707031 121.933594 111.648438 123.320312 110.621094 C 124.703125 109.597656 126.109375 108.605469 127.542969 107.648438 C 128.976562 106.691406 130.429688 105.769531 131.910156 104.882812 C 133.386719 103.996094 134.886719 103.148438 136.40625 102.335938 C 137.925781 101.523438 139.464844 100.75 141.019531 100.011719 C 142.578125 99.277344 144.152344 98.578125 145.746094 97.917969 C 147.335938 97.257812 148.941406 96.640625 150.566406 96.058594 C 152.1875 95.480469 153.824219 94.9375 155.472656 94.4375 C 157.121094 93.9375 158.78125 93.480469 160.453125 93.058594 C 162.121094 92.640625 163.804688 92.265625 165.492188 91.929688 C 167.183594 91.59375 168.878906 91.296875 170.582031 91.042969 C 172.289062 90.792969 173.996094 90.582031 175.710938 90.414062 C 177.425781 90.242188 179.144531 90.117188 180.867188 90.03125 C 182.585938 89.949219 184.308594 89.90625 186.03125 89.90625 C 187.753906 89.90625 189.476562 89.949219 191.195312 90.03125 C 192.917969 90.117188 194.636719 90.242188 196.347656 90.414062 C 198.0625 90.582031 199.773438 90.792969 201.476562 91.042969 C 203.183594 91.296875 204.878906 91.59375 206.570312 91.929688 C 208.257812 92.265625 209.9375 92.640625 211.609375 93.058594 C 213.28125 93.480469 214.941406 93.9375 216.589844 94.4375 C 218.238281 94.9375 219.875 95.480469 221.496094 96.058594 C 223.117188 96.640625 224.726562 97.257812 226.316406 97.917969 C 227.910156 98.578125 229.484375 99.277344 231.042969 100.011719 C 232.597656 100.75 234.136719 101.523438 235.65625 102.335938 C 237.175781 103.148438 238.675781 103.996094 240.152344 104.882812 C 241.628906 105.769531 243.085938 106.691406 244.519531 107.648438 C 245.949219 108.605469 247.359375 109.597656 248.742188 110.621094 C 250.125 111.648438 251.484375 112.707031 252.816406 113.800781 C 254.148438 114.894531 255.453125 116.019531 256.726562 117.175781 C 258.003906 118.332031 259.253906 119.519531 260.472656 120.738281 C 261.6875 121.957031 262.875 123.203125 264.035156 124.480469 C 265.191406 125.757812 266.316406 127.0625 267.410156 128.394531 C 268.5 129.726562 269.5625 131.082031 270.585938 132.46875 C 271.613281 133.851562 272.605469 135.257812 273.5625 136.691406 C 274.519531 138.125 275.441406 139.578125 276.328125 141.058594 C 277.214844 142.535156 278.0625 144.035156 278.875 145.554688 C 279.6875 147.074219 280.460938 148.613281 281.199219 150.167969 C 281.933594 151.726562 282.632812 153.300781 283.292969 154.894531 C 283.949219 156.484375 284.570312 158.089844 285.152344 159.714844 C 285.730469 161.335938 286.273438 162.972656 286.773438 164.621094 C 287.273438 166.269531 287.730469 167.929688 288.148438 169.601562 C 288.570312 171.269531 288.945312 172.953125 289.28125 174.640625 C 289.617188 176.332031 289.914062 178.027344 290.164062 179.730469 C 290.417969 181.4375 290.628906 183.144531 290.796875 184.859375 C 290.964844 186.574219 291.09375 188.292969 291.179688 190.015625 C 291.261719 191.734375 291.304688 193.457031 291.304688 195.179688 Z M 291.304688 195.179688 " fill-opacity="1" fill-rule="nonzero"/></g></g><g clip-path="url(#331bb87437)"><g clip-path="url(#5c57d5a5b6)"><path fill="#f5f1c6" d="M 246.214844 187.449219 C 246.214844 189.375 246.121094 191.292969 245.933594 193.210938 C 245.742188 195.125 245.460938 197.027344 245.085938 198.914062 C 244.710938 200.800781 244.242188 202.667969 243.683594 204.507812 C 243.125 206.351562 242.476562 208.160156 241.742188 209.9375 C 241.003906 211.714844 240.183594 213.453125 239.277344 215.152344 C 238.367188 216.847656 237.378906 218.496094 236.3125 220.097656 C 235.242188 221.699219 234.097656 223.242188 232.875 224.730469 C 231.65625 226.21875 230.363281 227.640625 229.003906 229.003906 C 227.640625 230.363281 226.21875 231.65625 224.730469 232.875 C 223.242188 234.097656 221.699219 235.242188 220.097656 236.3125 C 218.496094 237.378906 216.847656 238.367188 215.152344 239.277344 C 213.453125 240.183594 211.714844 241.003906 209.9375 241.742188 C 208.160156 242.476562 206.351562 243.125 204.507812 243.683594 C 202.667969 244.242188 200.800781 244.710938 198.914062 245.085938 C 197.027344 245.460938 195.125 245.742188 193.210938 245.933594 C 191.292969 246.121094 189.375 246.214844 187.449219 246.214844 C 185.527344 246.214844 183.605469 246.121094 181.691406 245.933594 C 179.773438 245.742188 177.875 245.460938 175.984375 245.085938 C 174.097656 244.710938 172.234375 244.242188 170.390625 243.683594 C 168.550781 243.125 166.738281 242.476562 164.960938 241.742188 C 163.183594 241.003906 161.445312 240.183594 159.75 239.277344 C 158.050781 238.367188 156.402344 237.378906 154.800781 236.3125 C 153.203125 235.242188 151.65625 234.097656 150.171875 232.875 C 148.683594 231.65625 147.257812 230.363281 145.898438 229.003906 C 144.535156 227.640625 143.246094 226.21875 142.023438 224.730469 C 140.804688 223.242188 139.65625 221.699219 138.589844 220.097656 C 137.519531 218.496094 136.53125 216.847656 135.625 215.152344 C 134.71875 213.453125 133.894531 211.714844 133.160156 209.9375 C 132.421875 208.160156 131.773438 206.351562 131.214844 204.507812 C 130.65625 202.667969 130.191406 200.800781 129.8125 198.914062 C 129.4375 197.027344 129.15625 195.125 128.96875 193.210938 C 128.78125 191.292969 128.683594 189.375 128.683594 187.449219 C 128.683594 185.527344 128.78125 183.605469 128.96875 181.691406 C 129.15625 179.773438 129.4375 177.875 129.8125 175.984375 C 130.191406 174.097656 130.65625 172.234375 131.214844 170.390625 C 131.773438 168.550781 132.421875 166.738281 133.160156 164.960938 C 133.894531 163.183594 134.71875 161.445312 135.625 159.75 C 136.53125 158.050781 137.519531 156.402344 138.589844 154.800781 C 139.65625 153.203125 140.804688 151.65625 142.023438 150.171875 C 143.246094 148.683594 144.535156 147.257812 145.898438 145.898438 C 147.257812 144.535156 148.683594 143.246094 150.171875 142.023438 C 151.65625 140.804688 153.203125 139.65625 154.800781 138.589844 C 156.402344 137.519531 158.050781 136.53125 159.75 135.625 C 161.445312 134.71875 163.183594 133.894531 164.960938 133.160156 C 166.738281 132.421875 168.550781 131.773438 170.390625 131.214844 C 172.234375 130.65625 174.097656 130.191406 175.984375 129.8125 C 177.875 129.4375 179.773438 129.15625 181.691406 128.96875 C 183.605469 128.78125 185.527344 128.683594 187.449219 128.683594 C 189.375 128.683594 191.292969 128.78125 193.210938 128.96875 C 195.125 129.15625 197.027344 129.4375 198.914062 129.8125 C 200.800781 130.191406 202.667969 130.65625 204.507812 131.214844 C 206.351562 131.773438 208.160156 132.421875 209.9375 133.160156 C 211.714844 133.894531 213.453125 134.71875 215.152344 135.625 C 216.847656 136.53125 218.496094 137.519531 220.097656 138.589844 C 221.699219 139.65625 223.242188 140.804688 224.730469 142.023438 C 226.21875 143.246094 227.640625 144.535156 229.003906 145.898438 C 230.363281 147.257812 231.65625 148.683594 232.875 150.171875 C 234.097656 151.65625 235.242188 153.203125 236.3125 154.800781 C 237.378906 156.402344 238.367188 158.050781 239.277344 159.75 C 240.183594 161.445312 241.003906 163.183594 241.742188 164.960938 C 242.476562 166.738281 243.125 168.550781 243.683594 170.390625 C 244.242188 172.234375 244.710938 174.097656 245.085938 175.984375 C 245.460938 177.875 245.742188 179.773438 245.933594 181.691406 C 246.121094 183.605469 246.214844 185.527344 246.214844 187.449219 Z M 246.214844 187.449219 " fill-opacity="1" fill-rule="nonzero"/></g></g><g clip-path="url(#87eb01424b)"><g clip-path="url(#81a5abc652)"><path fill="#ef9f19" d="M 127.171875 266.953125 C 121.78125 248.683594 98.242188 223.679688 112.75 203.300781 C 113.292969 202.539062 112.140625 203.183594 113.414062 201.851562 C 125.730469 209.128906 129.203125 215.929688 139.445312 224.480469 C 144.332031 228.554688 145.066406 233.480469 153.738281 231.207031 C 161.054688 229.28125 158.226562 209.785156 162.664062 221.972656 C 167.515625 235.3125 158.644531 266.03125 174.632812 266.03125 C 186.871094 266.03125 181.046875 270.441406 203.457031 267.363281 C 222.628906 264.730469 216.875 270.597656 240.867188 261.253906 C 270.34375 249.773438 248.691406 250.9375 248.691406 226.824219 C 248.691406 217.070312 248.746094 216.234375 261.703125 212.269531 C 278.335938 207.183594 273.414062 231.816406 285.941406 232.851562 C 286.671875 232.910156 286.609375 232.742188 287.3125 232.027344 C 291.089844 236.128906 299 236.363281 303.007812 242.289062 C 304.304688 244.207031 304.550781 237.230469 302.132812 229.523438 C 300.222656 223.429688 307.777344 210.855469 314.289062 220.148438 C 323.3125 233.023438 327.40625 242.40625 339.765625 253.570312 C 343.164062 256.640625 352.367188 269.058594 341.230469 269.84375 C 330.585938 270.589844 310.265625 267.007812 307.941406 254.410156 C 307.503906 252.03125 304.613281 244.683594 304.570312 244.800781 C 303.835938 246.773438 294.914062 252.789062 291.789062 258.789062 C 286.234375 269.441406 273.621094 266.339844 263.457031 266.25 C 242.886719 266.074219 249.722656 262.191406 231.160156 268.425781 C 228.1875 269.425781 160.824219 269.640625 158.566406 269.238281 C 146 266.988281 139.921875 266.953125 127.171875 266.953125 Z M 127.171875 266.953125 " fill-opacity="1" fill-rule="evenodd"/></g></g><g clip-path="url(#eacaa80a77)"><g clip-path="url(#75108452c7)"><path fill="#083a47" d="M 242.058594 221.398438 L 241.792969 228.410156 C 241.621094 228.519531 241.316406 228.613281 241.226562 228.644531 C 241.136719 228.671875 240.777344 228.828125 240.675781 228.859375 L 239.46875 229.1875 C 239.378906 229.214844 238.941406 229.535156 238.871094 229.351562 C 238.800781 229.15625 238.445312 229.421875 238.253906 229.515625 L 240.917969 235.785156 C 244.519531 240.386719 245.355469 235.320312 248.148438 242.828125 C 250.917969 250.28125 263.53125 253.082031 265.472656 259.984375 C 257.019531 260.269531 243.925781 248.882812 240.191406 248.164062 C 245.238281 259.578125 250.039062 257.960938 251.769531 263.910156 C 247.257812 262.289062 247.542969 262.589844 244.597656 259.832031 C 242.339844 257.722656 237.074219 254.160156 235.695312 252.226562 C 231.515625 246.355469 235.167969 243.660156 227.339844 239.132812 C 223.074219 236.667969 220.488281 234.898438 217.152344 232.765625 C 218.34375 240.628906 223.261719 244.019531 225.03125 250.382812 L 220.046875 243.765625 C 207.96875 229.714844 210.039062 231.957031 207.449219 236.007812 C 203.238281 229.886719 204.410156 235.820312 201.171875 228.203125 C 201.058594 218.0625 200.414062 219.597656 199.089844 212.042969 C 197.59375 213.617188 191 222.457031 189.597656 224.777344 C 189.996094 227.042969 193.792969 235.3125 194.789062 236.679688 C 197.070312 239.816406 200.820312 241.234375 203.71875 242.492188 C 203.628906 242.554688 206.328125 246.703125 200.496094 243.089844 C 203.472656 246.40625 200.554688 250.222656 206.382812 255.34375 C 210.078125 258.589844 214.816406 258.21875 218.402344 261.535156 C 212.5625 260.816406 214.84375 258.652344 208.582031 259.152344 C 204.414062 259.480469 203.417969 261.339844 200.363281 262.253906 C 202.628906 257.902344 204.179688 258.125 200.945312 253.953125 C 199.605469 252.230469 197.929688 252.910156 196.828125 250.960938 C 195.15625 248.019531 196.523438 249.707031 195.292969 247.035156 C 193.621094 243.402344 192.050781 242.382812 190.292969 239.480469 C 188.023438 235.746094 189.09375 233.71875 187.050781 230.21875 L 185.429688 237.167969 L 181.027344 237.28125 C 182.640625 239.859375 183.9375 242.75 185.429688 245.015625 C 187.3125 247.875 187.1875 247.070312 189.480469 249.554688 C 188.066406 256.492188 185.773438 253.269531 185.078125 260.550781 C 187.929688 263.671875 191.363281 264.175781 194.203125 266.9375 C 179.113281 261.332031 186.175781 258.355469 180.910156 253.953125 C 176.5 257.128906 179.527344 260.066406 176.089844 264.148438 C 174.96875 259.765625 174.414062 252.328125 171.886719 248.355469 C 171.210938 247.296875 170.753906 244.988281 170.722656 244.113281 L 171.789062 237.597656 C 173.304688 241.632812 173.566406 241.402344 176.28125 243.882812 C 177.875 241.578125 178.5625 235.839844 178.34375 232.960938 L 176.859375 222.34375 C 165.792969 228.230469 177.902344 218.800781 169.84375 206.789062 L 167.113281 212.566406 C 167.019531 212.777344 166.75 213.601562 166.679688 213.433594 C 166.609375 213.265625 166.417969 214.039062 166.289062 214.289062 L 164.28125 207.394531 L 167.214844 202.800781 C 168.085938 199.90625 167.964844 200.945312 169.335938 198.148438 C 173.4375 199.550781 172.691406 203.359375 177.902344 205.210938 C 175.933594 196.644531 170.15625 197.390625 169.21875 193.167969 L 169.105469 190.390625 C 168.054688 186.875 166.480469 185.140625 170.652344 180.21875 L 164.320312 181.863281 C 162.886719 186.253906 153.515625 188.566406 146.421875 199.460938 C 142.453125 205.558594 144.109375 204.058594 138.082031 208.835938 L 133.316406 212.960938 C 128.222656 216.4375 126.121094 218.480469 134.277344 223.015625 L 140.699219 226.761719 C 140.871094 226.878906 141.210938 227.09375 141.433594 227.300781 C 139.332031 230.613281 139.015625 230.753906 138.875 235.042969 C 150.515625 243.546875 155.371094 234.15625 160.550781 225.65625 C 159.503906 231.589844 151.570312 240.035156 148.621094 244.996094 C 151.191406 251.328125 153.699219 250.441406 157.9375 252.628906 C 161.089844 254.253906 158.753906 252.84375 160.269531 254.089844 C 149.558594 254.789062 153.085938 251.347656 146.617188 249.496094 L 143.867188 255.230469 C 141.503906 248.289062 142.796875 236.433594 134.117188 238.761719 L 135.175781 232.144531 C 125.695312 231.609375 132.601562 224.90625 119.417969 225.511719 C 120.105469 222.558594 120.464844 222.582031 120.265625 219.578125 L 116.382812 209.960938 C 114.644531 207.0625 116.746094 208.882812 112.75 207.394531 C 112.949219 206.804688 113.777344 205.238281 113.84375 204.710938 C 114.179688 201.90625 114.15625 203.078125 113.4375 201.878906 C 105.632812 208.578125 98.199219 213.59375 91.617188 220.96875 C 77.511719 236.769531 88.933594 229.972656 68.464844 239.769531 C 58.296875 244.640625 28.890625 258.472656 20.984375 265.359375 C 20.183594 266.058594 18.691406 267.285156 18.074219 267.996094 C 16.59375 269.707031 16.777344 268.808594 16.324219 271.148438 L 374.386719 271.488281 C 373.265625 269.039062 355.40625 255.144531 349.234375 253.6875 C 344.144531 252.488281 342.085938 252.414062 337.828125 249.507812 C 311.054688 231.25 322.703125 228.316406 310.523438 218.734375 C 311.410156 220.265625 312.503906 221.414062 312.949219 222.695312 C 315.722656 230.648438 313.496094 223.421875 312.71875 227.117188 C 312.472656 228.277344 311.550781 229.019531 313.480469 230.761719 L 316.351562 232.144531 C 316.609375 232.242188 317.546875 232.390625 317.871094 232.566406 C 319.078125 238.238281 318.226562 239.730469 318.664062 243.195312 C 321.171875 245.933594 323.039062 245.972656 325.527344 248.566406 C 328.761719 251.941406 326.050781 252.398438 341.902344 267.957031 C 322.976562 260.558594 330.789062 254.894531 320.160156 255.265625 C 321.007812 253 321.652344 250.960938 321.777344 247.742188 C 319.386719 246.078125 317.070312 243.644531 314.734375 241.574219 L 310.511719 245.878906 C 310.910156 240.671875 311.183594 235.695312 310.15625 230.605469 C 308.632812 223.082031 307.484375 224.839844 303.988281 227.976562 L 308.789062 217.015625 C 300.53125 218.59375 295.609375 230.332031 293.164062 232.378906 C 289.675781 235.285156 290.28125 233.03125 285.726562 231.316406 C 285.855469 238.011719 286.582031 234.417969 288.125 239.402344 C 287.015625 238.835938 285.476562 237.75 285.140625 237.65625 C 279.304688 235.988281 290.667969 237.503906 281.816406 238.210938 C 281.109375 236.886719 280.496094 235.574219 279.832031 234.566406 L 277.113281 231.371094 C 277.046875 237.222656 278.714844 236.808594 280.390625 240.496094 C 281.894531 243.8125 282.375 248.148438 282.992188 251.734375 C 280.898438 250.210938 282.933594 252.691406 280.53125 249.355469 C 278.109375 245.992188 278.890625 242.226562 276.28125 238.480469 C 273.175781 244.242188 277.152344 239.742188 275.5625 246.835938 C 273.285156 245.964844 274.289062 246.050781 272.128906 244.480469 C 270.824219 243.53125 268.460938 242.3125 267.253906 241.679688 L 268.738281 237.242188 C 269.796875 237.800781 273.519531 242.089844 273 237.757812 C 272.964844 237.484375 271.652344 233.855469 269.042969 232.996094 C 267.671875 232.542969 268.753906 233.480469 267.621094 232.832031 L 271.269531 222.453125 C 265.449219 225.40625 266.472656 226.992188 262.890625 230.429688 C 263.214844 225.367188 265.253906 225.863281 267.273438 221.832031 C 268.582031 219.226562 268.136719 220.246094 268.148438 217.164062 L 267.175781 211.742188 C 261.589844 211.652344 260.710938 214.871094 258.527344 219.804688 C 256.621094 224.105469 255.140625 228.058594 254.78125 232.832031 C 258.09375 236.15625 257.941406 236.230469 260.277344 239.679688 C 263.355469 244.226562 263.113281 242.707031 266.980469 245.265625 C 272.761719 249.085938 272.523438 255.273438 276.398438 258.710938 C 254.523438 242.644531 274.675781 256.128906 261.464844 244.121094 C 257.265625 240.304688 258.550781 235.496094 250.316406 235.335938 C 252.09375 224.691406 247.472656 231.285156 249.351562 219.851562 Z M 242.058594 221.398438 " fill-opacity="1" fill-rule="evenodd"/></g></g><g clip-path="url(#3f133409ed)"><g clip-path="url(#a6560c5cff)"><path fill="#ef9f19" d="M 242.058594 221.398438 C 241.785156 221.4375 234.351562 220.839844 236.210938 228.410156 C 236.199219 231.578125 235.332031 228.074219 234.988281 227.691406 C 230.191406 222.347656 226.789062 226.003906 222.933594 229.519531 C 221.308594 229.433594 221.671875 229.460938 220.847656 229 C 220.636719 228.882812 219.308594 227.804688 219.238281 227.722656 C 218.101562 226.453125 218.1875 225.757812 216.730469 223.746094 L 200.289062 206.90625 C 198.539062 204.613281 198.613281 204.636719 196.660156 202.6875 C 193.949219 199.988281 193.058594 198.351562 190.601562 195.523438 L 175.441406 183.808594 C 175.023438 183.539062 171.777344 181.058594 171.5625 180.957031 C 171.480469 180.917969 169.285156 177.824219 164.320312 181.863281 L 168.960938 181.609375 C 164.792969 186.527344 166.871094 186.851562 167.917969 190.367188 L 168.339844 193.230469 C 169.277344 197.449219 172.125 196.171875 175.730469 202.40625 C 171.898438 199.550781 172.625 198.160156 168.523438 196.757812 C 167.152344 199.558594 166.15625 199.070312 165.28125 201.96875 L 163.3125 207.296875 L 165.863281 216.789062 C 167.414062 213.8125 167.265625 212.332031 169.796875 208.453125 C 172.886719 214.234375 169.644531 219.792969 171.757812 227.785156 C 172.015625 227.605469 172.34375 226.945312 172.460938 227.160156 C 173.175781 228.410156 172.539062 225.953125 176.480469 223.855469 L 175.238281 232.535156 C 175.457031 235.414062 178.074219 240.324219 176.480469 242.628906 C 173.765625 240.148438 173.542969 240.167969 172.027344 236.136719 L 169.332031 243.800781 C 169.359375 244.675781 169.207031 244.023438 169.617188 245.105469 C 173.148438 254.394531 173.210938 254.976562 175.820312 265.183594 C 179.640625 261.453125 176.863281 258.945312 180.90625 255.433594 C 186 260.335938 179.757812 262.902344 194.203125 266.9375 C 191.5625 263.78125 189.425781 263.484375 186.335938 260.851562 C 187.105469 254.503906 190.074219 257.039062 191.101562 249.441406 C 188.808594 246.953125 187.886719 247.550781 186.007812 244.691406 C 184.515625 242.425781 184.054688 240.9375 182.441406 238.363281 L 186.757812 238.769531 L 187.085938 232.195312 C 189.132812 235.695312 187.566406 236.699219 189.832031 240.4375 C 191.589844 243.339844 190.703125 243.726562 192.375 247.355469 C 193.605469 250.027344 193.945312 248.347656 195.617188 251.292969 C 196.71875 253.238281 198.699219 253.042969 200.039062 254.769531 C 203.273438 258.9375 200.425781 260.140625 198.164062 264.488281 C 201.21875 263.574219 204.535156 261 208.699219 260.667969 C 214.960938 260.171875 214.667969 261.691406 220.507812 262.40625 C 216.917969 259.09375 211.15625 258.136719 207.460938 254.890625 C 201.632812 249.769531 205.441406 247.460938 202.46875 244.144531 C 208.300781 247.757812 204.851562 242.414062 204.945312 242.351562 C 202.042969 241.09375 197.898438 238.335938 195.617188 235.195312 C 194.621094 233.828125 191.382812 227.085938 190.984375 224.820312 C 192.386719 222.5 196.78125 216.703125 198.28125 215.128906 C 199.601562 222.683594 196.582031 221.734375 199.550781 228.714844 C 202.792969 236.328125 203.214844 231.625 207.425781 237.742188 C 210.015625 233.699219 208.085938 232.03125 220.160156 246.082031 L 226.523438 251.925781 C 225.371094 245.269531 219.910156 242.894531 218.71875 235.03125 C 222.050781 237.160156 223.308594 239.5625 227.570312 242.03125 C 230.777344 243.882812 230.875 245.652344 231.507812 246.660156 C 232.425781 248.117188 232.394531 249.441406 234.867188 252.910156 C 236.242188 254.84375 241.34375 258.054688 243.601562 260.164062 C 246.550781 262.921875 250.800781 265.320312 255.3125 266.941406 C 254.015625 259.605469 248.269531 260.609375 242.84375 250.402344 C 246.417969 251.878906 256.886719 260.902344 265.472656 259.984375 C 263.609375 252.484375 251.753906 248.308594 248.875 241.679688 C 246.082031 234.171875 245.066406 239.449219 241.464844 234.851562 L 238.253906 229.515625 C 239.269531 229.027344 241.613281 229.449219 242.390625 228.945312 Z M 242.058594 221.398438 " fill-opacity="1" fill-rule="evenodd"/></g></g><g clip-path="url(#c51d5e7cfe)"><g clip-path="url(#09c053fb3d)"><path fill="#ef9f19" d="M 83.519531 240.121094 C 77.558594 240.511719 77.160156 239.476562 76.910156 245.175781 C 81.835938 242.675781 75.753906 242.703125 83.574219 242.675781 C 84.707031 244.195312 86.527344 241.019531 83.46875 247.550781 C 84.460938 247.453125 85.765625 247.261719 86.675781 247.503906 C 89.203125 248.171875 87.542969 246.96875 90.394531 250.539062 C 94.113281 255.203125 94.613281 258.175781 96.804688 260.539062 C 98.375 262.230469 101.625 263.882812 104.28125 266.238281 C 108.300781 269.800781 109.144531 269.714844 116.328125 270.011719 C 115.875 259.472656 112.496094 266.769531 112.621094 259.53125 C 121.527344 253 124.296875 264.273438 135.472656 263.765625 C 132.8125 261.378906 132.378906 262.410156 128.894531 260.613281 C 126.015625 259.132812 124.9375 257.261719 122.363281 256.144531 C 116.171875 253.441406 108.464844 258.496094 105.714844 252.144531 C 102.402344 244.503906 113.15625 254.597656 95.3125 243.261719 C 90.902344 240.460938 86.929688 236.789062 80.378906 236.613281 C 82.550781 238.832031 82.265625 237.503906 83.519531 240.121094 Z M 83.519531 240.121094 " fill-opacity="1" fill-rule="evenodd"/></g></g><g clip-path="url(#76f00c90ab)"><g clip-path="url(#3d4de19517)"><path fill="#ef9f19" d="M 289.859375 254.480469 L 294.824219 250.324219 C 297.050781 251.828125 298.386719 253.882812 298.992188 256.328125 L 298.777344 261.636719 C 298.761719 261.695312 298.6875 261.949219 298.699219 262.109375 C 301.085938 262.921875 311.121094 264.410156 314.902344 265.300781 C 312.148438 258.542969 305.757812 259.398438 300.128906 249.777344 L 299.445312 248.285156 C 299.324219 248.0625 299.222656 247.742188 299.09375 247.53125 C 297.378906 244.699219 294.703125 242.523438 291.15625 240.875 C 292.035156 245.167969 293.167969 244.046875 291.949219 247.621094 C 290.902344 250.691406 290.355469 248.011719 289.859375 254.480469 Z M 289.859375 254.480469 " fill-opacity="1" fill-rule="evenodd"/></g></g><g clip-path="url(#8d95744ff0)"><g clip-path="url(#81ee1234a9)"><path fill="#083a47" d="M 16.324219 269.355469 L 425.058594 269.355469 L 425.058594 418.710938 L 16.324219 418.710938 Z M 16.324219 269.355469 " fill-opacity="1" fill-rule="evenodd"/></g></g><g clip-path="url(#b1c251d365)"><g clip-path="url(#0cbedee6f6)"><path fill="#000000" d="M 320.4375 242.257812 C 317.441406 243.09375 317.265625 243.75 314.542969 242.992188 L 318.367188 248.765625 C 318.054688 249 317.566406 248.875 317.476562 249.257812 C 315.683594 257.117188 314.453125 242.765625 317.59375 256.761719 C 310.527344 254.207031 316.304688 254.929688 310.160156 252.394531 C 311.5625 256.21875 313.066406 257.261719 315.167969 260.320312 C 309.800781 263.089844 316.234375 257.972656 310.964844 261.160156 L 313.339844 265.757812 C 311.527344 265.167969 310.210938 264.34375 307.402344 263.480469 C 307.539062 263.859375 307.898438 263.949219 307.992188 264.535156 C 308.074219 265.09375 308.429688 265.3125 308.535156 265.546875 C 309.507812 267.6875 310.1875 267.199219 309.089844 270.511719 C 306.695312 277.710938 307.859375 271.054688 310.03125 276.886719 C 300.363281 279.589844 311.339844 274.8125 303.882812 276.71875 C 306.253906 267.402344 302.066406 263.628906 305.246094 258.820312 C 304.851562 258.679688 302.972656 258.390625 302.882812 258.332031 C 300.640625 256.910156 301.347656 256.121094 300.753906 253.714844 L 300.378906 252.21875 C 300.15625 251.636719 298.453125 249.160156 298.167969 248.734375 L 295.015625 263.089844 C 294.308594 267.050781 296.664062 264.335938 293.070312 267.304688 C 292.578125 266.089844 292.324219 261.832031 292.1875 259.824219 C 291.773438 253.648438 291.882812 253.671875 295.566406 251.445312 L 291.96875 248.714844 C 291.777344 248.542969 291.320312 248.070312 291.140625 247.894531 L 289.617188 246.398438 C 293.074219 243.949219 291.640625 245.359375 292.96875 242.558594 L 288.882812 239.640625 C 288.769531 239.441406 287.421875 234.3125 287.097656 233.199219 C 283.417969 236.210938 286.53125 233.253906 284.632812 236.519531 C 284.453125 236.832031 283.980469 237.808594 283.832031 238.117188 L 281.660156 246.574219 C 281.636719 246.664062 281.53125 246.980469 281.507812 247.066406 L 278.964844 255.066406 L 282.632812 259.894531 L 279.984375 260.800781 C 279.867188 260.898438 279.585938 261.191406 279.472656 261.308594 C 279.351562 261.4375 278.269531 263.027344 278.058594 263.390625 C 274.445312 261.273438 275.652344 261.613281 272.019531 261.824219 C 275.429688 270.648438 275.613281 264.4375 279.09375 271.328125 L 272.722656 271.382812 C 273.878906 275.566406 273.914062 274.054688 275.855469 278.085938 C 267.65625 277.214844 274.097656 277.894531 268.214844 282.167969 C 269.714844 277.429688 271.234375 278.332031 268.953125 274.691406 C 268.910156 274.621094 268.761719 274.316406 268.710938 274.253906 L 263.773438 273.253906 L 268.648438 268.773438 C 267.46875 268.183594 268.140625 268.074219 265.628906 267.882812 C 262.851562 267.667969 264.5 267.71875 262.234375 268.335938 C 264.589844 258 258.582031 265.515625 263.957031 259.535156 C 264.089844 259.390625 264.472656 259.089844 264.675781 258.820312 L 259.933594 256.316406 C 262.386719 254.050781 260.136719 253.167969 259.171875 250.628906 C 257.253906 245.574219 259.527344 246.527344 258.082031 241.03125 C 252.015625 243.878906 252.917969 253.484375 253.105469 256.316406 C 252.828125 256.480469 252.347656 256.304688 252.207031 256.679688 C 251.632812 258.238281 249.75 257.042969 247.207031 258.539062 C 250.191406 262.257812 249.894531 260.304688 251.8125 265.015625 L 244.132812 263.3125 C 245.550781 266.019531 247.550781 271.382812 247.992188 274.84375 C 246.273438 274.191406 247.066406 273.945312 245.269531 274.046875 C 241.132812 274.28125 244.449219 272.929688 241.835938 275.335938 C 245.992188 278.464844 244.375 276.191406 245.558594 280.085938 L 241.828125 283.847656 L 237.085938 266.371094 C 236.753906 269.703125 235.339844 274.515625 234.402344 276.746094 C 231.753906 283.035156 231.851562 276.785156 232.167969 286.417969 C 229.683594 283.863281 230.648438 282.902344 229.878906 279.152344 L 224.492188 266.183594 L 219.46875 277.617188 C 219.027344 282.234375 219.226562 278.070312 220.269531 282.039062 C 213.796875 282.238281 218.609375 282.558594 216.664062 281.273438 C 216.523438 281.183594 216.207031 280.945312 216.089844 280.828125 L 215.292969 278.933594 C 215.238281 278.773438 215.222656 278.382812 215.167969 278.21875 L 212.207031 273.308594 C 212.113281 273.09375 211.972656 272.730469 211.902344 272.515625 L 206.039062 259.414062 C 204.019531 263.21875 201.757812 266.484375 203.90625 270.902344 L 199.929688 269.894531 C 199.832031 269.90625 199.496094 269.976562 199.300781 270.078125 C 201.453125 274.277344 201.292969 277.109375 198.882812 280.863281 C 198.113281 278.089844 199.585938 277.605469 198.273438 274.9375 C 195.882812 270.078125 197.976562 278.023438 196.117188 268.832031 L 194.070312 265.582031 C 191.0625 263.191406 192.40625 264.722656 192.132812 261.046875 L 191.429688 256.914062 C 191.371094 256.8125 191.152344 256.535156 191.082031 256.425781 C 186.445312 249.703125 188.929688 245.867188 184.898438 238.347656 C 183.601562 234.414062 184.195312 239.324219 183.375 241.242188 C 182.128906 244.160156 183.375 239.890625 182.34375 243.703125 C 182.308594 243.84375 182.238281 244.207031 182.199219 244.363281 L 181.695312 246.796875 C 181.640625 247.0625 181.550781 247.4375 181.492188 247.710938 C 178.277344 263.015625 179.472656 257.855469 180.96875 264.339844 C 180.546875 264.378906 178.253906 264.589844 178.027344 264.5625 C 175.671875 264.269531 176.628906 264.355469 175.484375 263.820312 C 176.75 258.332031 178.332031 258.796875 177.214844 253.894531 L 176.273438 252.035156 C 176.21875 251.914062 175.972656 251.617188 175.921875 251.5 C 175.875 251.390625 175.695312 251.082031 175.65625 250.976562 L 175.097656 246.316406 C 174.324219 241.40625 176.136719 243.050781 171.945312 240.058594 L 171.460938 231.789062 L 167.339844 244.949219 C 167.265625 245.289062 167.171875 245.628906 167.097656 245.949219 L 164.445312 256.042969 C 160.757812 262.75 166.636719 261.035156 160.394531 266.496094 L 164.734375 271.117188 L 160.53125 272.324219 C 160.382812 272.351562 159.941406 272.429688 159.824219 272.453125 C 159.707031 272.476562 159.335938 272.476562 159.125 272.578125 C 160.554688 275.398438 161.257812 279.757812 161.214844 283.402344 C 158.5625 281.933594 158.390625 280.136719 157.585938 277.328125 L 156.71875 273.972656 C 156.734375 273.804688 156.769531 273.445312 156.808594 273.265625 L 158.539062 269.640625 C 158.351562 269.667969 154.964844 270.257812 154.914062 270.265625 C 152.625 270.414062 154.761719 270.730469 153.335938 270.078125 C 155.75 266.191406 154.914062 269.144531 156 263.820312 C 148.335938 259.308594 154.101562 261.785156 149.21875 253.792969 C 148.824219 254.214844 148.554688 254.445312 147.679688 255.984375 C 147.125 256.953125 146.917969 257.351562 146.390625 258.542969 L 144.902344 270.753906 C 144.933594 271.007812 145.8125 272.757812 145.980469 273.101562 C 143.597656 272.183594 144.894531 272.582031 141.242188 272.027344 C 142.789062 276.398438 143.742188 275.898438 140.230469 278.835938 C 142.535156 281.609375 143.363281 285.546875 140.484375 288.820312 C 138.402344 291.1875 143.472656 290.722656 136.714844 290.601562 C 135.78125 286.972656 138.148438 288.167969 135.425781 281.679688 L 132.792969 272.96875 C 132.449219 273.53125 131.675781 275.066406 131.5625 275.238281 L 130.636719 276.582031 C 127.75 281.132812 129.785156 275.742188 128.734375 283.03125 C 128.1875 286.816406 130.304688 292.363281 125.398438 293.425781 C 124.421875 291.164062 124.390625 291.984375 126.628906 288.949219 L 121.320312 285.847656 C 123.738281 283.367188 122.484375 283.257812 124.515625 279.574219 C 122.460938 278.738281 120.550781 278.664062 118.65625 277.582031 C 120.550781 274.261719 118.875 269.234375 116.609375 266.070312 C 112.023438 284.023438 112.003906 265.324219 112.457031 284.761719 C 112.582031 290.234375 111.792969 287.542969 111.347656 288.746094 C 111.292969 288.890625 111.136719 289.21875 111.089844 289.371094 L 109.28125 297.488281 L 104.816406 280.503906 C 103.601562 287.910156 99.917969 290.46875 102.363281 297.160156 L 100.847656 296.703125 C 95.253906 294.175781 98.523438 290.429688 95.753906 284.460938 C 94.796875 282.398438 95.414062 283.4375 94.183594 282.195312 C 94.003906 282.488281 93.734375 282.589844 93.65625 283.082031 C 93.222656 285.855469 91.683594 287.007812 91.773438 290.199219 C 91.859375 293.253906 90.515625 295.753906 88.421875 298.019531 L 85.71875 293.84375 L 88.9375 290.304688 C 79.125 284.144531 94.449219 290.382812 83.519531 283.835938 L 86.242188 280.183594 L 81.71875 277.714844 L 84.855469 273.859375 C 80.945312 271.609375 81.402344 276.929688 80.394531 265.34375 C 80.394531 265.332031 79.757812 261.59375 79.671875 260.769531 C 78.855469 264.886719 76.71875 264.558594 76.144531 269.09375 C 75.539062 273.867188 73.066406 274.847656 76.320312 280.09375 C 72.730469 278.738281 75.058594 278.914062 70.515625 278.988281 C 72.023438 282.277344 71.324219 281.300781 73.644531 283.835938 L 70.046875 289.570312 C 69.902344 290.121094 69.554688 291.5 69.289062 292.46875 C 68.605469 294.949219 68.734375 295.375 67.703125 297.316406 C 64.628906 295.640625 64.84375 287.324219 63.671875 283.550781 C 63.621094 283.398438 63.5 283.054688 63.453125 282.902344 C 63.40625 282.746094 63.28125 282.394531 63.234375 282.234375 C 63.183594 282.070312 63.074219 281.707031 63.027344 281.539062 C 62.292969 279.015625 62.839844 277.40625 60.410156 276.226562 C 56.6875 281.957031 57.976562 287.523438 57.667969 288.714844 C 57.105469 290.894531 55.296875 291.921875 53.761719 289.410156 C 52.644531 287.589844 53.792969 285 52.90625 283.230469 C 48.417969 285.070312 49.28125 285.695312 45.738281 287.433594 L 53.828125 277.992188 C 48.988281 275.484375 51.992188 277.386719 45.46875 277.519531 C 47.460938 273.375 44.84375 275.9375 49.253906 273.914062 L 43.691406 270.582031 L 49.179688 265.800781 L 40.585938 266.996094 C 41.847656 263.351562 40.578125 267.332031 42.15625 264.136719 L 44.960938 255.992188 L 39.871094 255.621094 C 41.085938 253.417969 42.183594 252.414062 41.664062 250.546875 C 41.625 250.390625 41.390625 250.085938 41.320312 249.933594 L 37.230469 240.464844 L 32.441406 252.203125 C 30.347656 252.847656 32.921875 251.582031 31.011719 252.566406 C 33.71875 255.523438 32.824219 254.140625 34.351562 257.570312 C 34.125 257.714844 33.691406 257.539062 33.589844 257.839844 C 32.027344 262.414062 33.253906 257.078125 29.039062 258.816406 C 32.515625 261.945312 31.4375 264.3125 29.492188 267.691406 L 28.878906 268.808594 C 28.539062 270.769531 29.40625 270.757812 30.757812 273.960938 C 26.953125 272.308594 27.339844 271.363281 25.21875 272.792969 L 30.367188 281.335938 L 25.714844 280.066406 C 26.09375 283.347656 27.207031 287.09375 25.351562 290.058594 C 22.550781 285.335938 23.347656 290.3125 23.335938 284.558594 C 23.328125 283.410156 24.089844 280.375 23.492188 278.761719 C 22.886719 277.128906 19.585938 275.421875 18.046875 271.332031 C 17.53125 269.960938 17.714844 269.339844 17.109375 267.894531 C 16.464844 269.824219 16.242188 270.945312 15.628906 272.730469 L 14.550781 275.523438 C 14.398438 275.90625 13.929688 277 13.773438 277.378906 C 11.839844 282.152344 13.527344 281.667969 9.597656 282.585938 C 10.792969 286.519531 12.035156 289.0625 7.824219 289.804688 L 4.609375 290.09375 C 8.726562 293.933594 9.722656 295.546875 10.347656 301.0625 C 6.234375 300.160156 7.488281 299.539062 4.0625 301.1875 C 19.472656 311.761719 22.929688 308.464844 49.152344 308.464844 C 106.941406 308.464844 414.347656 309.679688 419.40625 308.386719 C 423.421875 306.183594 418.789062 308.238281 423.28125 305.214844 C 425.757812 303.546875 426.691406 303.09375 429.136719 302.015625 L 423.644531 300.496094 C 423.382812 300.410156 422.921875 300.269531 422.585938 300.097656 L 434.996094 288.210938 L 427.113281 287.511719 C 430.4375 285.214844 431.238281 286.121094 432.796875 282.804688 L 423.660156 282.070312 C 425.359375 280.433594 426.824219 278.585938 428.472656 276.746094 C 426.015625 274.804688 428.449219 275.917969 424.941406 275.484375 C 424.621094 275.445312 421.5625 275.742188 420.167969 275.648438 C 420.300781 272.636719 422.347656 270.898438 423.6875 269.359375 L 416.507812 255.320312 C 415.492188 258.957031 414.832031 259.789062 413.730469 263.09375 C 412.117188 267.929688 412.714844 265.898438 414.695312 270.078125 L 409.738281 272.929688 L 410.972656 279.441406 C 402.25 282.230469 408.28125 278.832031 407.132812 277.75 L 401.953125 276.332031 C 403.375 274.074219 403.527344 272.566406 406.289062 270.78125 L 400.96875 271.121094 C 408.828125 264.753906 393.097656 268.671875 400.445312 258.820312 C 396.851562 257.742188 396.246094 255.292969 394.628906 252.019531 C 394.511719 251.785156 394.339844 251.351562 394.125 251.0625 L 391.914062 261.152344 C 391.917969 261.378906 392.039062 262.050781 392.03125 262.289062 C 391.871094 267.429688 389.015625 265.316406 389.445312 275.445312 L 388.445312 280.886719 C 388.066406 280.71875 387.164062 280.015625 386.988281 279.839844 L 379.332031 264.773438 C 377.207031 269.511719 375.949219 272.121094 376.863281 277.425781 C 373.402344 276.945312 372.066406 276.183594 368.175781 277.652344 C 371.742188 268.25 369.070312 271.175781 369.144531 265.554688 C 369.203125 260.964844 369.183594 266.226562 370.492188 261.753906 C 370.113281 261.726562 366.972656 261.566406 366.886719 261.542969 C 362.902344 260.507812 365.625 262.1875 363.066406 259.699219 C 369.6875 253.976562 364.476562 253.847656 364.152344 247.804688 C 363.972656 244.507812 362.933594 245.015625 361.71875 241.453125 L 361.332031 240.144531 C 360.222656 235.914062 360.902344 234.765625 358.25 231.183594 L 357.195312 242.949219 C 354.9375 250.828125 357.078125 245.640625 358.582031 251.824219 C 354.539062 251.871094 356.800781 250.867188 352.035156 248.792969 C 352.664062 252.847656 352.886719 251.570312 353.953125 255.410156 L 356.433594 262.167969 C 353.335938 261.203125 356.007812 261.460938 353.351562 261.109375 L 350.152344 261.320312 C 350.847656 263.25 351.191406 264.558594 351.890625 266.28125 C 353.417969 270.058594 352.785156 267.625 354.285156 271.164062 L 348.289062 267.304688 C 347.714844 269.976562 349.335938 272.941406 348.109375 274.734375 L 344.109375 265.4375 C 344.042969 265.082031 343.988281 264.753906 343.933594 264.390625 C 343.472656 261.4375 343.460938 263.628906 343.539062 259.882812 C 341.449219 262.042969 339.996094 267.234375 339.148438 271.015625 L 337.523438 276.753906 C 334.59375 272.753906 335.65625 273.890625 330.285156 274.40625 C 330.503906 274.128906 330.90625 273.4375 331.035156 273.648438 L 335.1875 268.378906 L 326.257812 269.382812 C 327.277344 266.265625 331.679688 265.136719 334.398438 263.636719 C 334.121094 263.496094 333.652344 263.066406 333.511719 263.339844 C 333.367188 263.609375 332.808594 263.113281 332.613281 263.054688 L 325.734375 260.070312 C 328.507812 256.554688 328.199219 258.707031 331.023438 253.792969 C 326.78125 252.925781 328.257812 253.121094 324.0625 254.136719 C 326.160156 249.226562 326.425781 251.941406 327.097656 248.34375 L 321.335938 227.933594 C 319.890625 233.867188 319.402344 237.023438 320.4375 242.257812 Z M 320.4375 242.257812 " fill-opacity="1" fill-rule="evenodd"/></g></g><g clip-path="url(#07c4cce56d)"><g clip-path="url(#8a37205459)"><path fill="#000000" d="M 20.011719 300.890625 L 428.742188 300.890625 L 428.742188 450.25 L 20.011719 450.25 Z M 20.011719 300.890625 " fill-opacity="1" fill-rule="evenodd"/></g></g></svg>