<svg xmlns="http://www.w3.org/2000/svg" xmlns:xlink="http://www.w3.org/1999/xlink" width="500" zoomAndPan="magnify" viewBox="0 0 375 374.999991" height="500" preserveAspectRatio="xMidYMid meet" version="1.0"><defs><clipPath id="cc240b50cf"><path d="M 9 10 L 365.9375 10 L 365.9375 367.5 L 9 367.5 Z M 9 10 " clip-rule="nonzero"/></clipPath></defs><path fill="#ffa600" d="M 167.949219 233.539062 C 167.664062 226.820312 167.949219 216.453125 168.59375 204.730469 C 165.875 204.945312 162.65625 205.230469 158.363281 205.230469 C 150.640625 205.230469 115.160156 205.375 115.160156 205.375 C 115.160156 205.375 143.199219 203.230469 155.214844 202.515625 C 163.800781 202.015625 163.871094 201.871094 168.804688 201.011719 C 169.59375 187.359375 170.738281 172.132812 171.8125 158.550781 C 162.082031 154.476562 151.425781 152.261719 140.265625 152.261719 C 119.8125 152.261719 101.070312 159.765625 86.765625 172.207031 L 88.265625 172.347656 C 96.492188 172.921875 97.136719 170.988281 106.648438 171.847656 C 116.089844 172.707031 115.589844 172.207031 122.816406 173.777344 C 130.039062 175.351562 124.960938 174.636719 132.113281 175.492188 C 139.265625 176.351562 155.933594 177.066406 155.933594 177.066406 C 155.933594 177.066406 139.265625 177.210938 136.117188 177.566406 C 132.972656 177.925781 131.542969 177.925781 126.105469 177.925781 C 120.667969 177.925781 120.167969 178.566406 112.230469 177.78125 C 104.289062 177.066406 103.289062 176.921875 97.136719 177.421875 C 90.984375 177.925781 94.992188 177.925781 83.976562 178.28125 C 82.6875 178.351562 81.472656 178.351562 80.398438 178.425781 C 67.8125 191.933594 59.726562 209.804688 58.65625 229.464844 C 60.515625 229.535156 62.589844 229.679688 64.878906 229.894531 C 74.675781 230.964844 77.679688 229.035156 85.980469 230.964844 C 94.277344 232.894531 94.277344 232.539062 105.933594 232.539062 C 117.59375 232.539062 118.378906 230.75 126.964844 231.964844 C 135.546875 233.179688 132.757812 232.324219 140.984375 233.683594 C 149.207031 235.039062 161.511719 235.039062 161.511719 235.039062 C 161.511719 235.039062 146.277344 236.253906 139.625 236.113281 C 132.972656 235.96875 128.25 234.683594 123.53125 235.113281 C 118.808594 235.613281 118.238281 235.253906 111.085938 236.183594 C 103.933594 237.183594 105.648438 237.613281 98.425781 237.613281 C 91.199219 237.613281 89.484375 236.898438 83.117188 236.683594 C 76.75 236.46875 78.183594 236.46875 72.816406 236.46875 C 70.171875 236.46875 64.019531 236.46875 58.511719 236.542969 C 58.511719 236.898438 58.511719 237.183594 58.511719 237.542969 C 59.585938 239.1875 60.65625 240.757812 61.800781 242.402344 C 98.925781 294.800781 142.269531 295.15625 166.160156 287.652344 C 166.660156 280.933594 167.089844 273.070312 167.519531 265.0625 C 167.304688 265.0625 167.019531 265.0625 166.804688 265.0625 C 161.367188 265.0625 159.9375 265.0625 156.789062 264.707031 C 153.644531 264.347656 136.976562 264.207031 136.976562 264.207031 C 136.976562 264.207031 153.644531 263.492188 160.796875 262.632812 C 166.945312 261.917969 164.015625 262.347656 167.734375 261.488281 C 168.089844 251.265625 168.304688 241.332031 167.949219 233.539062 Z M 183.039062 264.632812 C 183.253906 267.492188 183.46875 270.210938 183.613281 272.785156 C 183.683594 274.570312 183.753906 276.285156 183.898438 277.859375 C 194.199219 268.78125 202.851562 272.640625 199.707031 283.003906 C 196.558594 293.226562 186.042969 297.875 184.828125 298.304688 C 187.476562 297.875 190.050781 297.445312 192.480469 296.945312 C 202.566406 288.582031 210.648438 277.789062 215.800781 265.5625 C 214.082031 265.492188 211.867188 265.421875 209.003906 265.277344 C 197.988281 264.921875 201.996094 264.921875 195.84375 264.417969 C 190.265625 264.0625 188.90625 264.0625 183.039062 264.632812 Z M 178.820312 204.585938 C 178.890625 223.101562 181.109375 242.902344 182.539062 259.203125 C 183.542969 259.128906 184.757812 259.058594 186.1875 258.914062 C 195.628906 258.058594 196.34375 259.988281 204.570312 259.414062 C 212.796875 258.84375 212.152344 258.84375 216.65625 258.058594 C 217.300781 257.984375 217.875 257.84375 218.589844 257.773438 C 220.878906 250.265625 222.09375 242.261719 222.09375 233.96875 C 222.09375 223.53125 220.164062 213.523438 216.515625 204.300781 C 211.222656 204.375 205 204.445312 200.0625 204.445312 C 191.265625 204.445312 193.269531 205.445312 189.191406 204.945312 C 186.472656 204.660156 182.398438 204.585938 178.820312 204.585938 Z M 179.179688 191.078125 C 178.964844 193.792969 178.890625 196.652344 178.820312 199.441406 C 194.199219 197.367188 189.261719 197.796875 195.484375 197.082031 C 199.132812 196.652344 207.214844 197.296875 213.726562 198.011719 C 206.429688 183.214844 194.769531 170.847656 180.464844 162.769531 C 180.179688 172.492188 179.75 182.5 179.179688 191.078125 Z M 179.179688 191.078125 " fill-opacity="1" fill-rule="evenodd"/><path fill="#1463a3" d="M 166.875 310.457031 C 166.875 310.457031 171.238281 262.203125 170.164062 237.183594 C 169.09375 212.164062 176.316406 137.390625 177.03125 124.667969 C 177.746094 111.945312 183.183594 114.160156 183.183594 114.160156 L 183.542969 125.382812 C 183.542969 125.382812 183.183594 167.488281 181.394531 194.722656 C 179.605469 221.957031 184.6875 254.984375 185.757812 276.359375 C 186.832031 297.804688 187.1875 309.382812 187.1875 309.382812 C 187.1875 309.382812 174.816406 315.53125 166.875 310.457031 Z M 166.875 310.457031 " fill-opacity="1" fill-rule="evenodd"/><path fill="#1463a3" d="M 179.679688 115.875 C 179.679688 115.875 224.238281 0 293.40625 59.046875 C 293.40625 59.046875 266.582031 32.523438 234.324219 48.25 C 202.066406 63.976562 180.324219 118.878906 180.324219 118.878906 Z M 179.679688 115.875 " fill-opacity="1" fill-rule="evenodd"/><path fill="#1463a3" d="M 177.820312 118.808594 C 177.820312 118.808594 252.921875 37.957031 304.492188 122.953125 C 304.492188 122.953125 260.863281 40.960938 178.964844 120.664062 L 178.175781 119.59375 Z M 177.820312 118.808594 " fill-opacity="1" fill-rule="evenodd"/><path fill="#1463a3" d="M 180.964844 121.738281 C 180.964844 121.738281 150.925781 55.328125 92.128906 87.925781 C 111.65625 75.558594 151.355469 64.191406 182.683594 120.449219 L 182.253906 121.164062 Z M 180.964844 121.738281 " fill-opacity="1" fill-rule="evenodd"/><path fill="#1463a3" d="M 181.46875 118.304688 C 181.46875 118.304688 131.613281 74.414062 86.835938 159.125 C 86.835938 159.125 125.390625 80.847656 179.964844 119.734375 L 181.253906 119.308594 Z M 181.46875 118.304688 " fill-opacity="1" fill-rule="evenodd"/><path fill="#1463a3" d="M 137.476562 36.601562 C 137.476562 36.601562 172.597656 43.175781 178.964844 120.738281 L 181.609375 120.378906 C 181.609375 120.378906 178.175781 49.539062 137.476562 36.601562 Z M 137.476562 36.601562 " fill-opacity="1" fill-rule="evenodd"/><path fill="#1463a3" d="M 178.964844 120.738281 C 178.964844 120.738281 238.902344 96.574219 268.871094 167.203125 C 268.871094 167.203125 248.058594 97.148438 177.820312 118.808594 L 178.175781 119.664062 Z M 178.964844 120.738281 " fill-opacity="1" fill-rule="evenodd"/><path fill="#1463a3" d="M 180.964844 112.800781 C 180.964844 112.800781 185.902344 101.652344 204.140625 94.574219 L 202.496094 93.574219 L 197.558594 94.714844 C 197.558594 94.714844 204.140625 90.855469 210.21875 89.925781 L 211.078125 88.28125 C 211.078125 88.28125 203.28125 89.070312 195.699219 93.074219 C 195.699219 93.074219 206.789062 84.496094 215.371094 81.636719 L 216.730469 79.5625 C 216.730469 79.5625 203.855469 84.496094 199.777344 86.640625 C 199.777344 86.640625 207.71875 78.777344 220.449219 76.128906 L 222.378906 74.273438 C 222.378906 74.273438 214.15625 74.488281 206.070312 78.132812 C 206.070312 78.132812 217.589844 69.410156 228.53125 72.769531 L 233.679688 71.769531 C 233.679688 71.769531 226.457031 67.550781 212.4375 71.414062 C 212.4375 71.414062 226.386719 62.335938 241.976562 67.050781 L 246.128906 66.910156 C 246.128906 66.910156 235.039062 59.402344 218.945312 64.90625 C 218.945312 64.90625 236.898438 55.972656 249.847656 62.761719 L 252.921875 62.335938 C 252.921875 62.335938 241.550781 54.757812 225.957031 59.476562 C 225.957031 59.476562 246.554688 49.324219 259.214844 58.402344 L 263.078125 58.472656 C 263.078125 58.472656 249.917969 48.609375 234.324219 53.113281 C 234.324219 53.113281 252.421875 43.960938 267.085938 57.972656 L 270.230469 57.972656 C 270.230469 57.972656 266.726562 51.398438 257.5 48.464844 C 257.5 48.464844 268.300781 47.824219 275.308594 59.902344 L 278.386719 61.476562 C 278.386719 61.476562 277.886719 54.613281 269.730469 50.109375 C 269.730469 50.109375 275.453125 50.539062 282.820312 59.761719 L 285.609375 60.261719 C 285.609375 60.261719 284.324219 56.402344 280.53125 53.613281 C 280.53125 53.613281 286.46875 56.6875 288.972656 59.902344 L 293.476562 60.761719 L 287.613281 54.472656 L 294.765625 60.046875 L 293.691406 57.472656 L 280.675781 49.96875 L 289.257812 51.683594 L 288.113281 49.824219 C 288.113281 49.824219 281.53125 47.394531 276.238281 46.679688 L 282.460938 46.535156 L 281.746094 45.179688 C 281.746094 45.179688 272.59375 42.246094 263.722656 42.320312 C 263.722656 42.320312 268.371094 41.53125 273.734375 42.320312 L 273.019531 41.03125 C 273.019531 41.03125 264.652344 39.246094 250.992188 41.390625 C 250.992188 41.390625 254.851562 40.03125 260.933594 39.316406 L 256.570312 38.386719 C 256.570312 38.386719 253.28125 38.386719 242.050781 43.105469 L 247.699219 39.460938 L 241.335938 40.890625 C 241.335938 40.890625 235.753906 43.246094 228.601562 48.894531 C 228.601562 48.894531 231.964844 44.75 234.96875 42.605469 C 234.96875 42.605469 229.03125 44.035156 228.601562 44.464844 C 228.171875 44.890625 218.945312 55.113281 218.945312 55.113281 L 221.949219 49.394531 C 221.949219 49.394531 217.875 51.039062 217.660156 51.539062 C 217.445312 52.039062 212.222656 61.621094 212.222656 61.621094 L 214.15625 55.042969 C 214.15625 55.042969 211.222656 55.902344 210.792969 56.402344 C 210.363281 56.972656 206.285156 67.839844 206.285156 67.839844 L 208.289062 55.902344 L 203.710938 59.402344 L 199.777344 77.273438 L 201.136719 60.691406 L 197.417969 63.621094 L 192.910156 84.566406 L 192.054688 76.632812 L 189.261719 80.777344 L 188.117188 93.429688 L 186.972656 88.710938 L 184.898438 91.785156 L 179.464844 108.800781 Z M 180.964844 112.800781 " fill-opacity="1" fill-rule="evenodd"/><path fill="#1463a3" d="M 180.679688 117.949219 C 180.679688 117.949219 175.746094 102.792969 159.652344 89.140625 L 159.152344 90.640625 L 163.871094 98.863281 C 163.871094 98.863281 154.429688 83.707031 151.496094 81.847656 L 148.566406 81.347656 L 152.570312 87.425781 C 152.570312 87.425781 143.699219 76.558594 132.472656 73.058594 L 133.328125 75.203125 L 139.839844 80.847656 C 139.839844 80.847656 126.675781 71.054688 117.378906 69.195312 L 118.953125 71.554688 L 126.175781 76.34375 C 126.175781 76.34375 119.023438 72.054688 110.441406 71.199219 L 111.511719 72.628906 L 118.238281 75.703125 C 118.238281 75.703125 110.582031 73.773438 101.140625 74.699219 L 102.929688 75.917969 L 112.230469 76.703125 C 112.230469 76.703125 99.996094 76.773438 94.0625 78.417969 L 94.917969 78.917969 L 97.351562 78.988281 L 83.832031 81.992188 L 84.546875 83.277344 L 73.03125 87.566406 L 73.390625 88.925781 L 80.113281 85.996094 L 77.179688 88.785156 L 79.183594 88.855469 L 90.984375 83.066406 L 83.476562 87.996094 L 85.261719 88.570312 C 85.261719 88.570312 93.988281 81.777344 104.003906 81.132812 C 104.003906 81.132812 97.996094 82.277344 92.703125 86.78125 L 96.636719 86.996094 C 96.636719 86.996094 106.007812 80.492188 120.023438 80.632812 C 120.023438 80.632812 111.871094 81.421875 103.933594 85.496094 L 107.007812 85.851562 C 107.007812 85.851562 122.742188 81.636719 130.609375 83.351562 C 130.609375 83.351562 120.667969 83.421875 115.375 85.851562 L 118.738281 86.851562 C 118.738281 86.851562 128.464844 83.636719 140.839844 87.28125 C 140.839844 87.28125 131.542969 86.425781 125.605469 87.355469 L 128.535156 89.425781 C 128.535156 89.425781 138.980469 87.996094 152.355469 93.789062 C 152.355469 93.789062 142.628906 91.070312 135.261719 91.140625 L 140.195312 94.289062 C 140.195312 94.289062 151.855469 93.859375 160.367188 99.792969 C 160.367188 99.792969 152.925781 96.289062 146.847656 96.574219 C 146.847656 96.574219 149.421875 98.933594 149.921875 99.363281 C 150.425781 99.792969 162.796875 101.652344 166.804688 106.082031 C 166.804688 106.082031 159.792969 103.582031 155.574219 103.582031 C 155.574219 103.582031 159.578125 106.296875 160.152344 106.726562 C 160.722656 107.15625 171.8125 109.085938 177.03125 116.589844 L 178.460938 117.734375 L 180.394531 118.378906 Z M 180.679688 117.949219 " fill-opacity="1" fill-rule="evenodd"/><path fill="#1463a3" d="M 179.179688 114.375 C 179.179688 114.375 182.039062 78.5625 180.25 75.917969 L 178.890625 74.699219 C 178.890625 74.699219 179.035156 85.996094 178.25 90.929688 L 176.890625 64.980469 L 175.03125 63.621094 C 175.03125 63.621094 175.457031 71.839844 174.171875 78.132812 C 174.171875 78.132812 174.386719 60.90625 172.8125 56.1875 L 170.953125 55.828125 C 170.953125 55.828125 172.3125 61.40625 171.238281 68.480469 C 171.238281 68.480469 170.308594 57.1875 163.011719 47.609375 L 161.082031 46.535156 C 161.082031 46.535156 164.371094 51.96875 165.945312 59.046875 C 165.945312 59.046875 160.507812 47.25 155.074219 40.890625 L 153.644531 40.53125 L 155.359375 46.25 L 144.988281 36.957031 L 144.273438 37.816406 L 145.058594 39.171875 C 145.058594 39.171875 138.191406 35.382812 137.835938 35.382812 C 137.40625 35.382812 135.402344 36.386719 135.402344 36.386719 C 135.402344 36.386719 142.128906 39.101562 146.777344 42.03125 C 146.777344 42.03125 139.765625 40.175781 140.554688 40.386719 C 141.410156 40.601562 144.84375 43.675781 145.558594 44.175781 C 146.277344 44.675781 152.070312 46.609375 157.078125 52.113281 C 157.078125 52.113281 151.710938 48.894531 145.988281 47.679688 L 143.628906 48.324219 C 143.628906 48.324219 152.285156 50.394531 160.292969 59.332031 C 160.292969 59.332031 155.503906 54.542969 145.847656 52.398438 L 146.5625 55.972656 C 146.5625 55.972656 158.722656 58.332031 165.375 67.910156 C 165.375 67.910156 158.363281 61.621094 148.492188 59.902344 L 148.566406 62.691406 C 148.566406 62.691406 163.085938 66.910156 169.878906 77.132812 C 169.878906 77.132812 161.726562 69.339844 152.425781 67.765625 C 152.425781 67.765625 155.503906 71.554688 156.074219 72.199219 C 156.648438 72.914062 168.519531 77.203125 171.738281 82.777344 C 171.738281 82.777344 162.941406 77.488281 159.007812 76.417969 L 160.507812 79.992188 C 160.507812 79.992188 169.949219 83.277344 173.597656 89.855469 C 173.597656 89.855469 166.304688 84.351562 163.011719 83.351562 C 163.011719 83.351562 164.871094 87.140625 165.375 87.710938 C 165.875 88.355469 171.238281 90.070312 174.886719 96.433594 C 174.886719 96.433594 170.453125 92.714844 167.375 91.570312 C 167.375 91.570312 169.738281 95.71875 170.667969 96.933594 C 171.597656 98.21875 176.175781 103.007812 177.03125 112.515625 L 178.175781 112.875 Z M 179.179688 114.375 " fill-opacity="1" fill-rule="evenodd"/><path fill="#1463a3" d="M 181.824219 118.019531 C 181.824219 118.019531 188.546875 111.230469 202.996094 112.300781 L 206.929688 111.730469 C 206.929688 111.730469 202.351562 108.871094 192.625 110.871094 C 192.625 110.871094 200.0625 105.726562 214.441406 109.871094 L 218.375 109.65625 C 218.375 109.65625 211.578125 104.222656 199.707031 106.441406 C 199.707031 106.441406 213.367188 101.507812 227.601562 107.65625 L 231.464844 106.582031 C 231.464844 106.582031 224.167969 99.363281 204.210938 103.082031 C 204.210938 103.082031 219.449219 95.859375 236.613281 104.652344 L 241.976562 104.652344 C 241.976562 104.652344 232.394531 93.929688 212.292969 98.503906 C 212.292969 98.503906 230.320312 91.5 243.050781 100.648438 L 249.917969 101.4375 C 249.917969 101.4375 240.761719 90.785156 222.164062 94.503906 C 222.164062 94.503906 245.769531 87.78125 257.570312 102.222656 L 264.367188 103.367188 C 264.367188 103.367188 258.070312 92.144531 243.050781 90.5 C 243.050781 90.5 263.652344 89.710938 270.015625 105.367188 L 273.738281 107.082031 C 273.738281 107.082031 275.238281 98.71875 262.722656 92.285156 C 262.722656 92.285156 276.382812 95.859375 279.457031 109.726562 L 283.179688 112.515625 C 283.179688 112.515625 284.25 107.65625 278.027344 99.148438 C 278.027344 99.148438 285.824219 104.582031 289.042969 115.445312 L 294.050781 119.523438 C 294.050781 119.523438 293.40625 113.730469 287.542969 105.226562 C 287.542969 105.226562 293.976562 109.65625 299.34375 121.878906 L 303.632812 123.953125 C 303.632812 123.953125 302.132812 118.59375 296.480469 110.945312 L 300.488281 113.089844 C 300.488281 113.089844 299.773438 109.726562 298.914062 108.726562 C 297.984375 107.65625 285.179688 99.433594 285.179688 99.433594 L 294.40625 101.292969 C 294.40625 101.292969 292.691406 97.363281 291.546875 96.933594 C 290.402344 96.433594 274.878906 90.640625 274.878906 90.640625 L 285.464844 92 C 285.464844 92 281.175781 88.996094 279.53125 87.996094 C 277.886719 86.996094 270.160156 83.851562 255.78125 83.566406 C 255.78125 83.566406 263.148438 82.277344 271.734375 83.492188 C 271.734375 83.492188 272.664062 80.707031 268.15625 80.0625 C 263.722656 79.417969 254.351562 79.632812 243.765625 82.851562 C 243.765625 82.851562 247.699219 80.632812 255.640625 78.847656 C 255.640625 78.847656 252.136719 77.203125 250.917969 77.417969 C 249.703125 77.632812 239.402344 80.347656 230.035156 84.566406 C 230.035156 84.566406 235.96875 80.707031 239.332031 79.347656 C 239.332031 79.347656 235.828125 78.847656 234.824219 79.0625 C 233.753906 79.277344 225.886719 83.066406 218.945312 88.785156 L 225.382812 82.207031 C 225.382812 82.207031 218.945312 84.28125 216.230469 86.066406 C 213.511719 87.78125 204.925781 96.074219 204.925781 96.074219 L 208.289062 91.285156 C 208.289062 91.285156 205.644531 91.644531 204.925781 92 C 204.210938 92.359375 195.484375 101.652344 195.484375 101.652344 L 198.488281 95.859375 C 198.488281 95.859375 193.410156 97.789062 192.984375 98.363281 C 192.195312 99.21875 180.75 115.875 180.75 115.875 Z M 181.824219 118.019531 " fill-opacity="1" fill-rule="evenodd"/><path fill="#1463a3" d="M 179.964844 119.734375 C 179.964844 119.734375 194.628906 118.59375 201.351562 124.382812 L 205.214844 124.238281 C 205.214844 124.238281 200.207031 119.308594 191.765625 118.949219 C 191.765625 118.949219 205.570312 118.019531 213.011719 126.097656 L 217.800781 127.027344 C 217.800781 127.027344 212.652344 121.878906 207.214844 119.308594 C 207.214844 119.308594 218.589844 121.453125 224.3125 131.460938 L 228.675781 133.246094 C 228.675781 133.246094 226.3125 125.597656 217.160156 121.238281 C 217.160156 121.238281 231.25 126.167969 234.753906 138.75 L 237.972656 141.753906 C 237.972656 141.753906 239.761719 138.105469 230.605469 127.027344 C 230.605469 127.027344 240.691406 131.386719 241.191406 146.542969 L 244.910156 150.546875 C 244.910156 150.546875 245.984375 142.253906 243.765625 136.105469 C 243.765625 136.105469 249.273438 146.613281 250.203125 153.832031 L 253.28125 154.976562 C 253.28125 154.976562 252.277344 145.328125 250.277344 142.253906 C 250.277344 142.253906 254.710938 148.542969 258.070312 158.550781 L 261.71875 160.839844 L 258.574219 151.617188 C 258.574219 151.617188 263.652344 160.480469 264.722656 166.199219 L 267.800781 168.632812 L 265.367188 161.839844 L 270.730469 171.5625 L 271.304688 167.628906 L 266.511719 157.980469 L 269.515625 159.410156 L 269.085938 156.691406 L 260.863281 147.472656 L 265.011719 149.832031 L 264.007812 146.472656 L 254.28125 138.75 L 259.71875 140.894531 C 259.71875 140.894531 259 138.035156 258.429688 137.679688 C 257.859375 137.320312 248.273438 131.816406 242.695312 129.027344 C 242.695312 129.027344 250.203125 131.101562 254.851562 132.890625 C 254.851562 132.890625 254.066406 130.171875 252.921875 129.386719 C 251.707031 128.601562 232.535156 121.953125 232.535156 121.953125 L 246.914062 124.667969 C 246.914062 124.667969 245.914062 121.238281 244.910156 120.738281 C 243.839844 120.238281 237.113281 118.59375 227.53125 117.378906 C 227.53125 117.378906 232.609375 116.804688 239.402344 117.878906 C 239.402344 117.878906 234.96875 113.660156 233.609375 113.589844 C 232.25 113.515625 225.671875 112.445312 214.726562 114.089844 C 214.726562 114.089844 219.734375 112.585938 224.957031 111.660156 C 224.957031 111.660156 221.949219 109.726562 220.449219 109.726562 C 218.945312 109.726562 204.855469 113.300781 204.855469 113.300781 L 212.507812 110.230469 C 212.507812 110.230469 210.648438 109.300781 208.933594 109.300781 C 207.289062 109.300781 196.917969 112.800781 196.917969 112.800781 L 201.351562 110.300781 C 201.351562 110.300781 199.347656 109.726562 197.773438 109.726562 C 196.273438 109.726562 179.894531 118.234375 179.894531 118.234375 Z M 179.964844 119.734375 " fill-opacity="1" fill-rule="evenodd"/><path fill="#1463a3" d="M 179.964844 119.734375 C 179.964844 119.734375 170.738281 115.160156 158.722656 117.378906 C 158.722656 117.378906 158.9375 116.019531 159.722656 115.734375 C 160.507812 115.445312 166.015625 114.375 170.308594 114.730469 C 170.308594 114.730469 159.652344 111.660156 147.421875 120.023438 C 147.421875 120.023438 145.558594 118.449219 145.773438 117.949219 C 145.988281 117.449219 150.351562 114.304688 156.289062 113.015625 C 156.289062 113.015625 145.703125 113.015625 136.976562 122.667969 C 136.976562 122.667969 135.691406 120.59375 136.117188 119.308594 C 136.546875 118.019531 141.839844 113.804688 150.28125 112.230469 C 150.28125 112.230469 131.253906 113.445312 129.109375 127.8125 C 129.109375 127.8125 127.394531 125.8125 127.75 124.382812 C 128.109375 123.023438 129.753906 116.664062 141.984375 112.445312 C 141.984375 112.445312 126.320312 114.660156 122.457031 130.886719 L 120.382812 126.8125 L 125.175781 118.164062 C 125.175781 118.164062 118.808594 124.667969 116.378906 136.035156 C 116.378906 136.035156 114.589844 133.675781 114.589844 132.460938 C 114.589844 131.246094 117.738281 123.667969 117.738281 123.667969 C 117.738281 123.667969 111.800781 133.101562 110.726562 141.609375 C 110.726562 141.609375 108.296875 138.320312 108.507812 137.25 C 108.722656 136.105469 110.511719 130.457031 110.511719 130.457031 C 110.511719 130.457031 104.933594 138.75 103.789062 146.972656 C 103.789062 146.972656 102.429688 145.757812 102.5 144.898438 C 102.644531 143.96875 104.074219 136.464844 104.074219 136.464844 C 104.074219 136.464844 100.285156 144.898438 99.210938 149.6875 L 97.851562 146.683594 L 98.066406 143.46875 C 98.066406 143.46875 95.347656 149.902344 93.988281 155.90625 C 93.988281 155.90625 92.628906 155.261719 92.628906 154.621094 C 92.628906 153.976562 93.417969 149.042969 93.417969 149.042969 L 86.265625 160.554688 C 86.265625 160.554688 86.835938 155.835938 87.625 153.117188 C 88.410156 150.402344 99.140625 139.035156 99.140625 139.035156 L 91.414062 143.324219 C 91.414062 143.324219 93.273438 138.25 94.0625 137.605469 C 94.847656 136.964844 104.359375 130.03125 104.359375 130.03125 L 97.996094 132.675781 C 97.996094 132.675781 101.429688 128.3125 101.929688 127.671875 C 102.429688 127.027344 112.15625 123.097656 112.15625 123.097656 L 105.792969 124.167969 C 105.792969 124.167969 107.007812 122.023438 108.582031 121.09375 C 110.15625 120.164062 121.097656 116.519531 121.097656 116.519531 L 114.519531 117.589844 C 114.519531 117.589844 119.238281 113.589844 120.097656 113.230469 C 120.957031 112.800781 133.402344 110.65625 133.402344 110.65625 L 125.316406 110.65625 C 125.316406 110.65625 127.679688 108.371094 133.542969 107.582031 C 139.410156 106.796875 145.058594 107.726562 145.058594 107.726562 L 139.695312 105.652344 C 139.695312 105.652344 143.914062 104.296875 145.417969 104.511719 C 146.847656 104.796875 153.285156 107.726562 153.285156 107.726562 L 152.140625 104.867188 L 156.863281 105.867188 L 161.4375 109.441406 L 161.226562 106.441406 C 161.226562 106.441406 165.445312 106.796875 166.304688 107.15625 C 167.160156 107.511719 179.964844 117.378906 179.964844 117.378906 Z M 179.964844 119.734375 " fill-opacity="1" fill-rule="evenodd"/><path fill="#0a91ff" d="M 327.882812 281.074219 C 327.882812 281.074219 349.125 249.335938 344.117188 229.820312 C 344.117188 229.820312 339.328125 222.746094 333.746094 229.179688 C 333.746094 229.179688 337.394531 209.589844 317.011719 208.089844 C 317.011719 208.089844 306.210938 206.875 301.847656 219.3125 C 301.847656 219.3125 301.417969 190.648438 278.601562 183.570312 C 255.78125 176.496094 239.976562 206.015625 257 208.519531 C 274.023438 211.019531 281.960938 235.539062 274.453125 261.273438 C 274.453125 261.273438 271.160156 250.480469 259.503906 254.199219 C 247.84375 257.914062 250.347656 292.371094 186.761719 301.949219 C 186.761719 301.949219 198.417969 297.375 201.707031 286.578125 C 205 275.785156 195.484375 272.070312 184.6875 282.648438 C 173.886719 293.226562 113.445312 315.675781 64.019531 245.90625 C 22.535156 187.359375 43.992188 116.234375 68.382812 82.136719 C 45.566406 110.230469 31.90625 146.042969 31.90625 185.074219 C 31.90625 275.355469 105.148438 348.558594 195.484375 348.558594 C 249.917969 348.558594 298.199219 321.964844 327.882812 281.074219 Z M 327.882812 281.074219 " fill-opacity="1" fill-rule="evenodd"/><path fill="#ffffff" d="M 321.015625 258.34375 C 329.671875 254.484375 330.3125 263.992188 329.527344 271.78125 C 329.742188 271.425781 329.886719 271.140625 330.097656 270.78125 C 333.390625 264.777344 336.464844 258.34375 338.609375 251.839844 C 340.683594 245.691406 342.472656 237.828125 341.042969 231.324219 C 340.613281 230.824219 339.96875 230.320312 339.46875 230.109375 C 338.183594 229.535156 337.179688 230.535156 336.394531 231.464844 L 328.097656 240.902344 L 330.386719 228.605469 C 330.816406 226.03125 330.527344 222.53125 329.742188 220.101562 C 327.738281 214.167969 322.730469 212.023438 316.796875 211.59375 L 316.652344 211.59375 C 315.222656 211.449219 313.363281 211.878906 312.074219 212.378906 C 308.5 213.878906 306.351562 216.953125 305.136719 220.527344 L 298.769531 238.757812 L 298.484375 219.457031 C 298.414062 215.023438 297.125 209.378906 295.625 205.300781 C 292.40625 196.582031 286.683594 189.789062 277.597656 186.929688 C 270.660156 184.785156 263.652344 186.429688 258.359375 191.363281 C 256.425781 193.222656 254.640625 195.582031 253.78125 198.152344 C 253.28125 199.65625 252.921875 201.65625 253.707031 203.085938 C 254.425781 204.445312 256.070312 204.945312 257.5 205.160156 C 259.859375 205.515625 262.148438 206.230469 264.292969 207.304688 C 272.59375 211.523438 277.242188 220.3125 279.316406 229.035156 C 281.820312 239.828125 280.890625 251.695312 277.8125 262.273438 L 274.59375 273.285156 C 273.449219 269.496094 271.660156 261.488281 269.015625 258.84375 C 266.65625 256.554688 263.652344 256.554688 260.648438 257.558594 C 258.5 258.273438 256.285156 261.988281 255.210938 263.777344 C 252.0625 268.921875 249.273438 273.570312 245.339844 278.214844 C 227.671875 298.945312 198.347656 307.953125 171.738281 304.023438 C 177.746094 301.878906 186.042969 299.519531 191.195312 295.585938 C 194.554688 293.011719 197.273438 289.726562 198.5625 285.652344 C 198.992188 284.363281 199.5625 281.363281 198.347656 280.289062 C 197.488281 279.574219 195.914062 279.859375 194.984375 280.074219 C 192.125 280.859375 189.335938 283.078125 187.261719 285.148438 C 182.898438 289.4375 175.171875 292.726562 169.449219 294.515625 C 159.578125 297.589844 149.066406 298.660156 138.765625 297.875 C 135.832031 297.660156 132.898438 297.230469 130.109375 296.730469 C 140.625 302.949219 162.726562 306.667969 147.921875 307.8125 C 129.039062 309.242188 165.160156 315.316406 176.601562 317.605469 C 188.046875 319.890625 148.351562 322.394531 190.765625 324.253906 C 233.179688 326.109375 232.324219 292.511719 245.625 295.371094 C 258.929688 298.230469 248.773438 314.671875 248.773438 314.671875 C 271.449219 308.023438 274.953125 279.144531 286.398438 276.285156 C 297.839844 273.355469 296.339844 288.296875 296.339844 288.296875 C 311 277.214844 306.851562 264.5625 321.015625 258.34375 Z M 321.015625 258.34375 " fill-opacity="1" fill-rule="evenodd"/><g clip-path="url(#cc240b50cf)"><path fill="#1463a3" d="M 23.820312 185.074219 C 23.820312 90.285156 100.640625 13.4375 195.484375 13.4375 C 227.03125 13.4375 256.570312 21.945312 281.890625 36.742188 C 254.640625 19.871094 222.378906 10.078125 187.902344 10.078125 C 89.125 10.078125 9.085938 90.070312 9.085938 188.789062 C 9.085938 287.507812 89.125 367.5 187.902344 367.5 C 280.386719 367.5 356.421875 297.375 365.792969 207.445312 C 354.847656 291.65625 282.75 356.707031 195.558594 356.707031 C 100.640625 356.632812 23.820312 279.859375 23.820312 185.074219 Z M 23.820312 185.074219 " fill-opacity="1" fill-rule="evenodd"/></g><path fill="#ffffff" d="M 170.808594 281.789062 C 170.808594 281.789062 177.316406 282.289062 184.113281 281.71875 C 184.113281 281.71875 179.820312 282.792969 177.390625 282.863281 C 174.957031 282.933594 170.808594 281.789062 170.808594 281.789062 Z M 170.808594 281.789062 " fill-opacity="1" fill-rule="evenodd"/><path fill="#ffffff" d="M 171.023438 262.0625 C 171.023438 262.0625 177.03125 262.5625 183.328125 261.988281 C 183.328125 261.988281 179.320312 263.0625 177.105469 263.132812 C 174.886719 263.203125 171.023438 262.0625 171.023438 262.0625 Z M 171.023438 262.0625 " fill-opacity="1" fill-rule="evenodd"/><path fill="#ffffff" d="M 171.882812 242.332031 C 171.882812 242.332031 176.53125 242.832031 181.324219 242.261719 C 181.324219 242.261719 178.25 243.332031 176.53125 243.402344 C 174.886719 243.402344 171.882812 242.332031 171.882812 242.332031 Z M 171.882812 242.332031 " fill-opacity="1" fill-rule="evenodd"/><path fill="#ffffff" d="M 171.667969 222.601562 C 171.667969 222.601562 175.746094 223.101562 180.035156 222.53125 C 180.035156 222.53125 177.316406 223.601562 175.816406 223.675781 C 174.242188 223.675781 171.667969 222.601562 171.667969 222.601562 Z M 171.667969 222.601562 " fill-opacity="1" fill-rule="evenodd"/><path fill="#ffffff" d="M 172.382812 202.871094 C 172.382812 202.871094 175.960938 203.371094 179.75 202.800781 C 179.75 202.800781 177.390625 203.871094 176.03125 203.945312 C 174.671875 203.945312 172.382812 202.871094 172.382812 202.871094 Z M 172.382812 202.871094 " fill-opacity="1" fill-rule="evenodd"/><path fill="#ffffff" d="M 173.742188 183.140625 C 173.742188 183.140625 177.175781 183.644531 180.824219 183.070312 C 180.824219 183.070312 178.535156 184.144531 177.246094 184.214844 C 175.886719 184.214844 173.742188 183.140625 173.742188 183.140625 Z M 173.742188 183.140625 " fill-opacity="1" fill-rule="evenodd"/><path fill="#ffffff" d="M 175.03125 163.414062 C 175.03125 163.414062 178.320312 163.914062 181.753906 163.339844 C 181.753906 163.339844 179.605469 164.414062 178.390625 164.484375 C 177.105469 164.484375 175.03125 163.414062 175.03125 163.414062 Z M 175.03125 163.414062 " fill-opacity="1" fill-rule="evenodd"/><path fill="#ffffff" d="M 176.386719 143.753906 C 176.386719 143.753906 179.320312 144.183594 182.398438 143.683594 C 182.398438 143.683594 180.464844 144.539062 179.390625 144.613281 C 178.25 144.683594 176.386719 143.753906 176.386719 143.753906 Z M 176.386719 143.753906 " fill-opacity="1" fill-rule="evenodd"/></svg>