<svg xmlns="http://www.w3.org/2000/svg" xmlns:xlink="http://www.w3.org/1999/xlink" width="500" zoomAndPan="magnify" viewBox="0 0 375 374.999991" height="500" preserveAspectRatio="xMidYMid meet" version="1.0"><path fill="#101e2e" d="M 374.976562 187.53125 C 374.976562 291.082031 291.03125 375.03125 187.476562 375.03125 C 83.925781 375.03125 -0.0234375 291.082031 -0.0234375 187.53125 C -0.0234375 83.976562 83.925781 0.03125 187.476562 0.03125 C 291.03125 0.03125 374.976562 83.976562 374.976562 187.53125 Z M 374.976562 187.53125 " fill-opacity="1" fill-rule="nonzero"/><path fill="#ffffff" d="M 365.371094 187.53125 C 365.371094 285.78125 285.71875 365.421875 187.476562 365.421875 C 89.226562 365.421875 9.585938 285.773438 9.585938 187.53125 C 9.585938 89.28125 89.234375 9.636719 187.476562 9.636719 C 285.726562 9.636719 365.371094 89.28125 365.371094 187.53125 Z M 365.371094 187.53125 " fill-opacity="1" fill-rule="nonzero"/><path fill="#f49334" d="M 187.476562 16.921875 C 183.210938 16.921875 178.941406 17.078125 174.683594 17.398438 L 187.476562 187.53125 L 200.273438 17.398438 C 196.019531 17.078125 191.746094 16.921875 187.476562 16.921875 Z M 113.484375 33.800781 C 105.789062 37.507812 98.378906 41.78125 91.320312 46.597656 L 187.460938 187.53125 Z M 261.472656 33.800781 L 187.492188 187.53125 L 283.636719 46.597656 C 276.578125 41.78125 269.175781 37.507812 261.472656 33.800781 Z M 46.523438 91.402344 C 41.707031 98.460938 37.433594 105.871094 33.726562 113.566406 L 187.425781 187.53125 L 187.433594 187.53125 Z M 328.433594 91.402344 L 187.523438 187.53125 L 187.53125 187.53125 L 341.226562 113.566406 C 337.523438 105.871094 333.246094 98.460938 328.433594 91.402344 Z M 17.347656 174.765625 C 17.023438 179.011719 16.867188 183.269531 16.867188 187.53125 L 187.101562 187.53125 Z M 357.613281 174.765625 L 187.859375 187.53125 L 358.09375 187.53125 C 358.085938 183.269531 357.929688 179.011719 357.613281 174.765625 Z M 357.613281 174.765625 " fill-opacity="1" fill-rule="nonzero"/><path fill="#f49334" d="M 187.476562 101.046875 C 139.710938 101.046875 100.988281 139.769531 100.988281 187.539062 L 273.960938 187.539062 C 273.96875 139.761719 235.246094 101.046875 187.476562 101.046875 Z M 187.476562 101.046875 " fill-opacity="1" fill-rule="nonzero"/><path fill="#48aee0" d="M 18.539062 211.386719 C 19.679688 219.464844 21.398438 227.453125 23.683594 235.28125 L 351.269531 235.28125 C 353.550781 227.453125 355.273438 219.464844 356.414062 211.386719 Z M 32.640625 259.175781 C 36.488281 267.496094 40.996094 275.484375 46.125 283.074219 L 328.828125 283.074219 C 333.960938 275.484375 338.476562 267.488281 342.316406 259.175781 Z M 65.648438 306.96875 C 74.496094 315.988281 84.324219 324.007812 94.941406 330.863281 L 280.019531 330.863281 C 290.640625 324.007812 300.464844 315.988281 309.316406 306.96875 Z M 65.648438 306.96875 " fill-opacity="1" fill-rule="nonzero"/><path fill="#101e2e" d="M 187.476562 167.183594 C 156.179688 167.183594 127.328125 184.085938 112.027344 211.386719 L 262.921875 211.386719 C 247.628906 184.085938 218.773438 167.183594 187.476562 167.183594 Z M 187.476562 167.183594 " fill-opacity="1" fill-rule="nonzero"/><path fill="#101e2e" d="M 206.71875 105.097656 C 187.398438 105.253906 186.046875 124.375 186.046875 124.375 C 167.195312 112.691406 147.363281 123.484375 147.363281 123.484375 C 159.03125 122.320312 168.109375 126.148438 168.109375 126.148438 L 159.527344 128.640625 C 163.519531 128.953125 167.515625 128.824219 171.511719 131.425781 L 167.46875 133.382812 C 178.480469 133.746094 181.171875 135.792969 181.171875 135.792969 C 148.921875 141.710938 158.894531 165.703125 158.894531 165.703125 C 160.917969 158.539062 168.867188 154.171875 168.867188 154.171875 L 168.242188 160.402344 C 171.824219 150.746094 179.621094 147.613281 179.621094 147.613281 L 178.679688 158.21875 C 181.886719 150.976562 187.488281 145.566406 189.835938 143.554688 C 187.285156 168.757812 171.109375 200.6875 171.109375 200.6875 L 182.683594 201.644531 C 182.683594 201.644531 197.128906 173.578125 194.246094 143.335938 C 209.753906 145.136719 220.742188 163.671875 220.742188 163.671875 C 219.5 154.480469 214.667969 148.558594 214.667969 148.558594 L 222.300781 150.742188 C 214.359375 136.097656 205.320312 133.917969 205.320312 133.917969 L 217.160156 132.828125 L 208.59375 127.53125 L 227.597656 124.257812 C 211.085938 116.78125 196.707031 123.503906 196.707031 123.503906 L 203.917969 113.351562 L 198.46875 113.664062 Z M 206.71875 105.097656 " fill-opacity="1" fill-rule="nonzero"/><path fill="#ffffff" d="M 186.371094 137.085938 C 186.371094 137.085938 160.691406 137.300781 159.308594 158.417969 C 159.308594 158.417969 159.734375 149.714844 170.238281 144.515625 L 169.070312 149.183594 C 169.070312 149.1875 171.40625 140.484375 186.371094 137.085938 Z M 186.371094 137.085938 " fill-opacity="1" fill-rule="nonzero"/><path fill="#ffffff" d="M 187.027344 129.285156 C 176.148438 120.054688 158.515625 121.554688 158.515625 121.554688 C 158.515625 121.554688 176.296875 115.929688 187.027344 129.285156 Z M 187.027344 129.285156 " fill-opacity="1" fill-rule="nonzero"/><path fill="#ffffff" d="M 188.980469 120.582031 C 188.980469 120.582031 190.78125 108.351562 203.988281 106.324219 C 203.984375 106.324219 194.683594 108.574219 188.980469 120.582031 Z M 188.980469 120.582031 " fill-opacity="1" fill-rule="nonzero"/><path fill="#ffffff" d="M 222.449219 123.609375 C 208.496094 119.257812 197.25 124.722656 197.25 124.722656 C 197.25 124.722656 210.777344 121.222656 222.449219 123.609375 Z M 222.449219 123.609375 " fill-opacity="1" fill-rule="nonzero"/><path fill="#ffffff" d="M 217.871094 146.996094 C 212.316406 136.5625 199.785156 133.863281 199.785156 133.863281 C 199.785156 133.863281 210.441406 138.21875 217.871094 146.996094 Z M 217.871094 146.996094 " fill-opacity="1" fill-rule="nonzero"/><path fill="#ffffff" d="M 181.210938 199.539062 C 195.472656 172.527344 193.03125 143.597656 193.03125 143.597656 C 191.320312 163.707031 189.546875 178.125 181.210938 199.539062 Z M 181.210938 199.539062 " fill-opacity="1" fill-rule="nonzero"/></svg>