<svg xmlns="http://www.w3.org/2000/svg" xmlns:xlink="http://www.w3.org/1999/xlink" width="500" zoomAndPan="magnify" viewBox="0 0 375 374.999991" height="500" preserveAspectRatio="xMidYMid meet" version="1.0"><defs><clipPath id="f259df77ce"><path d="M 114 167 L 268 167 L 268 368.777344 L 114 368.777344 Z M 114 167 " clip-rule="nonzero"/></clipPath><clipPath id="c1e8b2f011"><path d="M 259 158 L 368.777344 158 L 368.777344 282 L 259 282 Z M 259 158 " clip-rule="nonzero"/></clipPath><clipPath id="31b6b1b9b0"><path d="M 6.527344 157 L 192 157 L 192 293 L 6.527344 293 Z M 6.527344 157 " clip-rule="nonzero"/></clipPath><clipPath id="48dbcea21b"><path d="M 14 6.527344 L 331 6.527344 L 331 152 L 14 152 Z M 14 6.527344 " clip-rule="nonzero"/></clipPath><clipPath id="2cad0a46e7"><path d="M 89 292 L 191 292 L 191 368.777344 L 89 368.777344 Z M 89 292 " clip-rule="nonzero"/></clipPath></defs><path fill="#f15a29" d="M 304.902344 90.808594 L 340.09375 89.828125 C 337.863281 86.367188 335.515625 82.992188 333.066406 79.699219 L 304.902344 90.808594 " fill-opacity="1" fill-rule="nonzero"/><path fill="#f15a29" d="M 175.980469 279.246094 C 174.867188 269.289062 174.730469 259.898438 175.386719 251.078125 L 152.914062 257.050781 L 163.730469 260.320312 L 137.507812 265.21875 L 144.695312 266.589844 C 144.695312 266.589844 135.652344 268.335938 126.28125 271.648438 C 139.605469 268.960938 157.167969 269.132812 175.980469 279.246094 " fill-opacity="1" fill-rule="nonzero"/><path fill="#f15a29" d="M 240.9375 114.210938 C 239.6875 115.558594 238.394531 116.988281 237.09375 118.46875 C 238.460938 117.054688 239.898438 115.636719 241.390625 114.214844 L 240.9375 114.210938 " fill-opacity="1" fill-rule="nonzero"/><path fill="#f15a29" d="M 152.011719 237.863281 L 154.648438 216.535156 L 141.839844 232.492188 L 145.753906 231.597656 L 135.75 240.082031 L 129.96875 247.28125 L 132.328125 246.472656 C 132.328125 246.472656 129.316406 249.058594 125.417969 252.953125 L 120.367188 259.246094 C 131.53125 249.839844 148.140625 241.382812 171.535156 242.089844 L 151.121094 249.839844 L 175.527344 249.472656 C 177.984375 220.757812 188.71875 198.136719 200.5 181.46875 C 187.542969 195.207031 177.550781 209.578125 177.550781 209.578125 L 180.703125 196.03125 L 152.011719 237.863281 " fill-opacity="1" fill-rule="nonzero"/><path fill="#f15a29" d="M 367.949219 170.664062 C 366.109375 150.949219 361.160156 132.152344 353.523438 114.785156 L 308.515625 114.554688 L 279.386719 120.386719 L 293.089844 122.808594 C 293.089844 122.808594 272.09375 127.144531 252.542969 135.0625 C 280.71875 127.644531 319.78125 126.351562 362.339844 151.625 L 321.253906 145.714844 L 367.949219 170.664062 " fill-opacity="1" fill-rule="nonzero"/><path fill="#f15a29" d="M 140.972656 213.320312 L 143.480469 207.875 L 132.96875 218.519531 C 135.429688 216.707031 138.097656 214.96875 140.972656 213.320312 " fill-opacity="1" fill-rule="nonzero"/><g clip-path="url(#f259df77ce)"><path fill="#f15a29" d="M 267.769531 252.078125 C 267.171875 252.113281 264.785156 252.0625 261.480469 251.976562 C 261.445312 251.460938 261.378906 250.933594 261.324219 250.398438 C 261.019531 247.488281 260.675781 244.609375 260.296875 241.746094 C 260.195312 241.027344 260.109375 240.324219 260.007812 239.605469 C 259.886719 238.902344 259.769531 238.199219 259.644531 237.5 C 259.410156 236.09375 259.148438 234.707031 258.890625 233.316406 C 258.378906 230.523438 257.832031 227.785156 257.246094 225.074219 C 256.035156 219.695312 254.628906 214.519531 253.203125 209.5 C 251.664062 204.582031 250.085938 199.820312 248.441406 195.347656 C 247.585938 193.136719 246.746094 190.980469 245.886719 188.886719 C 245.03125 186.78125 244.210938 184.726562 243.320312 182.824219 C 241.589844 178.953125 239.875 175.355469 238.199219 172.085938 C 235.554688 170.257812 232.910156 168.59375 230.292969 167.164062 C 218.679688 189.90625 216.441406 231.738281 216.441406 231.738281 L 211.996094 218.554688 L 209.601562 269.226562 L 200.625 249.703125 L 193.695312 306.035156 L 186.574219 248.210938 L 179.066406 280.972656 C 180.304688 281.703125 181.542969 282.472656 182.789062 283.296875 L 178.714844 282.507812 L 177.300781 288.671875 C 176.921875 286.433594 176.609375 284.230469 176.328125 282.046875 L 161.355469 279.148438 L 187.652344 294.875 L 159.082031 286.226562 L 166.5625 294.695312 L 141.683594 285.066406 L 147.078125 290.007812 C 147.078125 290.007812 128.113281 282.808594 114.730469 282.882812 C 114.746094 283.355469 114.773438 283.835938 114.8125 284.324219 C 116.457031 284.105469 118.394531 283.964844 120.636719 284 C 121.355469 284 122.109375 284.050781 122.898438 284.085938 C 123.703125 284.152344 124.542969 284.222656 125.402344 284.292969 C 127.097656 284.480469 128.949219 284.804688 130.882812 285.164062 C 132.339844 285.492188 133.882812 285.871094 135.476562 286.3125 C 136.007812 286.46875 136.539062 286.621094 137.085938 286.792969 C 138.164062 287.152344 139.296875 287.53125 140.425781 287.957031 C 140.976562 288.164062 141.558594 288.371094 142.140625 288.59375 C 142.429688 288.710938 142.722656 288.8125 143.015625 288.933594 C 143.304688 289.054688 143.582031 289.191406 143.871094 289.3125 C 145.070312 289.828125 146.234375 290.375 147.46875 290.957031 C 148.667969 291.558594 149.917969 292.140625 151.152344 292.875 C 152.386719 293.578125 153.636719 294.316406 154.921875 295.085938 C 156.191406 295.839844 157.476562 296.644531 158.742188 297.554688 C 160.011719 298.445312 161.296875 299.402344 162.597656 300.363281 C 163.882812 301.355469 165.1875 302.335938 166.4375 303.449219 C 167.722656 304.5625 169.007812 305.710938 170.292969 306.894531 C 170.910156 307.472656 171.542969 308.074219 172.195312 308.691406 C 172.570312 309.050781 172.777344 309.238281 173.152344 309.617188 C 173.53125 309.992188 173.703125 310.183594 174.078125 310.59375 C 176.527344 313.164062 178.929688 315.886719 181.292969 318.730469 C 183.382812 321.269531 185.457031 323.90625 187.460938 326.648438 C 185.4375 330.28125 183.898438 333.003906 183.519531 333.570312 C 183.058594 334.273438 185.574219 332.0625 189.105469 328.859375 C 190.972656 331.339844 192.789062 333.929688 194.574219 336.566406 C 194.863281 337.027344 195.035156 337.269531 195.34375 337.75 C 195.648438 338.214844 195.820312 338.453125 196.144531 338.914062 C 196.679688 339.71875 197.226562 340.507812 197.738281 341.3125 C 198.789062 342.925781 199.832031 344.570312 200.84375 346.214844 C 203.019531 349.726562 205.125 353.328125 207.183594 357.007812 C 204.597656 361.628906 202.207031 365.898438 200.832031 368.292969 C 201.328125 368.257812 201.820312 368.214844 202.316406 368.175781 C 204.183594 366.53125 206.839844 364.109375 209.632812 361.535156 C 210.589844 363.347656 211.535156 365.167969 212.457031 366.996094 C 212.472656 367.023438 212.484375 367.050781 212.496094 367.078125 C 221.6875 365.8125 230.664062 363.867188 239.363281 361.28125 C 239.402344 361.195312 239.433594 361.132812 239.480469 361.035156 C 239.839844 360.316406 240.027344 359.957031 240.386719 359.238281 C 241.414062 357.179688 242.425781 355.054688 243.386719 352.894531 C 248.4375 353.878906 253.328125 354.796875 256.34375 355.28125 C 256.828125 355.085938 257.3125 354.894531 257.792969 354.691406 C 255.4375 353.300781 250.78125 350.457031 245.785156 347.363281 C 246.25 346.265625 246.695312 345.152344 247.136719 344.039062 C 251.441406 334.085938 255.070312 323.238281 257.933594 311.808594 C 258.140625 310.988281 258.242188 310.558594 258.445312 309.71875 C 258.601562 308.878906 258.6875 308.453125 258.859375 307.59375 C 259.097656 306.394531 259.304688 305.195312 259.511719 303.976562 C 264.839844 302.113281 268.675781 300.6875 267.769531 300.742188 C 267.082031 300.773438 264.101562 300.703125 260.078125 300.585938 C 260.398438 298.617188 260.710938 296.628906 260.984375 294.640625 C 261.429688 291.726562 261.617188 288.78125 261.839844 285.832031 C 262.046875 282.886719 262.21875 279.921875 262.335938 276.941406 C 262.492188 273.976562 262.4375 271.011719 262.371094 268.050781 C 262.320312 265.082031 262.203125 262.117188 262.0625 259.171875 C 262.011719 257.597656 261.890625 256.050781 261.753906 254.511719 C 265.867188 253.074219 268.542969 252.046875 267.769531 252.078125 " fill-opacity="1" fill-rule="nonzero"/></g><path fill="#f15a29" d="M 129.609375 228.738281 L 135.472656 225.277344 L 139.269531 217.023438 Z M 129.609375 228.738281 " fill-opacity="1" fill-rule="nonzero"/><path fill="#f15a29" d="M 60.089844 308.675781 L 57 309.335938 L 55.167969 311.144531 C 55.992188 312.027344 56.820312 312.90625 57.660156 313.773438 L 60.089844 308.675781 " fill-opacity="1" fill-rule="nonzero"/><path fill="#f15a29" d="M 85.445312 303.222656 L 80.957031 304.1875 C 80.429688 304.894531 80.132812 305.308594 80.132812 305.308594 L 80.378906 304.3125 L 77.074219 305.019531 L 66.511719 320.007812 L 68.039062 308.808594 L 61.105469 317.226562 C 66.632812 322.628906 72.503906 327.671875 78.683594 332.335938 C 78.988281 320.960938 81.671875 311.285156 85.445312 303.222656 " fill-opacity="1" fill-rule="nonzero"/><path fill="#f15a29" d="M 287.199219 283.554688 C 287.269531 284.945312 287.335938 286.347656 287.386719 287.738281 C 287.527344 291.300781 287.675781 294.878906 287.558594 298.425781 C 287.472656 301.988281 287.355469 305.554688 287.164062 309.101562 C 287.078125 310.882812 286.976562 312.664062 286.855469 314.433594 C 286.773438 315.492188 286.734375 316.027344 286.648438 317.085938 C 286.546875 318.148438 286.480469 318.664062 286.359375 319.707031 C 285.742188 325.019531 284.992188 330.261719 284.113281 335.457031 C 275.921875 335.726562 268.144531 335.96875 266.980469 335.898438 C 265.683594 335.828125 274.1875 338.808594 282.875 341.765625 C 304.421875 328.421875 322.957031 310.6875 337.234375 289.816406 L 284.683594 282.6875 C 285.5 282.96875 286.339844 283.257812 287.199219 283.554688 " fill-opacity="1" fill-rule="nonzero"/><path fill="#f15a29" d="M 119.503906 259.96875 L 120.203125 258.445312 C 119.042969 259.742188 117.882812 261.089844 116.761719 262.476562 C 117.636719 261.636719 118.542969 260.800781 119.503906 259.96875 " fill-opacity="1" fill-rule="nonzero"/><path fill="#f15a29" d="M 121.574219 155.503906 L 123.34375 154.238281 L 119.941406 155.191406 Z M 121.574219 155.503906 " fill-opacity="1" fill-rule="nonzero"/><g clip-path="url(#c1e8b2f011)"><path fill="#f15a29" d="M 317.589844 159.363281 L 332.574219 174.761719 L 284.4375 158.761719 L 295.136719 167.65625 C 295.136719 167.65625 278.492188 162.242188 259.867188 159.117188 C 287.453125 167.859375 320.605469 187.386719 343.117188 230.53125 L 311.28125 203.894531 L 340.542969 254.273438 L 300.988281 213.570312 L 305.628906 234.550781 L 273.109375 195.621094 L 277.53125 208.8125 C 277.53125 208.8125 273.679688 204.265625 267.675781 198.019531 C 267.679688 198.023438 267.683594 198.027344 267.683594 198.035156 L 267.699219 198.054688 C 268.007812 198.742188 268.300781 199.425781 268.589844 200.128906 C 270.734375 205.59375 272.875 211.316406 274.863281 217.316406 C 275.804688 220.328125 276.746094 223.398438 277.640625 226.535156 C 278.085938 228.089844 278.527344 229.667969 278.972656 231.261719 C 279.199219 232.050781 279.402344 232.855469 279.625 233.660156 C 279.8125 234.464844 280.019531 235.269531 280.207031 236.09375 C 280.980469 239.347656 281.699219 242.640625 282.402344 245.980469 C 283.085938 249.320312 283.808594 252.714844 284.285156 256.136719 C 284.820312 259.566406 285.296875 263.042969 285.742188 266.523438 C 286.171875 270.019531 286.617188 273.550781 286.820312 277.074219 C 286.855469 277.644531 286.890625 278.226562 286.921875 278.792969 C 280.980469 278.964844 276.132812 279.097656 275.238281 279.050781 C 274.433594 279.007812 277.433594 280.144531 281.917969 281.71875 L 346.085938 275.492188 C 360.542969 249.507812 368.777344 219.539062 368.777344 187.671875 C 368.777344 182.390625 368.496094 177.183594 368.054688 172.019531 L 317.589844 159.363281 " fill-opacity="1" fill-rule="nonzero"/></g><g clip-path="url(#31b6b1b9b0)"><path fill="#f15a29" d="M 89.960938 277.453125 C 83.46875 279.492188 78.289062 281.808594 78.289062 281.808594 L 82.476562 277.503906 L 62.546875 286.566406 L 68.277344 279.273438 L 45.277344 287.707031 L 66.082031 273.582031 L 48.71875 277.992188 C 65.621094 265.359375 82.246094 264.007812 94.628906 265.808594 C 91.414062 253.53125 90.820312 236.269531 102.320312 217.613281 L 99.476562 235.304688 L 111.691406 213.328125 L 105.339844 236.980469 L 112.09375 230.625 L 104.84375 251.285156 L 108.757812 246.730469 C 108.757812 246.730469 106.910156 252.09375 105.457031 258.742188 C 107.402344 251.480469 110.746094 243.285156 116.378906 235.3125 L 114.3125 237.40625 C 132.957031 191.550781 164.867188 168.984375 191.800781 157.875 C 171.441406 163.375 152.085938 172.605469 152.085938 172.605469 L 161.542969 162.398438 L 115.890625 184.511719 L 128.75 167.292969 L 75.957031 188.132812 L 119.320312 157.117188 L 105.660156 159.191406 L 83.371094 165.433594 C 84.953125 164.191406 86.53125 163.011719 88.109375 161.859375 L 7.03125 174.171875 C 6.6875 178.632812 6.527344 183.117188 6.527344 187.671875 C 6.527344 224.292969 17.394531 258.359375 36.085938 286.839844 L 65.039062 292.695312 C 73.210938 285.050781 82.082031 280.335938 89.960938 277.453125 " fill-opacity="1" fill-rule="nonzero"/></g><g clip-path="url(#48dbcea21b)"><path fill="#f15a29" d="M 194.078125 135.316406 C 181.40625 132.738281 170.664062 131.820312 170.664062 131.820312 L 181.59375 128.515625 L 140.097656 125.234375 L 156.34375 118.378906 L 110.320312 111.230469 L 157.933594 106.890625 L 124.992188 98.238281 C 164.738281 92.792969 193.632812 105.859375 212.578125 120.253906 C 218.539062 96.871094 233.441406 67.609375 269.753906 47.171875 L 248.730469 73.976562 L 289.292969 48.667969 L 256.9375 82.167969 L 274.027344 77.816406 L 242.941406 105.5 L 253.644531 101.53125 C 253.644531 101.53125 250.109375 104.722656 245.242188 109.699219 L 246.703125 109.40625 C 265.535156 93.140625 292.726562 78.28125 330.191406 75.929688 C 297.03125 33.699219 245.527344 6.554688 187.664062 6.554688 C 105.972656 6.554688 36.929688 60.613281 14.351562 134.894531 L 103.316406 151.996094 C 137.125 132.761719 169.617188 131.507812 194.078125 135.316406 " fill-opacity="1" fill-rule="nonzero"/></g><path fill="#f15a29" d="M 85.160156 323.726562 L 82.046875 334.816406 C 83.414062 335.800781 84.800781 336.765625 86.199219 337.710938 L 85.160156 323.726562 " fill-opacity="1" fill-rule="nonzero"/><path fill="#f15a29" d="M 88.476562 297.433594 C 90.429688 294.082031 92.539062 291.066406 94.683594 288.378906 C 91.714844 291.253906 88.945312 294.328125 86.632812 297.0625 L 88.476562 297.433594 " fill-opacity="1" fill-rule="nonzero"/><g clip-path="url(#2cad0a46e7)"><path fill="#f15a29" d="M 189.109375 368.761719 C 187.382812 364.398438 185.585938 360.085938 183.640625 355.929688 C 183.605469 355.84375 183.554688 355.742188 183.519531 355.65625 C 187.632812 350.394531 190.957031 346.027344 190.132812 346.660156 C 189.5 347.136719 186.175781 349.402344 181.910156 352.246094 C 181.738281 351.90625 181.566406 351.542969 181.394531 351.199219 C 181 350.414062 180.605469 349.640625 180.195312 348.886719 C 179.972656 348.40625 179.835938 348.1875 179.613281 347.722656 C 179.371094 347.261719 179.253906 347.035156 179.011719 346.554688 C 177.4375 343.4375 175.757812 340.40625 174.0625 337.527344 C 170.925781 331.890625 167.515625 326.597656 163.933594 321.726562 C 163.675781 321.386719 163.558594 321.214844 163.285156 320.839844 C 163.027344 320.496094 162.871094 320.324219 162.597656 320 C 162.238281 319.535156 161.878906 319.109375 161.484375 318.664062 C 163.902344 315.492188 165.425781 313.386719 164.84375 313.847656 C 164.398438 314.191406 162.632812 315.40625 160.132812 317.085938 C 159.582031 316.433594 159.019531 315.785156 158.4375 315.132812 C 157.507812 314.070312 156.515625 313.109375 155.554688 312.152344 C 154.5625 311.226562 153.605469 310.300781 152.644531 309.410156 C 151.667969 308.484375 150.671875 307.695312 149.695312 306.894531 C 148.703125 306.101562 147.726562 305.347656 146.730469 304.613281 C 145.773438 303.839844 144.777344 303.207031 143.804688 302.554688 C 142.84375 301.925781 141.867188 301.304688 140.921875 300.722656 C 140.683594 300.570312 140.460938 300.433594 140.222656 300.292969 C 139.964844 300.15625 139.742188 300.019531 139.5 299.902344 C 139.039062 299.628906 138.558594 299.386719 138.097656 299.109375 C 137.171875 298.632812 136.230469 298.152344 135.339844 297.707031 C 133.539062 296.851562 131.792969 296.148438 130.113281 295.5 C 128.449219 294.914062 126.875 294.402344 125.382812 293.992188 C 124.628906 293.800781 123.910156 293.648438 123.207031 293.476562 C 122.523438 293.304688 121.835938 293.167969 121.203125 293.066406 C 119.300781 292.757812 117.625 292.566406 116.1875 292.5 C 118.992188 304.140625 124.808594 316.125 124.808594 316.125 L 119.40625 311.191406 L 131.210938 335.117188 L 122.109375 328.417969 L 133.269531 356.101562 L 115.261719 331.3125 L 121.300781 352.289062 C 105.335938 332.28125 103 312.175781 104.667969 297.046875 C 102.207031 306.671875 101.269531 315.832031 101.269531 315.832031 L 99.269531 308.796875 L 96.722656 335.355469 L 92.503906 324.871094 L 89.871094 340.136719 C 118.078125 358.265625 151.636719 368.785156 187.664062 368.785156 C 188.148438 368.785156 188.628906 368.765625 189.109375 368.761719 " fill-opacity="1" fill-rule="nonzero"/></g></svg>