<svg xmlns="http://www.w3.org/2000/svg" xmlns:xlink="http://www.w3.org/1999/xlink" width="500" zoomAndPan="magnify" viewBox="0 0 375 374.999991" height="500" preserveAspectRatio="xMidYMid meet" version="1.0"><defs><clipPath id="a19d33c4bf"><path d="M 42.023438 130.640625 L 366.605469 130.640625 L 366.605469 180.65625 L 42.023438 180.65625 Z M 42.023438 130.640625 " clip-rule="nonzero"/></clipPath><clipPath id="9a0613a225"><path d="M 42.023438 184.339844 L 366.605469 184.339844 L 366.605469 234.882812 L 42.023438 234.882812 Z M 42.023438 184.339844 " clip-rule="nonzero"/></clipPath><clipPath id="03622688f7"><path d="M 85.234375 292.269531 L 323.417969 292.269531 L 323.417969 344.59375 L 85.234375 344.59375 Z M 85.234375 292.269531 " clip-rule="nonzero"/></clipPath><clipPath id="bf1c1b2301"><path d="M 85 20.605469 L 324 20.605469 L 324 73 L 85 73 Z M 85 20.605469 " clip-rule="nonzero"/></clipPath><clipPath id="58033dea26"><path d="M 57 172 L 365.574219 172 L 365.574219 344.59375 L 57 344.59375 Z M 57 172 " clip-rule="nonzero"/></clipPath><clipPath id="c12d027722"><path d="M 75.222656 267 L 327.632812 267 L 327.632812 344.59375 L 75.222656 344.59375 Z M 75.222656 267 " clip-rule="nonzero"/></clipPath></defs><g clip-path="url(#a19d33c4bf)"><path fill="#f27022" d="M 366.609375 180.492188 C 366.386719 163.097656 363.433594 146.363281 358.136719 130.703125 L 50.855469 130.703125 C 45.558594 146.363281 42.605469 163.097656 42.382812 180.492188 L 366.609375 180.492188 " fill-opacity="1" fill-rule="nonzero"/></g><path fill="#f49334" d="M 52.347656 126.496094 L 356.640625 126.496094 C 349.84375 108.09375 339.796875 91.265625 327.199219 76.703125 L 81.792969 76.703125 C 69.191406 91.265625 59.144531 108.09375 52.347656 126.496094 " fill-opacity="1" fill-rule="nonzero"/><g clip-path="url(#9a0613a225)"><path fill="#eb362f" d="M 358.136719 234.492188 C 363.433594 218.832031 366.386719 202.097656 366.609375 184.703125 L 42.382812 184.703125 C 42.605469 202.097656 45.554688 218.832031 50.855469 234.492188 L 358.136719 234.492188 " fill-opacity="1" fill-rule="nonzero"/></g><g clip-path="url(#03622688f7)"><path fill="#093950" d="M 85.574219 292.699219 C 115.1875 324.609375 157.503906 344.59375 204.496094 344.59375 C 251.488281 344.59375 293.804688 324.609375 323.414062 292.699219 L 85.574219 292.699219 " fill-opacity="1" fill-rule="nonzero"/></g><g clip-path="url(#bf1c1b2301)"><path fill="#ffc44d" d="M 323.414062 72.496094 C 293.804688 40.582031 251.484375 20.601562 204.496094 20.601562 C 157.503906 20.601562 115.1875 40.582031 85.574219 72.496094 L 323.414062 72.496094 " fill-opacity="1" fill-rule="nonzero"/></g><path fill="#ffffff" d="M 316.519531 126.496094 C 316.519531 141.285156 304.515625 153.277344 289.714844 153.277344 C 274.90625 153.277344 262.90625 141.285156 262.90625 126.496094 C 262.90625 111.703125 274.90625 99.710938 289.714844 99.710938 C 304.515625 99.710938 316.519531 111.703125 316.519531 126.496094 " fill-opacity="1" fill-rule="nonzero"/><g clip-path="url(#58033dea26)"><path fill="#04b09a" d="M 365.210938 203.875 C 348.882812 184.777344 329.742188 170.503906 309.695312 172.289062 C 283.027344 174.664062 253.441406 201.265625 229.703125 228.574219 C 211.421875 209.507812 190.382812 194.410156 170.25 195.664062 C 136.46875 197.773438 87.535156 228.382812 57.007812 249.878906 C 82.585938 305.730469 139 344.539062 204.496094 344.539062 C 286.796875 344.539062 354.769531 283.257812 365.210938 203.875 " fill-opacity="1" fill-rule="nonzero"/></g><path fill="#ffffff" d="M 57.246094 249.710938 C 87.785156 228.226562 136.554688 197.769531 170.25 195.664062 C 171.039062 195.617188 171.820312 195.589844 172.613281 195.589844 C 192.019531 195.59375 212.136719 210.25 229.703125 228.574219 C 253.441406 201.265625 283.027344 174.664062 309.695312 172.289062 C 310.835938 172.1875 311.96875 172.136719 313.101562 172.136719 C 331.875 172.136719 349.746094 185.8125 365.128906 203.78125 C 365.382812 201.921875 365.609375 200.054688 365.796875 198.171875 C 347.847656 178.117188 330.132812 167.929688 313.101562 167.929688 C 311.839844 167.929688 310.570312 167.988281 309.320312 168.097656 C 286.609375 170.121094 259.78125 188.382812 229.539062 222.386719 C 208.949219 201.808594 189.816406 191.386719 172.613281 191.386719 C 171.734375 191.386719 170.855469 191.414062 169.988281 191.464844 C 136.425781 193.5625 89.390625 222.015625 55.5 245.796875 C 56.0625 247.113281 56.648438 248.417969 57.246094 249.710938 " fill-opacity="1" fill-rule="nonzero"/><path fill="#093950" d="M 149.820312 301.871094 C 141.78125 268.953125 125.132812 226.304688 90.660156 195.296875 L 110.894531 193.441406 L 103.542969 188.027344 C 103.542969 188.027344 116.210938 184.128906 126.996094 185.878906 L 122.0625 179.742188 C 122.0625 179.742188 142.90625 179.03125 148.253906 182.222656 L 141.976562 175.433594 C 141.976562 175.433594 165.015625 174.355469 174.363281 180.046875 C 174.363281 180.046875 161.917969 154.601562 123.507812 160 C 99.21875 163.417969 89.699219 176.886719 85.980469 186.328125 C 86.820312 179.3125 89.625 164.113281 98.570312 157.148438 L 90.617188 157.367188 L 103.082031 141.925781 L 95.945312 143.519531 L 111.109375 120.128906 C 111.109375 120.128906 86.566406 125.375 78.957031 145.160156 C 74.070312 157.878906 76.996094 173.660156 79.714844 183.316406 C 75.585938 177.382812 66.023438 167.054688 48.230469 164.242188 C 22.84375 160.234375 10.933594 175.195312 10.933594 175.195312 L 31.472656 173.996094 L 25.769531 178.117188 L 43.824219 175.949219 L 40.253906 180.042969 L 57.523438 181.457031 L 51.710938 185.328125 L 68.53125 189.800781 C 59.519531 190.039062 45.699219 192.164062 31.820312 201.105469 C 8.277344 216.277344 14.03125 246.3125 14.03125 246.3125 C 14.03125 246.3125 19.652344 232.871094 26.007812 228.351562 L 27.859375 234.515625 L 33.332031 219.460938 L 36.242188 225.015625 L 50.351562 208.824219 L 50.363281 214.5625 C 50.363281 214.5625 61.417969 205.101562 80.277344 196.152344 C 74.449219 201.289062 60.199219 215.773438 53.757812 239.390625 C 45.550781 269.480469 72.40625 285.742188 72.40625 285.742188 L 67.574219 256.734375 L 75.878906 261.339844 C 75.878906 261.339844 72.171875 249.578125 73.246094 241.371094 L 80.492188 245.617188 C 80.492188 245.617188 77.410156 229.464844 78.734375 221.464844 L 85.054688 229.332031 C 85.054688 229.332031 81.582031 209.941406 85.320312 201.414062 C 92.960938 206.902344 121.378906 231.652344 132.917969 301.871094 L 149.820312 301.871094 " fill-opacity="1" fill-rule="nonzero"/><path fill="#00979e" d="M 304.664062 198.9375 C 287.46875 205.25 341.113281 209.457031 323.414062 228.742188 C 305.71875 248.027344 289.734375 255.390625 320.539062 261 C 330.238281 262.769531 336.429688 266.566406 340.359375 270.941406 C 353.277344 251.15625 361.988281 228.378906 365.210938 203.875 C 348.882812 184.777344 329.742188 170.503906 309.695312 172.289062 C 308.027344 172.4375 306.351562 172.679688 304.664062 173.015625 C 304.664062 173.015625 321.855469 192.625 304.664062 198.9375 " fill-opacity="1" fill-rule="nonzero"/><path fill="#00979e" d="M 246.300781 277.453125 C 246.300781 277.453125 239.367188 250.074219 231.226562 226.835938 C 230.714844 227.414062 230.207031 227.992188 229.703125 228.574219 C 211.992188 210.101562 191.695312 195.355469 172.140625 195.59375 C 168.910156 201.898438 167.726562 209.347656 176.566406 213.316406 C 193.765625 221.027344 200.785156 241.363281 182.535156 247.675781 C 164.285156 253.988281 204.496094 272.25 204.496094 272.25 L 246.300781 277.453125 " fill-opacity="1" fill-rule="nonzero"/><path fill="#093950" d="M 267.578125 131.34375 C 249.0625 121.679688 231.40625 120.597656 220.019531 121.339844 L 240.699219 113.761719 L 232.925781 109.554688 L 254.515625 105.78125 L 249.550781 101.035156 L 272.542969 101.679688 L 264.878906 97.152344 L 290.894531 96.289062 C 290.894531 96.289062 274.160156 78.816406 242.640625 86.796875 C 220.554688 92.390625 209.703125 106.507812 205.1875 114.457031 C 207.492188 101.980469 209.359375 81.761719 201.726562 66.304688 C 189.851562 42.253906 158.332031 38.480469 158.332031 38.480469 L 180.136719 66.199219 L 170.964844 65.011719 L 188.449219 83.023438 L 178.410156 83.667969 C 190.484375 91.414062 195.773438 110.234375 197.640625 118.976562 C 191.867188 107.511719 178.316406 91.644531 147.320312 90.140625 C 98.3125 87.769531 85.574219 121.261719 85.574219 121.261719 C 96.691406 113.015625 125.839844 111.714844 125.839844 111.714844 L 118.714844 120.988281 C 125.082031 116.351562 151.421875 114.839844 151.421875 114.839844 L 145.917969 123.144531 C 159.304688 119.695312 175.710938 123.144531 175.710938 123.144531 L 167.078125 130.8125 L 192.78125 130.8125 C 142.714844 184.902344 130.222656 258.882812 127.390625 301.460938 L 150.757812 301.460938 C 150.75 187.976562 190.238281 146.554688 200.214844 137.902344 C 205.914062 148.214844 203.777344 173.046875 203.777344 173.046875 L 210.832031 162.402344 C 213.421875 172.328125 211.40625 193.035156 211.40625 193.035156 L 220.042969 186.851562 C 222.347656 197.0625 219.035156 212.304688 219.035156 212.304688 L 228.96875 205.546875 L 226.234375 242.648438 C 226.234375 242.648438 258.1875 219.0625 244.367188 182.105469 C 233.523438 153.09375 213.898438 136.492188 205.960938 130.691406 C 230.753906 139.789062 245.773438 150.433594 245.773438 150.433594 L 245.125 143.207031 L 264.769531 161.972656 L 267.792969 154.636719 L 276.429688 172.972656 L 278.046875 164.992188 C 286.574219 169.953125 295.214844 186.238281 295.214844 186.238281 C 295.214844 186.238281 298.992188 147.738281 267.578125 131.34375 " fill-opacity="1" fill-rule="nonzero"/><g clip-path="url(#c12d027722)"><path fill="#093950" d="M 327.546875 288.011719 C 265.355469 280.632812 171.277344 265.605469 131.414062 267.195312 C 107.695312 268.144531 88.679688 274.679688 75.675781 280.902344 C 105.304688 319.582031 151.976562 344.539062 204.496094 344.539062 C 253.71875 344.539062 297.816406 322.613281 327.546875 288.011719 " fill-opacity="1" fill-rule="nonzero"/></g><path fill="#ffffff" d="M 77.007812 282.628906 C 89.8125 276.5625 108.429688 270.21875 131.496094 269.300781 C 160.570312 268.117188 220.050781 276.058594 272.519531 283.046875 C 291.410156 285.5625 309.667969 287.992188 325.867188 289.929688 C 326.988281 288.664062 328.09375 287.386719 329.175781 286.085938 C 312.332031 284.105469 293.050781 281.535156 273.078125 278.875 C 220.4375 271.863281 160.777344 263.917969 131.328125 265.09375 C 106.914062 266.070312 87.523438 272.785156 74.347656 279.148438 C 75.21875 280.320312 76.105469 281.484375 77.007812 282.628906 " fill-opacity="1" fill-rule="nonzero"/></svg>