<svg xmlns="http://www.w3.org/2000/svg" xmlns:xlink="http://www.w3.org/1999/xlink" width="500" zoomAndPan="magnify" viewBox="0 0 375 374.999991" height="500" preserveAspectRatio="xMidYMid meet" version="1.0"><defs><clipPath id="e9cca0d62c"><path d="M 4.09375 128.667969 L 370.832031 128.667969 L 370.832031 185.304688 L 4.09375 185.304688 Z M 4.09375 128.667969 " clip-rule="nonzero"/></clipPath><clipPath id="69a0bce2b8"><path d="M 4.09375 189.476562 L 370.832031 189.476562 L 370.832031 246.710938 L 4.09375 246.710938 Z M 4.09375 189.476562 " clip-rule="nonzero"/></clipPath><clipPath id="b02aeeea42"><path d="M 52.367188 312 L 322 312 L 322 371.007812 L 52.367188 371.007812 Z M 52.367188 312 " clip-rule="nonzero"/></clipPath><clipPath id="751b141bc9"><path d="M 21.378906 106.011719 L 365.839844 106.011719 L 365.839844 371 L 21.378906 371 Z M 21.378906 106.011719 " clip-rule="nonzero"/></clipPath><clipPath id="e6d6b904a3"><path d="M 98 74 L 370.84375 74 L 370.84375 248 L 98 248 Z M 98 74 " clip-rule="nonzero"/></clipPath><clipPath id="e525efb31b"><path d="M 97 73 L 370.84375 73 L 370.84375 249 L 97 249 Z M 97 73 " clip-rule="nonzero"/></clipPath><clipPath id="d5be508996"><path d="M 20.1875 247 L 339 247 L 339 371 L 20.1875 371 Z M 20.1875 247 " clip-rule="nonzero"/></clipPath></defs><g clip-path="url(#e9cca0d62c)"><path fill="#c4281b" d="M 370.835938 185.15625 C 370.585938 165.453125 367.246094 146.5 361.253906 128.761719 L 13.679688 128.761719 C 7.6875 146.5 4.347656 165.453125 4.09375 185.15625 L 370.835938 185.15625 " fill-opacity="1" fill-rule="nonzero"/></g><path fill="#812358" d="M 15.367188 123.996094 L 359.566406 123.996094 C 351.875 103.160156 340.511719 84.097656 326.261719 67.605469 L 48.671875 67.605469 C 34.417969 84.097656 23.058594 103.160156 15.367188 123.996094 " fill-opacity="1" fill-rule="nonzero"/><g clip-path="url(#69a0bce2b8)"><path fill="#eb362f" d="M 361.253906 246.3125 C 367.246094 228.574219 370.585938 209.617188 370.835938 189.917969 L 4.09375 189.917969 C 4.347656 209.617188 7.6875 228.574219 13.679688 246.3125 L 361.253906 246.3125 " fill-opacity="1" fill-rule="nonzero"/></g><path fill="#f27022" d="M 326.261719 307.46875 C 340.511719 290.976562 351.875 271.914062 359.566406 251.078125 L 15.367188 251.078125 C 23.058594 271.914062 34.417969 290.976562 48.671875 307.46875 L 326.261719 307.46875 " fill-opacity="1" fill-rule="nonzero"/><path fill="#f27022" d="M 326.261719 307.46875 C 340.511719 290.976562 351.875 271.914062 359.566406 251.078125 L 15.367188 251.078125 C 23.058594 271.914062 34.417969 290.976562 48.671875 307.46875 L 326.261719 307.46875 " fill-opacity="1" fill-rule="nonzero"/><g clip-path="url(#b02aeeea42)"><path fill="#f0a639" d="M 52.953125 312.234375 C 86.445312 348.378906 134.3125 371.007812 187.464844 371.007812 C 240.621094 371.007812 288.484375 348.378906 321.980469 312.234375 L 52.953125 312.234375 " fill-opacity="1" fill-rule="nonzero"/></g><path fill="#993277" d="M 321.980469 62.84375 C 288.484375 26.695312 240.621094 4.066406 187.464844 4.066406 C 134.3125 4.066406 86.449219 26.695312 52.953125 62.84375 L 321.980469 62.84375 " fill-opacity="1" fill-rule="nonzero"/><path fill="#ffc44d" d="M 98.820312 194.585938 C 98.820312 211.347656 85.238281 224.933594 68.488281 224.933594 C 51.730469 224.933594 38.152344 211.347656 38.152344 194.585938 C 38.152344 177.824219 51.730469 164.238281 68.488281 164.238281 C 85.238281 164.238281 98.820312 177.824219 98.820312 194.585938 " fill-opacity="1" fill-rule="nonzero"/><path fill="#ffffff" d="M 68.484375 165.828125 C 52.632812 165.828125 39.738281 178.730469 39.738281 194.585938 C 39.738281 210.445312 52.632812 223.34375 68.484375 223.34375 C 84.335938 223.34375 97.230469 210.445312 97.230469 194.585938 C 97.230469 178.730469 84.335938 165.828125 68.484375 165.828125 Z M 68.484375 226.523438 C 50.882812 226.523438 36.5625 212.195312 36.5625 194.585938 C 36.5625 176.976562 50.882812 162.652344 68.484375 162.652344 C 86.089844 162.652344 100.410156 176.976562 100.410156 194.585938 C 100.410156 212.195312 86.089844 226.523438 68.484375 226.523438 " fill-opacity="1" fill-rule="nonzero"/><g clip-path="url(#751b141bc9)"><path fill="#19afda" d="M 187.464844 370.976562 C 273.886719 370.976562 346.332031 311.167969 365.726562 230.667969 L 356.578125 223.292969 L 305.171875 191.523438 L 287.507812 167.300781 L 269.640625 141.089844 L 239.671875 106.539062 L 207.714844 111.105469 L 153.128906 122.027344 L 135.070312 144.265625 C 158.488281 154.195312 172.054688 173.917969 168.347656 207.238281 C 164.644531 240.554688 134.472656 268.699219 85.777344 272.109375 C 55.28125 274.246094 33.503906 269.457031 21.484375 265.582031 C 50.796875 327.863281 114.09375 370.976562 187.464844 370.976562 " fill-opacity="1" fill-rule="nonzero"/></g><g clip-path="url(#e6d6b904a3)"><path fill="#b6eeff" d="M 321.050781 175.507812 C 314.964844 159.621094 298.421875 156.578125 298.421875 156.578125 C 298.421875 156.578125 300.144531 135.265625 291.410156 128.117188 C 282.675781 120.96875 271.558594 118.585938 271.558594 118.585938 C 271.558594 118.585938 273.679688 100.316406 252.636719 85.886719 C 231.597656 71.460938 208.441406 84.300781 208.441406 84.300781 C 208.441406 84.300781 195.34375 71.59375 176.816406 75.296875 C 158.292969 79.007812 152.335938 96.214844 152.335938 96.214844 C 136.457031 101.378906 134.871094 113.6875 134.871094 113.6875 C 111.449219 108.523438 105.125 131.558594 105.125 131.558594 C 105.125 131.558594 92.394531 145.0625 103.113281 157.371094 C 113.832031 169.683594 127.328125 160.546875 127.328125 160.546875 C 126.136719 133.148438 157.210938 145.457031 157.210938 145.457031 C 167.25 152.496094 176.375 152.46875 184.492188 144.664062 C 195.210938 150.421875 202.355469 139.699219 202.355469 139.699219 C 202.355469 139.699219 191.636719 126.199219 209.105469 118.851562 C 226.570312 111.503906 237.289062 130.566406 237.289062 130.566406 C 222.402344 139.105469 229.351562 153.796875 229.351562 153.796875 C 239.082031 141.027344 252.375 153.796875 252.375 153.796875 C 244.832031 155.585938 243.242188 161.9375 243.242188 161.9375 C 254.359375 166.503906 247.414062 180.207031 247.414062 180.207031 C 237.882812 169.085938 227.960938 172.859375 227.960938 172.859375 C 227.960938 172.859375 225.976562 163.527344 210.296875 167.300781 C 194.613281 171.070312 199.578125 184.050781 199.578125 184.050781 C 185.484375 199.410156 207.515625 207.238281 207.515625 207.238281 C 206.773438 204.117188 207.640625 201.464844 209.363281 199.246094 C 214.75 192.300781 225.597656 193.726562 229.890625 201.394531 C 234.640625 209.882812 244.433594 208.402344 244.433594 208.402344 C 260.3125 209.195312 264.679688 199.265625 264.679688 199.265625 C 269.640625 221.308594 291.277344 217.535156 292.867188 217.140625 C 316.148438 211.316406 320.257812 208.800781 320.257812 208.800781 C 307.15625 217.734375 315.890625 229.449219 315.890625 229.449219 C 315.890625 229.449219 312.714844 240.367188 325.816406 245.730469 C 338.914062 251.09375 345.265625 240.570312 345.265625 240.570312 C 345.265625 240.570312 340.683594 231.378906 348.839844 226.667969 C 355.054688 223.078125 361.117188 225.59375 366.003906 229.527344 C 367.90625 221.414062 369.257812 213.089844 370.039062 204.601562 C 339.425781 205.832031 326.460938 189.628906 321.050781 175.507812 " fill-opacity="1" fill-rule="nonzero"/></g><g clip-path="url(#e525efb31b)"><path fill="#ffffff" d="M 348.042969 225.292969 C 341.121094 229.292969 341.863281 236.472656 343.453125 240.402344 C 341.898438 242.46875 336.382812 248.34375 326.414062 244.261719 C 314.859375 239.53125 317.304688 230.277344 317.414062 229.890625 C 317.550781 229.417969 317.457031 228.902344 317.164062 228.503906 C 317.132812 228.457031 313.902344 224.003906 314.777344 218.863281 C 315.339844 215.554688 317.484375 212.613281 321.148438 210.109375 C 321.855469 209.628906 322.046875 208.679688 321.59375 207.957031 C 321.292969 207.480469 320.773438 207.21875 320.246094 207.21875 C 319.972656 207.21875 319.699219 207.289062 319.445312 207.433594 C 319.269531 207.535156 314.859375 210 292.480469 215.597656 C 292.390625 215.621094 283.097656 217.640625 275.34375 212.867188 C 270.742188 210.027344 267.675781 205.335938 266.230469 198.917969 C 266.082031 198.253906 265.519531 197.761719 264.839844 197.691406 C 264.167969 197.640625 263.515625 198 263.230469 198.621094 C 263.066406 198.984375 259.019531 207.558594 244.515625 206.816406 C 244.410156 206.804688 244.300781 206.816406 244.199219 206.832031 C 244.109375 206.84375 235.441406 208.0625 231.273438 200.621094 C 228.882812 196.34375 224.539062 193.574219 219.664062 193.207031 C 215.089844 192.878906 210.867188 194.710938 208.105469 198.273438 C 206.550781 200.277344 205.734375 202.425781 205.664062 204.6875 C 202.664062 203.195312 197.777344 200.144531 196.679688 195.710938 C 195.882812 192.496094 197.253906 188.933594 200.746094 185.125 C 201.152344 184.683594 201.273438 184.046875 201.0625 183.488281 C 201.046875 183.441406 199.367188 178.855469 201.523438 174.796875 C 203.035156 171.941406 206.113281 169.941406 210.664062 168.84375 C 216.167969 167.519531 220.574219 167.75 223.425781 169.503906 C 225.871094 171.007812 226.390625 173.117188 226.40625 173.1875 C 226.503906 173.640625 226.792969 174.023438 227.195312 174.246094 C 227.597656 174.46875 228.082031 174.503906 228.515625 174.347656 C 228.878906 174.210938 237.574219 171.167969 246.207031 181.238281 C 246.550781 181.644531 247.066406 181.855469 247.601562 181.785156 C 248.128906 181.71875 248.589844 181.398438 248.828125 180.921875 C 248.988281 180.609375 252.703125 173.152344 250.378906 166.898438 C 249.457031 164.410156 247.734375 162.476562 245.25 161.128906 C 246.0625 159.433594 248.117188 156.441406 252.742188 155.34375 C 253.308594 155.207031 253.753906 154.777344 253.90625 154.214844 C 254.0625 153.65625 253.894531 153.054688 253.472656 152.652344 C 253.191406 152.378906 246.375 145.980469 238.597656 146.570312 C 235.375 146.820312 232.472656 148.210938 229.949219 150.707031 C 228.8125 146.492188 227.992188 137.726562 238.078125 131.941406 C 238.835938 131.511719 239.101562 130.546875 238.671875 129.785156 C 238.558594 129.582031 227.046875 109.578125 208.488281 117.386719 C 202.570312 119.875 199 123.355469 197.882812 127.722656 C 196.570312 132.847656 199.082031 137.625 200.390625 139.660156 C 198.554688 141.890625 192.949219 147.402344 185.242188 143.261719 C 184.640625 142.9375 183.890625 143.039062 183.390625 143.515625 C 175.96875 150.660156 167.699219 150.871094 158.121094 144.15625 C 158.015625 144.085938 157.90625 144.023438 157.792969 143.980469 C 157.121094 143.714844 141.261719 137.546875 132 144.140625 C 127.695312 147.207031 125.582031 152.429688 125.710938 159.671875 C 122.910156 161.265625 112.722656 165.984375 104.308594 156.328125 C 94.679688 145.265625 105.804688 133.15625 106.28125 132.644531 C 106.457031 132.460938 106.585938 132.230469 106.65625 131.984375 C 106.898438 131.101562 112.886719 110.460938 134.53125 115.238281 C 134.964844 115.335938 135.417969 115.242188 135.78125 114.988281 C 136.140625 114.734375 136.382812 114.335938 136.445312 113.898438 C 136.507812 113.433594 138.171875 102.492188 152.828125 97.726562 C 153.300781 97.570312 153.671875 97.203125 153.835938 96.734375 C 153.894531 96.574219 159.753906 80.332031 177.128906 76.855469 C 194.566406 73.375 207.214844 85.320312 207.335938 85.441406 C 207.839844 85.925781 208.597656 86.027344 209.210938 85.691406 C 209.433594 85.566406 231.789062 73.511719 251.742188 87.199219 C 271.671875 100.867188 270.0625 117.695312 269.984375 118.402344 C 269.886719 119.214844 270.425781 119.964844 271.226562 120.136719 C 271.335938 120.160156 282.085938 122.535156 290.40625 129.347656 C 298.390625 135.882812 296.855469 156.246094 296.839844 156.449219 C 296.773438 157.261719 297.335938 157.992188 298.136719 158.140625 C 298.292969 158.167969 313.867188 161.195312 319.566406 176.074219 C 325.304688 191.050781 338.707031 207.4375 369.898438 206.207031 C 370.003906 205.144531 370.09375 204.074219 370.179688 203.003906 C 340.554688 204.273438 327.902344 188.949219 322.53125 174.941406 C 317.175781 160.957031 304.34375 156.46875 300.085938 155.335938 C 300.3125 150.359375 300.449219 133.464844 292.414062 126.886719 C 285.175781 120.960938 276.488281 118.230469 273.214844 117.359375 C 273.28125 112.644531 271.972656 97.222656 253.539062 84.578125 C 234.472656 71.507812 213.523438 80.105469 208.699219 82.398438 C 205.421875 79.597656 193.140625 70.410156 176.503906 73.742188 C 159.328125 77.179688 152.542969 91.457031 151.125 94.945312 C 138.410156 99.359375 134.683594 108.152344 133.65625 111.828125 C 111.949219 108.007812 104.679688 127.761719 103.707031 130.761719 C 101.875 132.894531 91.292969 146.210938 101.914062 158.414062 C 113.421875 171.632812 128.074219 161.964844 128.21875 161.863281 C 128.671875 161.554688 128.9375 161.03125 128.914062 160.480469 C 128.628906 153.890625 130.285156 149.265625 133.835938 146.734375 C 141.242188 141.453125 154.8125 146.261719 156.460938 146.875 C 166.914062 154.128906 176.429688 154.027344 184.765625 146.574219 C 193.777344 150.691406 201.03125 144.554688 203.675781 140.582031 C 204.058594 140.003906 204.027344 139.25 203.601562 138.710938 C 203.558594 138.660156 199.644531 133.648438 200.957031 128.507812 C 201.816406 125.15625 204.765625 122.398438 209.71875 120.316406 C 223.261719 114.617188 232.398438 126.042969 235.09375 130.050781 C 220.96875 139.316406 227.839844 154.320312 227.914062 154.476562 C 228.152344 154.976562 228.632812 155.320312 229.183594 155.375 C 229.746094 155.441406 230.277344 155.199219 230.613281 154.761719 C 232.964844 151.671875 235.726562 149.984375 238.828125 149.738281 C 242.894531 149.414062 246.800781 151.589844 249.121094 153.226562 C 243.183594 155.910156 241.765625 161.292969 241.703125 161.554688 C 241.511719 162.316406 241.910156 163.109375 242.640625 163.40625 C 245.0625 164.402344 246.617188 165.90625 247.402344 167.992188 C 248.582031 171.160156 247.6875 174.960938 246.882812 177.300781 C 239.4375 169.894531 232.050781 170.320312 228.925781 170.957031 C 228.34375 169.777344 227.234375 168.148438 225.195312 166.863281 C 221.554688 164.566406 216.410156 164.195312 209.925781 165.753906 C 204.429688 167.078125 200.652344 169.628906 198.699219 173.34375 C 196.527344 177.460938 197.289062 181.789062 197.792969 183.664062 C 193.992188 188.070312 192.578125 192.382812 193.597656 196.484375 C 195.617188 204.613281 206.523438 208.570312 206.984375 208.734375 C 207.535156 208.929688 208.144531 208.804688 208.578125 208.417969 C 209.011719 208.027344 209.195312 207.433594 209.0625 206.867188 C 208.492188 204.480469 209 202.304688 210.617188 200.21875 C 212.714844 197.519531 215.917969 196.105469 219.425781 196.378906 C 223.238281 196.664062 226.632812 198.828125 228.503906 202.171875 C 233.433594 210.980469 243.046875 210.175781 244.503906 209.992188 C 255.496094 210.523438 261.332031 206.128906 264.070312 202.976562 C 265.957031 208.570312 269.179688 212.796875 273.679688 215.570312 C 282.664062 221.109375 293.144531 218.703125 293.25 218.679688 C 303.109375 216.214844 309.582031 214.324219 313.78125 212.957031 C 312.675781 214.640625 311.960938 216.445312 311.640625 218.367188 C 310.753906 223.664062 313.1875 228.175781 314.199219 229.78125 C 313.71875 232.578125 313.046875 242.222656 325.210938 247.203125 C 328.070312 248.371094 330.644531 248.839844 332.929688 248.839844 C 341.996094 248.839844 346.570312 241.480469 346.625 241.390625 C 346.90625 240.921875 346.929688 240.347656 346.683594 239.859375 C 346.527344 239.539062 342.851562 231.960938 349.632812 228.042969 C 355.351562 224.738281 361.015625 227.328125 365.59375 231.203125 C 365.863281 230.101562 366.125 229 366.375 227.890625 C 359.90625 222.882812 353.769531 221.984375 348.042969 225.292969 " fill-opacity="1" fill-rule="nonzero"/></g><path fill="#ffffff" d="M 59.84375 274.808594 C 56.0625 274.808594 52.203125 274.71875 48.257812 274.53125 C 47.382812 274.492188 46.703125 273.75 46.746094 272.871094 C 46.789062 271.996094 47.550781 271.269531 48.40625 271.359375 C 52.285156 271.539062 56.09375 271.632812 59.8125 271.632812 C 124.019531 271.632812 164.035156 244.832031 167.644531 198.679688 C 170.398438 163.441406 138.027344 145.84375 137.699219 145.667969 C 136.925781 145.257812 136.628906 144.300781 137.039062 143.523438 C 137.453125 142.75 138.410156 142.449219 139.1875 142.863281 C 139.53125 143.042969 173.726562 161.578125 170.808594 198.925781 C 167.058594 246.925781 125.871094 274.808594 59.84375 274.808594 " fill-opacity="1" fill-rule="nonzero"/><g clip-path="url(#d5be508996)"><path fill="#0e5875" d="M 187.464844 370.976562 C 250.160156 370.976562 305.496094 339.496094 338.5625 291.480469 C 328.507812 291.003906 318.945312 288.695312 311.523438 283.257812 C 295.515625 271.53125 280.167969 272.132812 272.226562 280.433594 L 270.632812 275.085938 C 270.632812 275.085938 265.242188 268.804688 255.386719 261.371094 C 245.53125 253.9375 235.304688 257.800781 235.304688 257.800781 C 235.304688 257.800781 224.984375 246.125 214.761719 254.613281 C 214.761719 254.613281 205.929688 245.136719 188.957031 247.714844 C 171.988281 250.300781 170.203125 264 170.203125 264 C 170.203125 264 154.71875 256.949219 147.675781 270.652344 C 140.628906 284.351562 149.558594 289.214844 149.558594 289.214844 C 149.558594 289.214844 144.597656 301.824219 157.695312 306.589844 C 170.796875 311.355469 174.570312 301.328125 174.570312 301.328125 C 174.570312 301.328125 162.164062 302.421875 162.460938 292.691406 C 162.757812 282.960938 177.148438 275.714844 184.988281 288.917969 C 192.828125 302.121094 183.699219 322.675781 160.671875 324.855469 C 137.648438 327.042969 135.664062 324.855469 135.664062 324.855469 C 135.664062 324.855469 142.710938 314.929688 132.984375 308.574219 C 132.984375 308.574219 126.136719 326.945312 106.089844 311.058594 C 86.78125 295.757812 54.105469 271.28125 20.335938 263.277344 C 49.132812 326.859375 113.144531 370.976562 187.464844 370.976562 " fill-opacity="1" fill-rule="nonzero"/></g><path fill="#ffffff" d="M 244.335938 300.335938 C 244.144531 300.335938 243.953125 300.300781 243.765625 300.230469 C 242.945312 299.914062 242.539062 298.992188 242.855469 298.175781 C 243.035156 297.703125 247.214844 286.539062 239.445312 281.839844 C 231.621094 277.105469 224.535156 284.652344 224.464844 284.730469 C 224.125 285.097656 223.640625 285.277344 223.132812 285.238281 C 222.636719 285.183594 222.191406 284.902344 221.933594 284.476562 C 218.308594 278.429688 218.84375 271.5625 223.402344 265.632812 C 229.328125 257.933594 239.9375 254.433594 249.199219 257.109375 C 265.785156 261.910156 274.660156 278.246094 275.027344 278.9375 C 275.441406 279.710938 275.148438 280.671875 274.375 281.085938 C 273.605469 281.5 272.640625 281.207031 272.226562 280.433594 C 272.140625 280.277344 263.59375 264.582031 248.320312 260.164062 C 239.347656 257.570312 230.261719 261.925781 225.921875 267.570312 C 222.644531 271.828125 221.898438 276.648438 223.753906 281.0625 C 227.476562 278.015625 234.230469 274.972656 241.089844 279.121094 C 249.136719 283.984375 247.699219 294.460938 245.816406 299.320312 C 245.574219 299.949219 244.972656 300.335938 244.335938 300.335938 " fill-opacity="1" fill-rule="nonzero"/><path fill="#ffffff" d="M 310.582031 284.539062 C 318.054688 290.015625 327.523438 292.445312 337.46875 293.058594 C 338.203125 292.019531 338.929688 290.976562 339.640625 289.917969 C 329.492188 289.574219 319.839844 287.382812 312.460938 281.976562 C 295.707031 269.699219 278.421875 272.0625 270.003906 280.738281 C 264.203125 286.722656 261.300781 297.359375 270.574219 309.257812 C 270.898438 309.675781 271.394531 309.902344 271.945312 309.863281 C 272.476562 309.820312 272.949219 309.519531 273.207031 309.054688 C 273.238281 309.003906 276.105469 303.996094 280.777344 303.121094 C 283.417969 302.625 286.207031 303.570312 289.078125 305.929688 C 293.851562 309.855469 296.160156 317.230469 294.964844 324.71875 C 294.277344 329.003906 293.222656 333.996094 291.398438 338.675781 C 292.867188 337.660156 294.324219 336.625 295.761719 335.570312 C 296.835938 332.03125 297.578125 328.46875 298.097656 325.21875 C 299.492188 316.503906 296.8125 308.171875 291.09375 303.476562 C 287.460938 300.492188 283.796875 299.320312 280.191406 299.996094 C 276.21875 300.742188 273.359375 303.570312 271.800781 305.535156 C 266.355469 297.4375 266.488281 288.925781 272.285156 282.949219 C 279.742188 275.261719 295.296875 273.339844 310.582031 284.539062 " fill-opacity="1" fill-rule="nonzero"/><path fill="#ffffff" d="M 175.53125 235.339844 C 175.296875 235.339844 175.058594 235.289062 174.835938 235.179688 C 174.050781 234.792969 173.722656 233.839844 174.109375 233.050781 C 197.667969 184.964844 168.144531 151.851562 167.839844 151.523438 C 167.25 150.875 167.292969 149.871094 167.9375 149.277344 C 168.589844 148.683594 169.589844 148.730469 170.179688 149.375 C 170.496094 149.71875 201.5 184.355469 176.960938 234.453125 C 176.683594 235.011719 176.117188 235.339844 175.53125 235.339844 " fill-opacity="1" fill-rule="nonzero"/><path fill="#ffffff" d="M 193.910156 172.859375 C 193.09375 172.859375 192.402344 172.234375 192.328125 171.40625 C 191.167969 157.941406 183.53125 145.632812 183.453125 145.507812 C 182.988281 144.765625 183.210938 143.785156 183.953125 143.316406 C 184.699219 142.851562 185.671875 143.078125 186.144531 143.816406 C 186.472656 144.34375 194.265625 156.882812 195.492188 171.132812 C 195.570312 172.007812 194.917969 172.777344 194.046875 172.851562 C 194 172.855469 193.953125 172.859375 193.910156 172.859375 " fill-opacity="1" fill-rule="nonzero"/><path fill="#ffffff" d="M 226.839844 237.984375 C 226.488281 237.984375 226.136719 237.871094 225.84375 237.632812 C 225.160156 237.082031 225.050781 236.082031 225.605469 235.398438 C 235.992188 222.496094 227.179688 200.277344 227.089844 200.054688 C 226.761719 199.242188 227.148438 198.316406 227.960938 197.984375 C 228.773438 197.65625 229.703125 198.042969 230.03125 198.859375 C 230.429688 199.839844 239.644531 223.027344 228.078125 237.390625 C 227.761719 237.78125 227.304688 237.984375 226.839844 237.984375 " fill-opacity="1" fill-rule="nonzero"/><path fill="#ffffff" d="M 247.382812 246.890625 C 247.023438 246.890625 246.660156 246.769531 246.363281 246.519531 C 245.691406 245.957031 245.601562 244.953125 246.167969 244.28125 C 256.539062 231.933594 247.296875 209.585938 247.207031 209.359375 C 246.867188 208.550781 247.242188 207.617188 248.050781 207.277344 C 248.859375 206.941406 249.792969 207.316406 250.132812 208.125 C 250.546875 209.117188 260.207031 232.503906 248.597656 246.328125 C 248.285156 246.699219 247.835938 246.890625 247.382812 246.890625 " fill-opacity="1" fill-rule="nonzero"/><path fill="#ffffff" d="M 270.5 261.285156 C 270.203125 261.285156 269.902344 261.203125 269.636719 261.027344 C 268.902344 260.546875 268.691406 259.5625 269.171875 258.828125 C 280.582031 241.324219 275.097656 216.082031 275.039062 215.832031 C 274.847656 214.976562 275.386719 214.128906 276.242188 213.933594 C 277.09375 213.738281 277.945312 214.28125 278.140625 215.136719 C 278.382812 216.222656 283.96875 241.949219 271.832031 260.566406 C 271.527344 261.03125 271.019531 261.285156 270.5 261.285156 " fill-opacity="1" fill-rule="nonzero"/><path fill="#ffffff" d="M 300.40625 265.523438 C 300.253906 265.523438 300.089844 265.5 299.929688 265.449219 C 299.09375 265.1875 298.632812 264.296875 298.890625 263.457031 C 307.113281 237.242188 300.679688 217.074219 300.613281 216.875 C 300.339844 216.042969 300.792969 215.144531 301.625 214.867188 C 302.453125 214.589844 303.355469 215.046875 303.628906 215.882812 C 303.910156 216.742188 310.445312 237.230469 301.921875 264.410156 C 301.710938 265.085938 301.082031 265.523438 300.40625 265.523438 " fill-opacity="1" fill-rule="nonzero"/><path fill="#ffffff" d="M 195.871094 248.839844 C 195.59375 248.839844 195.308594 248.769531 195.050781 248.613281 C 194.300781 248.160156 194.058594 247.183594 194.511719 246.429688 C 202.449219 233.285156 198.398438 221.976562 198.355469 221.863281 C 198.050781 221.042969 198.46875 220.128906 199.285156 219.820312 C 200.109375 219.515625 201.019531 219.929688 201.328125 220.746094 C 201.523438 221.261719 206 233.550781 197.230469 248.074219 C 196.933594 248.570312 196.410156 248.839844 195.871094 248.839844 " fill-opacity="1" fill-rule="nonzero"/><path fill="#ffffff" d="M 94.511719 288.132812 C 93.660156 288.132812 92.957031 287.457031 92.925781 286.597656 C 92.894531 285.722656 93.582031 284.988281 94.457031 284.957031 C 94.628906 284.953125 111.734375 284.226562 128.835938 272.195312 C 129.554688 271.691406 130.542969 271.863281 131.050781 272.582031 C 131.554688 273.300781 131.382812 274.289062 130.664062 274.796875 C 112.75 287.394531 95.296875 288.109375 94.5625 288.132812 C 94.546875 288.132812 94.527344 288.132812 94.511719 288.132812 " fill-opacity="1" fill-rule="nonzero"/><path fill="#ffffff" d="M 212.082031 357.917969 C 211.410156 357.917969 210.785156 357.488281 210.570312 356.8125 C 210.300781 355.976562 210.761719 355.082031 211.597656 354.816406 C 235.96875 347.023438 238.464844 318.632812 238.484375 318.347656 C 238.550781 317.472656 239.316406 316.832031 240.191406 316.886719 C 241.066406 316.957031 241.71875 317.722656 241.652344 318.59375 C 241.628906 318.902344 238.945312 349.410156 212.566406 357.84375 C 212.40625 357.894531 212.242188 357.917969 212.082031 357.917969 " fill-opacity="1" fill-rule="nonzero"/><path fill="#ffffff" d="M 142.941406 348.386719 C 142.066406 348.386719 141.359375 347.679688 141.351562 346.804688 C 141.351562 345.929688 142.058594 345.214844 142.9375 345.210938 C 164.144531 345.125 179.9375 339.429688 189.863281 328.289062 C 203.261719 313.25 201.199219 293.167969 201.175781 292.96875 C 201.078125 292.097656 201.707031 291.308594 202.574219 291.210938 C 203.457031 291.109375 204.230469 291.742188 204.328125 292.613281 C 204.429688 293.488281 206.59375 314.25 192.261719 330.371094 C 181.710938 342.238281 165.121094 348.300781 142.949219 348.386719 C 142.945312 348.386719 142.945312 348.386719 142.941406 348.386719 " fill-opacity="1" fill-rule="nonzero"/><path fill="#ffffff" d="M 207.78125 340.265625 C 207.355469 340.265625 206.929688 340.09375 206.617188 339.757812 C 206.019531 339.113281 206.058594 338.109375 206.703125 337.507812 C 218.277344 326.761719 219.417969 310.917969 219.429688 310.753906 C 219.484375 309.882812 220.207031 309.214844 221.117188 309.273438 C 221.992188 309.332031 222.65625 310.085938 222.597656 310.960938 C 222.550781 311.660156 221.355469 328.242188 208.863281 339.839844 C 208.554688 340.125 208.171875 340.265625 207.78125 340.265625 " fill-opacity="1" fill-rule="nonzero"/><path fill="#ffffff" d="M 236.496094 256.753906 C 232.730469 252.496094 223.566406 246.417969 214.859375 252.539062 C 211.949219 250.046875 203.140625 243.945312 188.71875 246.148438 C 174.675781 248.28125 170.320312 257.792969 169.078125 261.898438 C 164.53125 260.4375 152.429688 257.929688 146.261719 269.925781 C 140.179688 281.753906 145.28125 287.800781 147.703125 289.820312 C 147.136719 291.871094 146.347656 296.25 148.25 300.472656 C 149.8125 303.941406 152.808594 306.5 157.152344 308.082031 C 171.554688 313.328125 176.007812 302.003906 176.054688 301.886719 C 176.246094 301.378906 176.160156 300.800781 175.832031 300.371094 C 175.503906 299.929688 174.972656 299.699219 174.429688 299.746094 C 172.839844 299.878906 168.191406 299.742188 165.75 297.4375 C 164.542969 296.296875 163.984375 294.761719 164.046875 292.738281 C 164.175781 288.574219 167.394531 284.742188 171.707031 283.628906 C 176.28125 282.445312 180.621094 284.671875 183.625 289.730469 C 186.957031 295.339844 187.007812 302.503906 183.765625 308.890625 C 179.632812 317.023438 171.164062 322.265625 160.523438 323.277344 C 146.402344 324.617188 140.429688 324.277344 138.039062 323.914062 C 139.011719 321.941406 140.191406 318.636719 139.519531 315.101562 C 138.929688 311.957031 137.019531 309.3125 133.851562 307.246094 C 133.449219 306.984375 132.953125 306.921875 132.492188 307.066406 C 132.035156 307.214844 131.667969 307.566406 131.5 308.015625 C 131.476562 308.078125 129.160156 314.035156 123.601562 315.570312 C 119.042969 316.828125 113.484375 314.890625 107.078125 309.8125 C 83.3125 290.984375 52.066406 268.664062 19.527344 261.355469 C 19.8125 262.121094 20.933594 264.675781 21.179688 265.054688 C 52.234375 272.761719 82.199219 294.152344 105.101562 312.304688 C 112.367188 318.058594 118.878906 320.183594 124.480469 318.621094 C 129.421875 317.246094 132.261719 313.359375 133.574219 311.003906 C 135.113281 312.355469 136.0625 313.917969 136.398438 315.675781 C 137.199219 319.84375 134.394531 323.902344 134.371094 323.9375 C 133.9375 324.546875 133.988281 325.375 134.488281 325.925781 C 135.5 327.035156 139.273438 327.410156 143.917969 327.410156 C 149.367188 327.410156 156.023438 326.894531 160.824219 326.4375 C 172.566406 325.324219 181.960938 319.453125 186.59375 310.328125 C 190.335938 302.96875 190.246094 294.660156 186.351562 288.109375 C 182.628906 281.839844 176.859375 279.015625 170.910156 280.554688 C 165.265625 282.011719 161.042969 287.09375 160.875 292.644531 C 160.78125 295.582031 161.691406 297.96875 163.570312 299.746094 C 165.9375 301.984375 169.347656 302.6875 171.773438 302.886719 C 169.933594 305.105469 165.925781 307.894531 158.238281 305.097656 C 154.738281 303.824219 152.355469 301.839844 151.152344 299.191406 C 149.148438 294.773438 151.015625 289.84375 151.035156 289.796875 C 151.328125 289.058594 151.015625 288.21875 150.328125 287.828125 C 150.023438 287.652344 142.882812 283.433594 149.085938 271.378906 C 155.34375 259.207031 168.96875 265.183594 169.542969 265.445312 C 170.007812 265.652344 170.535156 265.625 170.96875 265.386719 C 171.40625 265.144531 171.707031 264.707031 171.773438 264.210938 C 171.84375 263.695312 173.675781 251.648438 189.199219 249.285156 C 205.050781 246.878906 213.261719 255.339844 213.597656 255.699219 C 214.175781 256.316406 215.125 256.375 215.777344 255.835938 C 224.675781 248.4375 233.734375 258.429688 234.117188 258.855469 C 234.695312 259.511719 235.699219 259.566406 236.355469 258.992188 C 237.011719 258.410156 237.074219 257.40625 236.496094 256.753906 " fill-opacity="1" fill-rule="nonzero"/></svg>