<svg xmlns="http://www.w3.org/2000/svg" xmlns:xlink="http://www.w3.org/1999/xlink" width="500" zoomAndPan="magnify" viewBox="0 0 375 374.999991" height="500" preserveAspectRatio="xMidYMid meet" version="1.0"><defs><clipPath id="750d85cb51"><path d="M 7.816406 143 L 367.066406 143 L 367.066406 183 L 7.816406 183 Z M 7.816406 143 " clip-rule="nonzero"/></clipPath><clipPath id="04fbb3d24f"><path d="M 7.816406 191 L 367.066406 191 L 367.066406 222 L 7.816406 222 Z M 7.816406 191 " clip-rule="nonzero"/></clipPath><clipPath id="60681d7ba9"><path d="M 87 7.066406 L 288 7.066406 L 288 38 L 87 38 Z M 87 7.066406 " clip-rule="nonzero"/></clipPath><clipPath id="45b11b1982"><path d="M 11 229 L 364 229 L 364 367.816406 L 11 367.816406 Z M 11 229 " clip-rule="nonzero"/></clipPath><clipPath id="42bcf988b5"><path d="M 108 349 L 257 349 L 257 367.816406 L 108 367.816406 Z M 108 349 " clip-rule="nonzero"/></clipPath></defs><path fill="#4a8aaf" d="M 75.414062 46.417969 C 61.339844 57.636719 49.035156 70.910156 38.910156 85.789062 L 336.007812 85.789062 C 325.878906 70.910156 313.578125 57.636719 299.507812 46.417969 Z M 75.414062 46.417969 " fill-opacity="1" fill-rule="nonzero"/><path fill="#faba8a" d="M 33.195312 94.734375 C 25.796875 107.105469 19.921875 120.328125 15.691406 134.105469 L 359.222656 134.105469 C 354.992188 120.328125 349.109375 107.105469 341.71875 94.734375 Z M 33.195312 94.734375 " fill-opacity="1" fill-rule="nonzero"/><g clip-path="url(#750d85cb51)"><path fill="#fc9248" d="M 13.195312 143.050781 C 9.949219 155.933594 8.148438 169.144531 7.816406 182.421875 L 367.09375 182.421875 C 366.765625 169.144531 364.960938 155.933594 361.71875 143.050781 Z M 13.195312 143.050781 " fill-opacity="1" fill-rule="nonzero"/></g><g clip-path="url(#04fbb3d24f)"><path fill="#c32929" d="M 7.816406 191.367188 C 8.070312 201.460938 9.171875 211.519531 11.113281 221.433594 L 363.800781 221.433594 C 365.742188 211.519531 366.84375 201.460938 367.09375 191.367188 Z M 7.816406 191.367188 " fill-opacity="1" fill-rule="nonzero"/></g><path fill="#6bb8a6" d="M 15.691406 239.691406 C 19.921875 253.46875 25.804688 266.691406 33.195312 279.0625 L 341.710938 279.0625 C 349.101562 266.691406 354.984375 253.46875 359.214844 239.691406 Z M 15.691406 239.691406 " fill-opacity="1" fill-rule="nonzero"/><g clip-path="url(#60681d7ba9)"><path fill="#34658e" d="M 187.304688 7.207031 C 151.828125 7.238281 117.15625 17.769531 87.65625 37.464844 L 287.257812 37.464844 C 257.714844 17.742188 222.984375 7.207031 187.457031 7.207031 Z M 187.304688 7.207031 " fill-opacity="1" fill-rule="nonzero"/></g><path fill="#4d8079" d="M 38.910156 288.007812 C 49.039062 302.890625 61.339844 316.160156 75.414062 327.378906 L 299.5 327.378906 C 313.570312 316.15625 325.871094 302.890625 336 288.007812 Z M 38.910156 288.007812 " fill-opacity="1" fill-rule="nonzero"/><path fill="#254e48" d="M 87.65625 336.324219 C 117.199219 356.058594 151.929688 366.582031 187.457031 366.582031 C 222.984375 366.582031 257.714844 356.050781 287.257812 336.324219 Z M 87.65625 336.324219 " fill-opacity="1" fill-rule="nonzero"/><path fill="#ffffff" d="M 176.707031 120.871094 C 176.707031 153.304688 150.414062 179.601562 117.972656 179.601562 C 85.527344 179.601562 59.234375 153.3125 59.234375 120.871094 C 59.234375 88.425781 85.527344 62.136719 117.972656 62.136719 C 150.414062 62.136719 176.707031 88.433594 176.707031 120.871094 Z M 176.707031 120.871094 " fill-opacity="1" fill-rule="nonzero"/><g clip-path="url(#45b11b1982)"><path fill="#4a8aaf" d="M 11.667969 229.089844 C 31.175781 310.367188 103.867188 367.671875 187.457031 367.671875 C 271.042969 367.671875 343.738281 310.367188 363.246094 229.089844 Z M 11.667969 229.089844 " fill-opacity="1" fill-rule="nonzero"/></g><path fill="#34658e" d="M 359.664062 241.914062 L 150.109375 267.417969 L 345.625 274.433594 C 351.355469 264.082031 356.058594 253.1875 359.664062 241.914062 Z M 359.664062 241.914062 " fill-opacity="1" fill-rule="nonzero"/><path fill="#34658e" d="M 26.90625 269.992188 C 31.933594 279.703125 37.828125 288.941406 44.519531 297.582031 L 264.316406 298.570312 Z M 26.90625 269.992188 " fill-opacity="1" fill-rule="nonzero"/><g clip-path="url(#42bcf988b5)"><path fill="#34658e" d="M 108.460938 349.496094 C 133.082031 361.457031 160.089844 367.671875 187.457031 367.671875 C 211.125 367.671875 234.5625 363.023438 256.445312 353.988281 Z M 108.460938 349.496094 " fill-opacity="1" fill-rule="nonzero"/></g><path fill="#051d3b" d="M 262.3125 27.386719 C 250.4375 37.429688 248.550781 61.976562 248.550781 61.976562 C 253.078125 56.441406 258.695312 55.191406 258.695312 55.191406 C 250.0625 69.230469 250.980469 83.675781 250.980469 83.675781 C 250.980469 83.675781 265.246094 54.117188 289.433594 45.351562 C 313.621094 36.585938 332.886719 47.074219 332.886719 47.074219 C 317.558594 42.410156 294.171875 53.3125 294.171875 53.3125 C 305.339844 54.320312 314.644531 60.554688 314.644531 60.554688 C 291.085938 56.210938 266.003906 76.445312 266.003906 76.445312 C 277.582031 72.085938 290.277344 72.515625 290.277344 72.515625 C 266.960938 79.90625 257.648438 94.902344 257.648438 94.902344 C 257.648438 94.902344 299.152344 73 334.480469 91.007812 C 334.480469 91.007812 320.53125 90 306.355469 93.949219 L 316.699219 105.707031 C 316.699219 105.707031 304.230469 97.53125 286.890625 99.542969 L 294.835938 110.464844 C 294.835938 110.464844 283.269531 99.226562 258.792969 104.65625 C 270.984375 116.097656 290.964844 142.792969 290.378906 194.613281 L 275.449219 200.238281 C 278.757812 154.890625 263.363281 120.890625 254.902344 105.945312 C 252.882812 107.941406 245.304688 116.644531 248.679688 132.035156 C 248.679688 132.035156 244.9375 125.792969 243.359375 119.773438 C 243.359375 119.773438 227.554688 129.554688 229.949219 148.835938 C 229.949219 148.835938 226.324219 142.894531 225.394531 134.890625 C 214.652344 139.636719 212.839844 151.453125 212.839844 151.453125 C 203.152344 122.042969 247.25 100.554688 247.25 100.554688 C 227.433594 99.667969 202.15625 120.328125 202.15625 120.328125 L 204.695312 108.585938 C 196.539062 110.964844 181.394531 121.539062 181.394531 121.539062 C 195.214844 89.882812 240.300781 88.558594 240.300781 88.558594 C 232.457031 66.921875 237.164062 36.773438 262.3125 27.386719 Z M 262.3125 27.386719 " fill-opacity="1" fill-rule="nonzero"/><path fill="#051d3b" d="M 297.320312 187.296875 C 265.960938 187.296875 236.632812 200.078125 218.96875 221.4375 L 364.902344 221.4375 C 365.515625 218.296875 366.042969 215.144531 366.484375 211.980469 C 348.558594 196.226562 323.527344 187.296875 297.320312 187.296875 C 297.328125 187.296875 297.320312 187.296875 297.320312 187.296875 Z M 297.320312 187.296875 " fill-opacity="1" fill-rule="nonzero"/><path fill="#051d3b" d="M 302.960938 99.011719 C 309.65625 103.589844 311.949219 116.226562 311.949219 116.226562 C 309.304688 113.59375 306.320312 113.25 306.320312 113.25 C 311.546875 120.078125 311.84375 127.617188 311.84375 127.617188 C 311.84375 127.617188 302.859375 113.039062 289.839844 109.78125 C 276.816406 106.523438 267.382812 112.996094 267.382812 112.996094 C 275.085938 109.761719 287.804688 114.164062 287.804688 114.164062 C 282.066406 115.289062 277.566406 119.015625 277.566406 119.015625 C 289.566406 115.503906 303.660156 124.667969 303.660156 124.667969 C 297.414062 123.023438 290.855469 123.925781 290.855469 123.925781 C 303.347656 126.515625 308.980469 133.804688 308.980469 133.804688 C 308.980469 133.804688 286.269531 124.652344 268.902344 135.886719 C 268.902344 135.886719 276.089844 134.617188 283.652344 135.90625 L 278.910156 142.5625 C 278.910156 142.5625 284.941406 137.652344 294.050781 137.769531 L 290.507812 143.859375 C 290.507812 143.859375 295.910156 137.40625 308.902344 138.921875 C 303.183594 145.511719 294.242188 160.425781 297.316406 187.289062 L 305.359375 189.40625 C 301.222656 166.058594 307.394531 147.585938 310.992188 139.382812 C 312.144531 140.3125 316.542969 144.421875 315.613281 152.589844 C 315.613281 152.589844 317.21875 149.152344 317.71875 145.941406 C 317.71875 145.941406 326.441406 150.175781 326.226562 160.3125 C 326.226562 160.3125 327.789062 157.039062 327.847656 152.835938 C 333.671875 154.722656 335.242188 160.757812 335.242188 160.757812 C 338.703125 144.984375 314.667969 136.183594 314.667969 136.183594 C 324.90625 134.667969 339.121094 144.03125 339.121094 144.03125 L 337.183594 138.078125 C 341.539062 138.878906 349.964844 143.558594 349.964844 143.558594 C 341.105469 127.871094 317.636719 129.585938 317.636719 129.585938 C 320.558594 117.933594 316.507812 102.542969 302.960938 99.011719 Z M 302.960938 99.011719 " fill-opacity="1" fill-rule="nonzero"/></svg>