<svg xmlns="http://www.w3.org/2000/svg" xmlns:xlink="http://www.w3.org/1999/xlink" width="500" zoomAndPan="magnify" viewBox="0 0 375 374.999991" height="500" preserveAspectRatio="xMidYMid meet" version="1.0"><defs><clipPath id="1b78821230"><path d="M 230 180 L 366.988281 180 L 366.988281 289 L 230 289 Z M 230 180 " clip-rule="nonzero"/></clipPath><clipPath id="5b22c08afa"><path d="M 260 113 L 366.988281 113 L 366.988281 180 L 260 180 Z M 260 113 " clip-rule="nonzero"/></clipPath><clipPath id="c1d405cf75"><path d="M 11.492188 7.835938 L 349 7.835938 L 349 232 L 11.492188 232 Z M 11.492188 7.835938 " clip-rule="nonzero"/></clipPath><clipPath id="90801177a4"><path d="M 18 157 L 225 157 L 225 362.585938 L 18 362.585938 Z M 18 157 " clip-rule="nonzero"/></clipPath></defs><path fill="#f68915" d="M 252.007812 180.226562 C 248.640625 164.773438 242.050781 156.039062 238.1875 152.042969 C 238.382812 156.757812 238.6875 166.746094 238.578125 180.5625 L 252.007812 180.226562 " fill-opacity="1" fill-rule="nonzero"/><g clip-path="url(#1b78821230)"><path fill="#f68915" d="M 366.960938 183.890625 L 279.859375 181.699219 C 277.886719 199.425781 268.519531 214.464844 268.519531 214.464844 C 276.078125 200.449219 273.113281 189.027344 268.710938 181.417969 L 256.359375 181.105469 C 254.808594 184.929688 253.363281 188.210938 253.363281 188.210938 C 253.050781 185.660156 252.644531 183.265625 252.175781 181.003906 L 238.578125 180.660156 C 238.375 206.441406 236.71875 245.519531 230.175781 288.640625 L 335.75 285.984375 C 355.441406 257.390625 366.980469 222.757812 366.980469 185.429688 C 366.980469 184.914062 366.96875 184.402344 366.960938 183.890625 " fill-opacity="1" fill-rule="nonzero"/></g><path fill="#f68915" d="M 256.761719 180.105469 L 267.734375 179.828125 C 264.082031 174.1875 259.929688 171.046875 259.929688 171.046875 C 259.480469 173.070312 258.125 176.703125 256.761719 180.105469 " fill-opacity="1" fill-rule="nonzero"/><g clip-path="url(#5b22c08afa)"><path fill="#f68915" d="M 311.976562 124.089844 C 304.398438 120.050781 299.347656 124.089844 299.347656 124.089844 C 325.117188 132.675781 327.140625 159.9375 327.140625 159.9375 C 318.546875 141.765625 292.269531 139.742188 292.269531 139.742188 L 297.324219 150.851562 C 289.238281 141.257812 260.941406 139.742188 260.941406 139.742188 C 277.3125 150.5 281.097656 165.660156 280.0625 179.519531 L 366.789062 177.335938 C 365.800781 155.304688 360.796875 134.324219 352.484375 115.097656 L 300.777344 113.796875 C 308.445312 118.164062 311.976562 124.089844 311.976562 124.089844 " fill-opacity="1" fill-rule="nonzero"/></g><path fill="#f68915" d="M 214.585938 361.210938 C 262.078125 354.433594 303.519531 328.90625 331.148438 292.363281 L 230 289.816406 C 226.449219 312.957031 221.484375 337.226562 214.585938 361.210938 " fill-opacity="1" fill-rule="nonzero"/><g clip-path="url(#c1d405cf75)"><path fill="#f68915" d="M 179.078125 183.164062 C 175.542969 185.179688 159.371094 197.300781 159.371094 197.300781 C 153.308594 183.667969 191.207031 147.820312 191.207031 147.820312 C 180.597656 147.316406 167.457031 162.96875 167.457031 162.96875 C 167.457031 157.917969 173.015625 147.316406 173.015625 147.316406 C 161.898438 153.878906 144.71875 188.71875 144.71875 188.71875 C 135.117188 166.5 151.285156 136.714844 151.285156 136.714844 L 136.128906 143.425781 C 156.84375 106.722656 210.410156 117.023438 210.410156 117.023438 C 208.394531 114.535156 205.722656 112.683594 202.722656 111.328125 L 199.648438 111.25 L 202.375 111.179688 C 189.5625 105.589844 170.992188 108.644531 170.992188 108.644531 L 185.648438 101.878906 C 175.039062 95.3125 148.253906 108.644531 148.253906 108.644531 C 162.402344 85.117188 188.175781 83.195312 188.175781 83.195312 L 171.5 81.175781 C 220.011719 50.882812 230.117188 108.644531 230.117188 108.644531 C 229.613281 80.066406 259.425781 72.617188 259.425781 72.617188 L 255.382812 80.671875 C 286.714844 59.972656 301.871094 85.722656 301.871094 85.722656 C 279.132812 76.632812 271.046875 95.3125 271.046875 95.3125 L 285.703125 98.34375 C 274.117188 99.371094 265.550781 104.726562 259.929688 109.734375 L 348.984375 107.492188 C 320.089844 48.484375 259.421875 7.839844 189.242188 7.839844 C 101.160156 7.839844 28.058594 71.859375 13.964844 155.863281 L 98.558594 157.988281 L 13.300781 160.136719 C 12.125 168.398438 11.5 176.84375 11.5 185.429688 C 11.5 199.910156 13.246094 213.980469 16.519531 227.453125 L 180.003906 231.566406 C 171.265625 211.929688 179.078125 183.164062 179.078125 183.164062 " fill-opacity="1" fill-rule="nonzero"/></g><g clip-path="url(#90801177a4)"><path fill="#f68915" d="M 223.03125 157.871094 L 222.035156 158.574219 C 211.921875 161.25 207.882812 192.757812 207.882812 192.757812 L 200.304688 185.6875 C 192.722656 191.242188 200.808594 213.457031 200.808594 213.457031 L 194.742188 205.882812 C 190.910156 209.121094 190.351562 221.820312 190.546875 231.832031 L 198.523438 232.035156 L 190.550781 232.234375 C 190.699219 239.195312 191.207031 244.757812 191.207031 244.757812 C 186.242188 241.722656 182.800781 237.417969 180.4375 232.492188 L 18.988281 236.554688 C 39.855469 306.019531 102.144531 357.554688 177.191406 362.578125 C 200.753906 313.140625 231.773438 231.4375 223.03125 157.871094 " fill-opacity="1" fill-rule="nonzero"/></g></svg>