<svg xmlns="http://www.w3.org/2000/svg" xmlns:xlink="http://www.w3.org/1999/xlink" width="500" zoomAndPan="magnify" viewBox="0 0 375 374.999991" height="500" preserveAspectRatio="xMidYMid meet" version="1.0"><path fill="#2cd3e1" d="M 113.953125 338.714844 C 108.105469 338.714844 103.308594 339.6875 99.109375 341.339844 C 94.238281 343.210938 93.863281 350.035156 98.4375 352.507812 C 124.898438 366.828125 155.1875 375 187.425781 375 C 167.859375 375 158.035156 365.328125 148.589844 356.03125 C 139.59375 347.109375 131.121094 338.714844 113.953125 338.714844 Z M 113.953125 338.714844 " fill-opacity="1" fill-rule="nonzero"/><path fill="#2cd3e1" d="M 113.953125 300.40625 C 133.597656 300.40625 143.34375 310.074219 152.863281 319.371094 C 161.859375 328.21875 170.332031 336.617188 187.5 336.617188 C 204.667969 336.617188 213.140625 328.21875 222.136719 319.371094 C 231.582031 310 241.402344 300.40625 261.046875 300.40625 C 280.6875 300.40625 290.433594 310.074219 299.953125 319.371094 C 302.054688 321.472656 304.152344 323.496094 306.328125 325.445312 C 308.652344 327.46875 312.25 327.46875 314.5 325.371094 C 316.972656 323.046875 319.445312 320.722656 321.847656 318.246094 C 324.996094 314.949219 323.570312 309.550781 319.296875 308.050781 C 309.175781 304.601562 302.355469 297.929688 295.757812 291.410156 C 286.761719 282.5625 278.289062 274.164062 261.121094 274.164062 C 243.953125 274.164062 235.480469 282.5625 226.484375 291.410156 C 216.886719 300.855469 207.140625 310.527344 187.5 310.527344 C 167.859375 310.527344 158.113281 300.855469 148.589844 291.558594 C 139.59375 282.710938 131.121094 274.316406 113.953125 274.316406 C 96.785156 274.316406 88.316406 282.710938 79.316406 291.558594 C 72.722656 298.082031 65.972656 304.753906 55.777344 308.125 C 51.429688 309.550781 50.003906 315.023438 53.230469 318.324219 C 55.628906 320.796875 58.027344 323.121094 60.574219 325.445312 C 62.824219 327.542969 66.421875 327.617188 68.746094 325.519531 C 70.921875 323.570312 73.019531 321.546875 75.121094 319.445312 C 84.566406 310.074219 94.3125 300.40625 113.953125 300.40625 Z M 113.953125 300.40625 " fill-opacity="1" fill-rule="nonzero"/><path fill="#2cd3e1" d="M 261.046875 332.640625 C 272.816406 332.640625 281.0625 336.164062 287.808594 340.964844 C 289.984375 342.464844 292.832031 342.613281 295.007812 341.113281 C 296.582031 339.988281 298.15625 338.863281 299.730469 337.664062 C 302.804688 335.339844 303.105469 330.84375 300.328125 328.21875 C 298.753906 326.71875 297.257812 325.21875 295.683594 323.71875 C 286.683594 314.875 278.214844 306.476562 261.046875 306.476562 C 243.878906 306.476562 235.40625 314.875 226.410156 323.71875 C 216.886719 333.089844 207.140625 342.761719 187.5 342.761719 C 167.859375 342.761719 158.113281 333.089844 148.589844 323.796875 C 139.59375 314.949219 131.121094 306.550781 113.953125 306.550781 C 96.785156 306.550781 88.316406 314.949219 79.316406 323.796875 C 77.820312 325.292969 76.246094 326.792969 74.671875 328.21875 C 71.820312 330.84375 72.195312 335.414062 75.269531 337.664062 C 76.84375 338.863281 78.417969 339.988281 79.992188 341.113281 C 82.167969 342.613281 85.015625 342.539062 87.191406 340.964844 C 93.9375 336.164062 102.183594 332.640625 113.953125 332.640625 C 133.597656 332.640625 143.34375 342.3125 152.863281 351.609375 C 161.859375 360.457031 170.332031 368.851562 187.5 368.851562 C 204.667969 368.851562 213.140625 360.457031 222.136719 351.609375 C 231.582031 342.3125 241.402344 332.640625 261.046875 332.640625 Z M 261.046875 332.640625 " fill-opacity="1" fill-rule="nonzero"/><path fill="#2cd3e1" d="M 334.589844 278.289062 C 314.949219 278.289062 305.203125 268.617188 295.683594 259.320312 C 286.683594 250.476562 278.214844 242.078125 261.046875 242.078125 C 243.878906 242.078125 235.40625 250.476562 226.410156 259.320312 C 216.886719 268.617188 207.140625 278.289062 187.5 278.289062 C 167.859375 278.289062 158.113281 268.617188 148.589844 259.320312 C 139.59375 250.476562 131.121094 242.078125 113.953125 242.078125 C 96.785156 242.078125 88.316406 250.476562 79.316406 259.320312 C 69.871094 268.617188 60.050781 278.289062 40.410156 278.289062 C 38.460938 278.289062 36.660156 278.214844 34.9375 277.988281 C 29.761719 277.464844 26.089844 283.011719 28.9375 287.433594 C 32.085938 292.382812 35.460938 297.257812 39.058594 301.902344 C 40.332031 303.554688 42.433594 304.453125 44.605469 304.304688 C 59 303.027344 66.796875 295.308594 75.046875 287.210938 C 84.492188 277.839844 94.3125 268.242188 113.953125 268.242188 C 133.597656 268.242188 143.34375 277.914062 152.863281 287.210938 C 161.859375 296.054688 170.332031 304.453125 187.5 304.453125 C 204.667969 304.453125 213.140625 296.054688 222.136719 287.210938 C 231.582031 277.839844 241.402344 268.242188 261.046875 268.242188 C 280.6875 268.242188 290.433594 277.914062 299.953125 287.210938 C 308.203125 295.382812 316.074219 303.027344 330.542969 304.304688 C 332.640625 304.453125 334.742188 303.628906 336.089844 301.902344 C 339.6875 297.257812 343.0625 292.457031 346.210938 287.433594 C 348.984375 283.011719 345.386719 277.464844 340.214844 277.988281 C 338.339844 278.140625 336.464844 278.289062 334.589844 278.289062 Z M 334.589844 278.289062 " fill-opacity="1" fill-rule="nonzero"/><path fill="#2cd3e1" d="M 334.589844 246.050781 C 314.949219 246.050781 305.203125 236.378906 295.683594 227.085938 C 286.683594 218.238281 278.214844 209.839844 261.046875 209.839844 C 243.878906 209.839844 235.40625 218.238281 226.410156 227.085938 C 216.886719 236.378906 207.140625 246.050781 187.5 246.050781 C 167.859375 246.050781 158.113281 236.378906 148.589844 227.085938 C 139.59375 218.238281 131.121094 209.839844 113.953125 209.839844 C 96.785156 209.839844 88.316406 218.238281 79.316406 227.085938 C 69.871094 236.378906 60.050781 246.050781 40.410156 246.050781 C 31.5625 246.050781 24.738281 244.101562 19.042969 241.105469 C 14.019531 238.480469 8.398438 243.203125 10.195312 248.601562 C 11.921875 253.546875 13.792969 258.347656 15.894531 263.070312 C 16.34375 264.121094 17.09375 265.019531 18.066406 265.695312 C 23.839844 269.59375 30.8125 272.292969 40.410156 272.292969 C 57.578125 272.292969 66.046875 263.894531 75.046875 255.046875 C 84.492188 245.675781 94.3125 236.082031 113.953125 236.082031 C 133.597656 236.082031 143.34375 245.75 152.863281 255.046875 C 161.859375 263.894531 170.332031 272.292969 187.5 272.292969 C 204.667969 272.292969 213.140625 263.894531 222.136719 255.046875 C 231.582031 245.675781 241.402344 236.082031 261.046875 236.082031 C 280.6875 236.082031 290.433594 245.75 299.953125 255.046875 C 308.953125 263.894531 317.421875 272.292969 334.589844 272.292969 C 344.261719 272.292969 351.160156 269.59375 357.007812 265.695312 C 357.980469 265.019531 358.730469 264.121094 359.179688 263.070312 C 361.28125 258.347656 363.15625 253.546875 364.878906 248.601562 C 366.753906 243.203125 361.128906 238.480469 356.03125 241.105469 C 350.261719 244.027344 343.4375 246.050781 334.589844 246.050781 Z M 334.589844 246.050781 " fill-opacity="1" fill-rule="nonzero"/><path fill="#2cd3e1" d="M 261.046875 338.714844 C 243.878906 338.714844 235.40625 347.109375 226.410156 355.957031 C 216.964844 365.328125 207.140625 374.925781 187.5 374.925781 C 219.738281 374.925781 250.023438 366.753906 276.5625 352.433594 C 281.136719 349.960938 280.761719 343.136719 275.890625 341.261719 C 271.691406 339.6875 266.894531 338.714844 261.046875 338.714844 Z M 261.046875 338.714844 " fill-opacity="1" fill-rule="nonzero"/><path fill="#ffb84c" d="M 166.285156 172.730469 L 124.824219 17.917969 C 123.851562 14.320312 119.878906 12.371094 116.429688 13.792969 C 103.082031 19.265625 90.488281 26.238281 78.867188 34.5625 C 76.320312 36.359375 75.570312 39.882812 77.144531 42.65625 L 154.964844 177.378906 C 158.5625 183.675781 168.15625 179.703125 166.285156 172.730469 Z M 166.285156 172.730469 " fill-opacity="1" fill-rule="nonzero"/><path fill="#ffb84c" d="M 202.71875 171.15625 L 244.550781 15.070312 C 245.375 11.84375 243.578125 8.472656 240.429688 7.570312 C 226.558594 3.523438 212.015625 0.976562 196.945312 0.226562 C 193.421875 0.0742188 190.574219 2.925781 190.574219 6.371094 L 190.574219 169.507812 C 190.574219 176.777344 200.84375 178.128906 202.71875 171.15625 Z M 202.71875 171.15625 " fill-opacity="1" fill-rule="nonzero"/><path fill="#ffb84c" d="M 184.425781 169.507812 L 184.425781 6.371094 C 184.425781 2.847656 181.503906 0 178.054688 0.226562 C 163.058594 0.976562 148.515625 3.523438 134.570312 7.570312 C 131.421875 8.472656 129.546875 11.84375 130.449219 15.070312 L 172.28125 171.15625 C 174.082031 178.128906 184.425781 176.777344 184.425781 169.507812 Z M 184.425781 169.507812 " fill-opacity="1" fill-rule="nonzero"/><path fill="#ffb84c" d="M 338.9375 76.84375 C 330.84375 65.824219 321.546875 55.628906 311.277344 46.632812 C 308.351562 44.007812 303.777344 44.757812 301.753906 48.128906 L 225.359375 180.527344 C 221.761719 186.824219 230.007812 193.121094 235.105469 188.023438 L 338.265625 84.867188 C 340.363281 82.691406 340.738281 79.316406 338.9375 76.84375 Z M 338.9375 76.84375 " fill-opacity="1" fill-rule="nonzero"/><path fill="#ffb84c" d="M 149.566406 180.527344 L 73.171875 48.128906 C 71.222656 44.757812 66.648438 44.007812 63.648438 46.632812 C 53.378906 55.703125 44.15625 65.824219 36.0625 76.84375 C 34.261719 79.316406 34.5625 82.691406 36.734375 84.792969 L 139.894531 187.949219 C 144.992188 193.121094 153.238281 186.75 149.566406 180.527344 Z M 149.566406 180.527344 " fill-opacity="1" fill-rule="nonzero"/><path fill="#ffb84c" d="M 220.035156 177.453125 L 297.855469 42.65625 C 299.429688 39.960938 298.753906 36.433594 296.132812 34.5625 C 284.511719 26.316406 271.917969 19.265625 258.570312 13.792969 C 255.121094 12.371094 251.148438 14.246094 250.175781 17.917969 L 208.714844 172.730469 C 206.84375 179.703125 216.4375 183.675781 220.035156 177.453125 Z M 220.035156 177.453125 " fill-opacity="1" fill-rule="nonzero"/><path fill="#ffb84c" d="M 339.914062 91.988281 L 239.453125 192.371094 C 234.355469 197.472656 240.652344 205.71875 246.953125 202.117188 L 362.628906 135.320312 C 365.179688 133.894531 366.378906 130.824219 365.402344 128.046875 C 361.355469 115.828125 356.03125 104.207031 349.660156 93.261719 C 347.5625 89.738281 342.761719 89.0625 339.914062 91.988281 Z M 339.914062 91.988281 " fill-opacity="1" fill-rule="nonzero"/><path fill="#ffb84c" d="M 86.890625 209.839844 C 88.390625 210.214844 90.039062 210.066406 91.386719 209.316406 C 97.3125 205.941406 104.507812 203.695312 113.953125 203.695312 C 115.679688 203.695312 117.328125 203.769531 118.902344 203.917969 L 13.496094 143.117188 C 9.894531 141.019531 5.246094 143.042969 4.347656 147.167969 C 1.875 158.335938 0.449219 169.882812 0.0742188 181.726562 C 0 184.574219 1.949219 187.125 4.648438 187.800781 Z M 86.890625 209.839844 " fill-opacity="1" fill-rule="nonzero"/><path fill="#ffb84c" d="M 135.472656 192.371094 L 35.085938 91.988281 C 32.238281 89.140625 27.363281 89.738281 25.339844 93.261719 C 18.96875 104.207031 13.644531 115.828125 9.597656 128.046875 C 8.695312 130.824219 9.894531 133.820312 12.371094 135.320312 L 127.972656 202.042969 C 134.269531 205.71875 140.570312 197.472656 135.472656 192.371094 Z M 135.472656 192.371094 " fill-opacity="1" fill-rule="nonzero"/><path fill="#ffb84c" d="M 370.652344 147.089844 C 369.753906 142.96875 365.105469 140.945312 361.503906 143.042969 L 256.097656 203.917969 C 257.671875 203.769531 259.320312 203.695312 261.046875 203.695312 C 270.492188 203.695312 277.613281 205.941406 283.613281 209.316406 C 284.960938 210.066406 286.609375 210.214844 288.109375 209.839844 L 370.351562 187.800781 C 373.125 187.050781 375 184.574219 374.925781 181.726562 C 374.550781 169.882812 373.125 158.335938 370.652344 147.089844 Z M 370.652344 147.089844 " fill-opacity="1" fill-rule="nonzero"/><path fill="#ffb84c" d="M 302.652344 212.316406 C 298.003906 213.515625 296.507812 219.363281 299.878906 222.660156 C 308.875 231.507812 317.347656 239.902344 334.515625 239.902344 C 351.683594 239.902344 360.15625 231.507812 369.152344 222.660156 C 369.675781 222.136719 370.125 221.6875 370.652344 221.160156 C 371.625 220.261719 372.226562 219.0625 372.449219 217.710938 C 373.351562 212.390625 373.949219 206.992188 374.398438 201.519531 C 374.699219 197.246094 370.726562 194.023438 366.601562 195.070312 Z M 302.652344 212.316406 " fill-opacity="1" fill-rule="nonzero"/><path fill="#ffb84c" d="M 0.523438 201.59375 C 0.898438 207.066406 1.574219 212.464844 2.472656 217.789062 C 2.699219 219.0625 3.296875 220.261719 4.273438 221.238281 C 4.796875 221.761719 5.246094 222.210938 5.773438 222.734375 C 14.769531 231.582031 23.242188 239.980469 40.410156 239.980469 C 57.578125 239.980469 66.046875 231.582031 75.046875 222.734375 C 78.417969 219.363281 76.917969 213.589844 72.269531 212.390625 L 8.320312 195.148438 C 4.199219 194.097656 0.226562 197.394531 0.523438 201.59375 Z M 0.523438 201.59375 " fill-opacity="1" fill-rule="nonzero"/></svg>