<svg xmlns="http://www.w3.org/2000/svg" xmlns:xlink="http://www.w3.org/1999/xlink" width="500" zoomAndPan="magnify" viewBox="0 0 375 374.999991" height="500" preserveAspectRatio="xMidYMid meet" version="1.0"><defs><clipPath id="42e62d6b31"><path d="M 3.464844 3.464844 L 371.714844 3.464844 L 371.714844 371.714844 L 3.464844 371.714844 Z M 3.464844 3.464844 " clip-rule="nonzero"/></clipPath><clipPath id="3e446275e3"><path d="M 6 217 L 370 217 L 370 371.714844 L 6 371.714844 Z M 6 217 " clip-rule="nonzero"/></clipPath><clipPath id="3acdb22f39"><path d="M 19 263 L 356 263 L 356 371.714844 L 19 371.714844 Z M 19 263 " clip-rule="nonzero"/></clipPath></defs><g clip-path="url(#42e62d6b31)"><path fill="#f2f2f2" d="M 371.714844 187.589844 C 371.714844 190.601562 371.640625 193.613281 371.492188 196.621094 C 371.34375 199.632812 371.121094 202.636719 370.828125 205.636719 C 370.53125 208.632812 370.164062 211.625 369.71875 214.605469 C 369.277344 217.585938 368.761719 220.554688 368.175781 223.507812 C 367.585938 226.464844 366.925781 229.402344 366.195312 232.328125 C 365.464844 235.25 364.660156 238.152344 363.785156 241.035156 C 362.910156 243.921875 361.964844 246.78125 360.949219 249.617188 C 359.933594 252.457031 358.851562 255.265625 357.699219 258.050781 C 356.542969 260.832031 355.324219 263.585938 354.035156 266.3125 C 352.746094 269.035156 351.390625 271.726562 349.972656 274.382812 C 348.550781 277.042969 347.066406 279.664062 345.519531 282.246094 C 343.96875 284.832031 342.355469 287.378906 340.683594 289.882812 C 339.007812 292.386719 337.273438 294.851562 335.480469 297.269531 C 333.683594 299.691406 331.832031 302.066406 329.917969 304.394531 C 328.007812 306.726562 326.039062 309.007812 324.015625 311.238281 C 321.992188 313.472656 319.914062 315.652344 317.785156 317.785156 C 315.652344 319.914062 313.472656 321.992188 311.238281 324.015625 C 309.007812 326.039062 306.726562 328.007812 304.394531 329.917969 C 302.066406 331.832031 299.691406 333.683594 297.269531 335.480469 C 294.851562 337.273438 292.386719 339.007812 289.882812 340.683594 C 287.378906 342.355469 284.832031 343.96875 282.246094 345.519531 C 279.664062 347.066406 277.042969 348.550781 274.382812 349.972656 C 271.726562 351.394531 269.035156 352.746094 266.3125 354.035156 C 263.585938 355.324219 260.832031 356.542969 258.050781 357.699219 C 255.265625 358.851562 252.457031 359.933594 249.617188 360.949219 C 246.78125 361.964844 243.921875 362.910156 241.035156 363.785156 C 238.152344 364.660156 235.25 365.464844 232.328125 366.195312 C 229.402344 366.925781 226.464844 367.585938 223.507812 368.175781 C 220.554688 368.761719 217.585938 369.277344 214.605469 369.71875 C 211.625 370.164062 208.632812 370.53125 205.636719 370.828125 C 202.636719 371.121094 199.632812 371.34375 196.621094 371.492188 C 193.613281 371.640625 190.601562 371.714844 187.589844 371.714844 C 184.574219 371.714844 181.5625 371.640625 178.554688 371.492188 C 175.542969 371.34375 172.539062 371.121094 169.539062 370.828125 C 166.542969 370.53125 163.550781 370.164062 160.570312 369.71875 C 157.589844 369.277344 154.621094 368.761719 151.667969 368.175781 C 148.710938 367.585938 145.773438 366.925781 142.847656 366.195312 C 139.925781 365.464844 137.023438 364.660156 134.140625 363.785156 C 131.257812 362.910156 128.394531 361.964844 125.558594 360.949219 C 122.722656 359.933594 119.910156 358.851562 117.125 357.699219 C 114.34375 356.542969 111.589844 355.324219 108.863281 354.035156 C 106.140625 352.746094 103.449219 351.394531 100.792969 349.972656 C 98.136719 348.550781 95.515625 347.066406 92.929688 345.519531 C 90.34375 343.96875 87.800781 342.355469 85.292969 340.683594 C 82.789062 339.007812 80.324219 337.273438 77.90625 335.480469 C 75.484375 333.683594 73.109375 331.832031 70.78125 329.917969 C 68.453125 328.007812 66.171875 326.039062 63.9375 324.015625 C 61.703125 321.992188 59.523438 319.914062 57.390625 317.785156 C 55.261719 315.652344 53.183594 313.472656 51.160156 311.238281 C 49.136719 309.007812 47.167969 306.726562 45.257812 304.394531 C 43.347656 302.066406 41.492188 299.691406 39.699219 297.269531 C 37.902344 294.851562 36.167969 292.386719 34.492188 289.882812 C 32.820312 287.378906 31.207031 284.832031 29.660156 282.246094 C 28.109375 279.664062 26.625 277.042969 25.203125 274.382812 C 23.785156 271.726562 22.429688 269.035156 21.140625 266.3125 C 19.851562 263.585938 18.632812 260.832031 17.480469 258.050781 C 16.324219 255.265625 15.242188 252.457031 14.226562 249.617188 C 13.210938 246.78125 12.265625 243.921875 11.390625 241.035156 C 10.515625 238.152344 9.714844 235.25 8.980469 232.328125 C 8.25 229.402344 7.589844 226.464844 7 223.507812 C 6.414062 220.554688 5.898438 217.585938 5.457031 214.605469 C 5.015625 211.625 4.644531 208.632812 4.351562 205.636719 C 4.054688 202.636719 3.832031 199.632812 3.683594 196.621094 C 3.539062 193.613281 3.464844 190.601562 3.464844 187.589844 C 3.464844 184.574219 3.539062 181.5625 3.683594 178.554688 C 3.832031 175.542969 4.054688 172.539062 4.351562 169.539062 C 4.644531 166.542969 5.015625 163.550781 5.457031 160.570312 C 5.898438 157.589844 6.414062 154.621094 7 151.667969 C 7.589844 148.710938 8.25 145.773438 8.980469 142.851562 C 9.714844 139.925781 10.515625 137.023438 11.390625 134.140625 C 12.265625 131.257812 13.210938 128.394531 14.226562 125.558594 C 15.242188 122.722656 16.324219 119.910156 17.480469 117.125 C 18.632812 114.34375 19.851562 111.589844 21.140625 108.863281 C 22.429688 106.140625 23.785156 103.449219 25.203125 100.792969 C 26.625 98.136719 28.109375 95.515625 29.660156 92.929688 C 31.207031 90.34375 32.820312 87.800781 34.492188 85.292969 C 36.167969 82.789062 37.902344 80.324219 39.699219 77.90625 C 41.492188 75.484375 43.347656 73.109375 45.257812 70.78125 C 47.167969 68.453125 49.136719 66.171875 51.160156 63.9375 C 53.183594 61.703125 55.261719 59.523438 57.390625 57.390625 C 59.523438 55.261719 61.703125 53.183594 63.9375 51.160156 C 66.171875 49.136719 68.453125 47.167969 70.78125 45.257812 C 73.109375 43.347656 75.484375 41.492188 77.90625 39.699219 C 80.324219 37.902344 82.789062 36.167969 85.292969 34.492188 C 87.800781 32.820312 90.34375 31.207031 92.929688 29.660156 C 95.515625 28.109375 98.136719 26.625 100.792969 25.203125 C 103.449219 23.785156 106.140625 22.429688 108.863281 21.140625 C 111.589844 19.851562 114.34375 18.632812 117.125 17.480469 C 119.910156 16.324219 122.722656 15.242188 125.558594 14.226562 C 128.394531 13.210938 131.257812 12.265625 134.140625 11.390625 C 137.023438 10.515625 139.925781 9.714844 142.847656 8.980469 C 145.773438 8.25 148.710938 7.589844 151.667969 7 C 154.621094 6.414062 157.589844 5.898438 160.570312 5.457031 C 163.550781 5.015625 166.542969 4.644531 169.539062 4.351562 C 172.539062 4.054688 175.542969 3.832031 178.554688 3.683594 C 181.5625 3.539062 184.574219 3.464844 187.589844 3.464844 C 190.601562 3.464844 193.613281 3.539062 196.621094 3.683594 C 199.632812 3.832031 202.636719 4.054688 205.636719 4.351562 C 208.632812 4.644531 211.625 5.015625 214.605469 5.457031 C 217.585938 5.898438 220.554688 6.414062 223.507812 7 C 226.464844 7.589844 229.402344 8.25 232.328125 8.980469 C 235.25 9.714844 238.152344 10.515625 241.035156 11.390625 C 243.921875 12.265625 246.78125 13.210938 249.617188 14.226562 C 252.457031 15.242188 255.265625 16.324219 258.050781 17.480469 C 260.832031 18.632812 263.585938 19.851562 266.3125 21.140625 C 269.035156 22.429688 271.726562 23.785156 274.382812 25.203125 C 277.042969 26.625 279.664062 28.109375 282.246094 29.660156 C 284.832031 31.207031 287.378906 32.820312 289.882812 34.492188 C 292.386719 36.167969 294.851562 37.902344 297.269531 39.699219 C 299.691406 41.492188 302.066406 43.347656 304.394531 45.257812 C 306.726562 47.167969 309.007812 49.136719 311.238281 51.160156 C 313.472656 53.183594 315.652344 55.261719 317.785156 57.390625 C 319.914062 59.523438 321.992188 61.703125 324.015625 63.9375 C 326.039062 66.171875 328.007812 68.453125 329.917969 70.78125 C 331.832031 73.109375 333.683594 75.484375 335.480469 77.90625 C 337.273438 80.324219 339.007812 82.789062 340.683594 85.292969 C 342.355469 87.800781 343.96875 90.34375 345.515625 92.929688 C 347.066406 95.515625 348.550781 98.136719 349.972656 100.792969 C 351.390625 103.449219 352.746094 106.140625 354.035156 108.863281 C 355.324219 111.589844 356.542969 114.34375 357.699219 117.125 C 358.851562 119.910156 359.933594 122.722656 360.949219 125.558594 C 361.964844 128.394531 362.910156 131.257812 363.785156 134.140625 C 364.660156 137.023438 365.464844 139.925781 366.195312 142.851562 C 366.925781 145.773438 367.585938 148.710938 368.175781 151.667969 C 368.761719 154.621094 369.277344 157.589844 369.71875 160.570312 C 370.164062 163.550781 370.53125 166.542969 370.828125 169.539062 C 371.121094 172.539062 371.34375 175.542969 371.492188 178.554688 C 371.640625 181.5625 371.714844 184.574219 371.714844 187.589844 Z M 371.714844 187.589844 " fill-opacity="1" fill-rule="nonzero"/></g><g clip-path="url(#3e446275e3)"><path fill="#7ccedc" d="M 6.050781 217.507812 C 20.148438 304.96875 96.101562 371.714844 187.589844 371.714844 C 279.074219 371.714844 355.027344 304.96875 369.125 217.507812 Z M 6.050781 217.507812 " fill-opacity="1" fill-rule="nonzero"/></g><g clip-path="url(#3acdb22f39)"><path fill="#fdda7f" d="M 19.863281 263.539062 C 48.632812 327.410156 113.074219 371.714844 187.589844 371.714844 C 262.101562 371.714844 326.546875 327.410156 355.316406 263.539062 Z M 19.863281 263.539062 " fill-opacity="1" fill-rule="nonzero"/></g><path fill="#464e58" d="M 78.265625 217.507812 L 160.832031 51.222656 L 188.453125 111.925781 L 201.683594 93.511719 L 252.894531 217.507812 Z M 78.265625 217.507812 " fill-opacity="1" fill-rule="nonzero"/><path fill="#25313b" d="M 180.972656 217.507812 L 240.238281 104.730469 L 296.914062 217.507812 L 180.972656 217.507812 " fill-opacity="1" fill-rule="nonzero"/><path fill="#50c6cc" d="M 122.855469 143.859375 C 124.296875 143.570312 125.734375 143.285156 126.882812 142.996094 C 126.308594 142.707031 125.734375 142.707031 125.445312 141.84375 C 126.882812 141.558594 128.035156 140.695312 129.472656 140.40625 C 129.1875 140.117188 128.898438 139.832031 128.898438 139.542969 C 130.050781 139.253906 132.0625 138.96875 132.925781 138.390625 C 132.925781 138.105469 132.0625 137.53125 132.0625 137.242188 C 132.0625 137.242188 132.351562 136.953125 132.351562 136.953125 C 133.5 136.667969 134.652344 136.378906 135.804688 135.804688 C 135.515625 135.515625 135.226562 135.226562 134.941406 134.941406 C 136.089844 134.652344 137.242188 134.363281 138.390625 133.789062 C 138.105469 133.5 137.816406 133.214844 137.816406 132.925781 C 138.96875 132.636719 140.117188 132.0625 141.269531 131.777344 C 140.980469 131.488281 140.695312 131.199219 140.40625 130.914062 C 141.558594 130.625 142.707031 130.050781 143.859375 129.761719 C 143.285156 129.472656 142.996094 129.1875 142.996094 128.898438 C 144.144531 128.609375 145.296875 128.324219 146.160156 127.746094 C 145.585938 127.171875 145.007812 127.171875 144.433594 127.171875 C 144.433594 127.171875 144.722656 126.882812 144.722656 126.882812 C 145.296875 126.597656 147.3125 126.023438 147.886719 125.734375 C 147.886719 125.734375 145.871094 125.445312 145.007812 125.160156 C 145.296875 124.871094 145.871094 124.582031 146.160156 124.296875 C 145.007812 124.296875 143.570312 124.296875 142.421875 124.582031 C 142.421875 124.007812 142.707031 123.71875 142.996094 123.144531 C 141.558594 123.144531 140.117188 123.433594 138.96875 123.71875 C 138.96875 123.433594 138.96875 122.855469 139.253906 122.570312 C 137.816406 122.855469 136.378906 123.433594 134.941406 124.007812 C 134.941406 123.71875 134.941406 123.433594 134.941406 123.144531 C 133.5 123.71875 132.0625 124.296875 130.625 125.160156 C 130.625 124.582031 130.625 124.296875 130.625 123.71875 C 128.898438 124.582031 127.460938 125.445312 126.308594 126.597656 C 126.023438 126.308594 126.023438 125.160156 126.023438 124.871094 C 124.296875 125.445312 122.855469 127.460938 121.992188 128.609375 C 121.707031 128.324219 121.417969 128.035156 121.128906 127.746094 C 119.691406 129.1875 118.253906 130.335938 117.390625 132.0625 C 116.816406 131.488281 116.816406 131.199219 116.816406 130.335938 C 115.953125 131.777344 115.089844 133.5 114.515625 134.941406 C 114.226562 134.652344 113.652344 134.652344 113.363281 134.363281 C 112.210938 135.804688 111.636719 137.53125 111.347656 139.253906 C 111.0625 139.253906 110.773438 139.253906 110.484375 138.96875 C 109.621094 140.117188 109.046875 141.558594 109.046875 142.996094 C 108.472656 142.707031 107.898438 142.707031 107.320312 142.421875 C 107.035156 144.144531 107.035156 145.585938 107.609375 147.023438 C 107.609375 147.023438 107.609375 147.023438 107.609375 147.3125 C 107.320312 147.3125 107.035156 147.023438 106.457031 147.023438 C 106.171875 148.175781 106.457031 149.613281 106.746094 150.476562 C 106.746094 150.476562 106.746094 150.476562 106.746094 150.761719 C 106.457031 150.476562 105.882812 150.476562 105.59375 150.476562 C 105.59375 151.625 105.882812 153.929688 106.171875 155.078125 C 105.882812 154.792969 105.308594 154.503906 105.019531 154.503906 C 105.019531 155.941406 105.882812 157.957031 106.171875 159.105469 C 106.171875 159.394531 106.171875 159.394531 106.171875 159.683594 C 107.035156 158.820312 109.046875 157.957031 110.199219 157.09375 C 109.910156 157.09375 109.335938 156.804688 109.046875 156.804688 C 110.199219 156.230469 111.925781 155.367188 112.789062 154.792969 C 112.5 154.503906 112.210938 154.214844 111.636719 153.929688 C 112.789062 153.640625 113.652344 153.351562 114.800781 152.777344 C 114.515625 152.488281 114.226562 152.203125 113.9375 151.914062 C 115.375 151.625 116.816406 151.339844 117.964844 150.761719 C 117.679688 150.476562 117.390625 149.898438 116.816406 149.324219 C 117.964844 149.039062 119.117188 148.460938 119.980469 147.597656 C 119.691406 147.3125 119.691406 147.3125 119.40625 147.023438 C 120.84375 146.734375 121.992188 146.160156 123.433594 145.585938 C 123.144531 144.722656 122.855469 144.433594 122.855469 143.859375 Z M 122.855469 143.859375 " fill-opacity="1" fill-rule="nonzero"/><path fill="#fdda7f" d="M 108.761719 157.957031 L 104.15625 155.078125 C 104.15625 155.078125 83.15625 179.53125 86.894531 217.507812 L 95.238281 217.507812 C 95.238281 217.507812 91.785156 176.945312 108.761719 157.957031 Z M 108.761719 157.957031 " fill-opacity="1" fill-rule="nonzero"/><path fill="#7ccedc" d="M 125.160156 162.269531 C 126.308594 163.132812 127.460938 163.996094 128.609375 164.859375 C 128.324219 164.285156 128.324219 163.710938 128.324219 163.132812 C 129.472656 163.996094 130.914062 164.285156 132.0625 165.148438 C 132.0625 164.859375 132.351562 164.285156 132.351562 163.996094 C 133.5 164.859375 134.652344 166.011719 135.804688 166.300781 C 135.804688 166.011719 135.804688 165.148438 136.089844 164.859375 C 136.089844 164.859375 136.378906 164.859375 136.378906 164.859375 C 137.242188 165.722656 138.390625 166.300781 139.542969 166.875 C 139.542969 166.585938 139.542969 166.011719 139.832031 165.722656 C 139.832031 165.722656 139.832031 165.722656 140.117188 165.722656 C 140.980469 166.300781 142.132812 166.875 143.285156 167.449219 C 143.285156 167.160156 143.285156 166.875 143.285156 166.585938 C 144.433594 167.160156 145.296875 168.023438 146.449219 168.601562 C 146.449219 168.3125 146.449219 167.738281 146.734375 167.449219 C 147.597656 168.023438 148.75 168.601562 149.898438 169.175781 C 149.898438 168.601562 149.898438 168.3125 149.898438 167.738281 C 150.761719 168.3125 151.914062 168.886719 152.777344 169.464844 C 152.777344 168.886719 152.488281 168.3125 152.203125 167.738281 C 152.488281 167.738281 152.488281 167.738281 152.777344 167.738281 C 153.351562 167.738281 155.078125 169.175781 155.652344 169.175781 C 155.652344 169.175781 154.503906 167.449219 154.214844 166.585938 C 154.789062 166.875 155.078125 166.875 155.652344 166.875 C 154.789062 166.011719 153.929688 164.859375 153.066406 164.285156 C 153.351562 163.996094 153.929688 163.996094 154.503906 163.996094 C 153.640625 162.847656 152.488281 161.984375 151.339844 161.121094 C 151.625 160.832031 151.914062 160.546875 152.488281 160.546875 C 151.339844 159.683594 150.1875 158.820312 148.75 158.242188 C 149.035156 157.957031 149.324219 157.667969 149.613281 157.667969 C 148.175781 156.804688 146.734375 156.230469 145.296875 155.652344 C 145.585938 155.367188 145.871094 155.078125 146.160156 154.792969 C 144.433594 153.929688 142.707031 153.640625 140.980469 153.351562 C 140.980469 153.066406 141.84375 152.203125 141.84375 151.914062 C 140.40625 151.050781 137.816406 151.050781 136.378906 151.050781 C 136.378906 150.761719 136.378906 150.1875 136.667969 149.898438 C 134.652344 149.898438 132.925781 149.324219 130.914062 149.898438 C 130.914062 149.039062 131.199219 148.75 131.773438 148.175781 C 130.050781 148.460938 128.324219 149.039062 126.597656 149.324219 C 126.597656 149.039062 126.308594 148.460938 126.308594 148.175781 C 124.582031 148.460938 122.855469 149.039062 121.417969 149.613281 C 121.128906 149.324219 121.128906 149.039062 121.128906 148.75 C 119.691406 149.039062 118.253906 149.324219 117.101562 150.1875 C 116.816406 149.613281 116.527344 149.039062 116.527344 148.460938 C 115.089844 149.324219 113.9375 150.476562 113.074219 151.625 C 113.074219 151.339844 112.789062 150.761719 112.789062 150.476562 C 111.636719 151.050781 110.773438 151.914062 110.199219 153.066406 C 110.199219 152.777344 109.910156 152.203125 109.621094 151.914062 C 108.757812 152.777344 107.035156 154.503906 106.457031 155.367188 C 106.457031 154.792969 106.171875 154.214844 106.171875 154.214844 C 105.019531 155.078125 104.15625 157.09375 103.292969 158.242188 C 103.292969 158.242188 103.003906 158.53125 103.003906 158.53125 C 104.445312 158.53125 106.171875 159.683594 107.609375 159.96875 C 107.609375 159.683594 107.320312 159.105469 107.320312 158.820312 C 108.472656 159.394531 110.199219 159.96875 111.347656 160.546875 C 111.347656 159.96875 111.347656 159.683594 111.347656 159.105469 C 112.210938 159.683594 113.074219 160.257812 114.226562 160.546875 C 114.226562 160.257812 114.226562 159.683594 114.226562 159.394531 C 115.375 160.257812 116.527344 161.121094 117.679688 161.984375 C 117.679688 161.40625 117.964844 160.832031 117.964844 160.257812 C 118.828125 160.832031 119.980469 161.40625 121.128906 161.695312 C 121.128906 161.40625 121.128906 161.121094 121.417969 160.832031 C 122.570312 161.695312 123.71875 162.269531 125.160156 162.847656 C 124.871094 163.132812 124.871094 162.847656 125.160156 162.269531 Z M 125.160156 162.269531 " fill-opacity="1" fill-rule="nonzero"/><path fill="#7ccedc" d="M 85.746094 161.40625 C 85.457031 161.40625 85.457031 161.40625 85.746094 161.40625 C 84.59375 162.269531 83.441406 163.132812 82.292969 163.996094 C 82.578125 163.421875 82.578125 162.847656 82.578125 162.269531 C 81.429688 163.132812 79.992188 163.421875 78.839844 164.285156 C 78.839844 163.996094 78.550781 163.421875 78.550781 163.132812 C 77.402344 163.996094 76.25 165.148438 75.097656 165.4375 C 75.097656 165.148438 75.097656 164.285156 74.8125 163.996094 C 74.8125 163.996094 74.523438 163.996094 74.523438 163.996094 C 73.660156 164.859375 72.511719 165.4375 71.359375 166.011719 C 71.359375 165.722656 71.359375 165.148438 71.070312 164.859375 C 71.070312 164.859375 71.070312 164.859375 70.785156 164.859375 C 69.921875 165.4375 68.769531 166.011719 67.621094 166.585938 C 67.621094 166.300781 67.621094 166.011719 67.621094 165.722656 C 66.46875 166.300781 65.605469 167.160156 64.453125 167.738281 C 64.453125 167.449219 64.453125 166.875 64.167969 166.585938 C 63.304688 167.160156 62.152344 167.738281 61.003906 168.3125 C 61.003906 167.738281 61.003906 167.449219 61.003906 166.875 C 60.140625 167.449219 58.988281 168.023438 58.125 168.601562 C 58.125 168.023438 58.414062 167.449219 58.699219 166.875 C 58.414062 166.875 58.414062 166.875 58.125 166.875 C 57.550781 166.875 55.824219 168.3125 55.25 168.3125 C 55.25 168.3125 56.398438 166.585938 56.6875 165.722656 C 56.113281 166.011719 55.824219 166.011719 55.25 166.011719 C 56.113281 165.148438 56.976562 163.996094 57.835938 163.421875 C 57.550781 163.132812 56.976562 163.132812 56.398438 163.132812 C 57.261719 161.984375 58.414062 161.121094 59.5625 160.257812 C 59.277344 159.96875 58.988281 159.683594 58.414062 159.683594 C 59.5625 158.820312 60.714844 157.957031 62.152344 157.378906 C 61.867188 157.09375 61.578125 156.804688 61.289062 156.804688 C 62.730469 155.941406 64.167969 155.367188 65.605469 154.792969 C 65.316406 154.503906 65.03125 154.214844 64.742188 153.929688 C 66.46875 153.066406 68.195312 152.777344 69.921875 152.488281 C 69.921875 152.203125 69.058594 151.339844 69.058594 151.050781 C 70.496094 150.1875 73.085938 150.1875 74.523438 150.1875 C 74.523438 149.898438 74.523438 149.324219 74.238281 149.039062 C 76.25 149.039062 77.976562 148.460938 79.992188 149.039062 C 79.992188 148.175781 79.703125 147.886719 79.128906 147.3125 C 80.851562 147.597656 82.578125 148.175781 84.304688 148.460938 C 84.304688 148.175781 84.59375 147.597656 84.59375 147.3125 C 86.320312 147.597656 88.046875 148.175781 89.484375 148.75 C 89.773438 148.460938 89.773438 148.175781 89.773438 147.886719 C 91.210938 148.175781 92.648438 148.460938 93.800781 149.324219 C 94.085938 148.75 94.375 148.175781 94.375 147.597656 C 95.8125 148.460938 96.964844 149.613281 97.828125 150.761719 C 97.828125 150.476562 98.113281 149.898438 98.113281 149.613281 C 99.265625 150.1875 100.128906 151.050781 100.703125 152.203125 C 100.703125 151.914062 100.992188 151.339844 101.28125 151.050781 C 102.144531 151.914062 103.867188 153.640625 104.445312 154.503906 C 104.445312 153.929688 104.730469 153.351562 104.730469 153.351562 C 105.882812 154.214844 106.746094 156.230469 107.609375 157.378906 C 107.609375 157.378906 107.898438 157.667969 107.898438 157.667969 C 106.457031 157.667969 104.730469 158.820312 103.292969 159.105469 C 103.292969 158.820312 103.582031 158.242188 103.582031 157.957031 C 102.429688 158.53125 100.703125 159.105469 99.554688 159.683594 C 99.554688 159.105469 99.554688 158.820312 99.554688 158.242188 C 98.691406 158.820312 97.828125 159.394531 96.675781 159.683594 C 96.675781 159.394531 96.675781 158.820312 96.675781 158.53125 C 95.527344 159.394531 94.375 160.257812 93.222656 161.121094 C 93.222656 160.546875 92.9375 159.96875 92.9375 159.394531 C 92.074219 159.96875 90.921875 160.546875 89.773438 160.832031 C 89.773438 160.546875 89.773438 160.257812 89.484375 159.96875 C 88.332031 160.832031 87.183594 161.40625 85.746094 161.984375 C 86.03125 162.269531 85.746094 161.984375 85.746094 161.40625 Z M 85.746094 161.40625 " fill-opacity="1" fill-rule="nonzero"/><path fill="#50c6cc" d="M 118.542969 170.039062 C 119.691406 170.902344 121.128906 171.476562 122.28125 172.054688 C 121.417969 172.054688 121.128906 172.339844 120.554688 172.628906 C 121.707031 173.203125 122.855469 174.355469 124.007812 175.21875 C 123.71875 175.503906 123.433594 175.792969 123.144531 176.082031 C 124.296875 176.65625 126.023438 177.230469 126.882812 178.382812 C 126.597656 178.667969 126.023438 178.957031 125.734375 179.246094 C 125.734375 179.246094 126.023438 179.53125 126.023438 179.53125 C 127.171875 180.109375 128.035156 180.683594 129.1875 181.546875 C 128.898438 181.835938 128.609375 182.121094 128.035156 182.410156 C 129.1875 182.984375 130.050781 183.5625 130.914062 184.421875 C 130.625 184.421875 130.335938 184.710938 130.050781 185 C 131.199219 185.574219 132.0625 186.148438 133.214844 187.011719 C 132.925781 187.300781 132.351562 187.300781 132.0625 187.589844 C 133.214844 188.164062 134.078125 188.738281 134.941406 189.601562 C 134.363281 189.601562 134.078125 189.890625 133.789062 190.175781 C 134.652344 190.753906 135.804688 191.328125 136.667969 191.902344 C 136.089844 192.191406 135.515625 192.191406 134.941406 191.902344 C 134.941406 191.902344 135.226562 192.191406 135.226562 192.191406 C 135.515625 192.765625 137.53125 193.628906 137.816406 194.207031 C 137.816406 194.207031 135.804688 193.917969 134.941406 193.917969 C 135.226562 194.207031 135.515625 194.492188 135.804688 195.070312 C 134.652344 194.78125 133.5 194.492188 132.351562 193.917969 C 132.351562 194.492188 132.351562 194.78125 132.636719 195.355469 C 131.199219 195.070312 130.050781 194.492188 128.898438 193.917969 C 128.898438 194.207031 128.898438 194.78125 128.898438 195.070312 C 127.460938 194.492188 126.308594 193.628906 125.160156 192.765625 C 124.871094 193.054688 124.871094 193.34375 124.871094 193.628906 C 123.433594 192.765625 122.28125 191.902344 121.128906 190.753906 C 121.128906 191.328125 120.84375 191.617188 120.84375 192.191406 C 119.40625 191.039062 118.253906 189.601562 117.390625 188.164062 C 117.101562 188.453125 116.816406 189.316406 116.527344 189.601562 C 115.089844 188.453125 114.226562 186.4375 113.363281 185 C 113.074219 185 112.5 185.285156 112.5 185.574219 C 111.636719 183.847656 110.484375 182.410156 109.910156 180.394531 C 109.335938 180.683594 109.046875 181.257812 108.761719 181.835938 C 108.183594 180.109375 107.898438 178.382812 107.609375 176.65625 C 107.035156 176.65625 106.746094 176.945312 106.457031 176.945312 C 105.882812 175.21875 105.59375 173.492188 105.59375 171.765625 C 105.308594 171.765625 105.019531 171.765625 104.730469 171.765625 C 104.15625 170.328125 104.15625 168.886719 104.445312 167.449219 C 103.867188 167.449219 103.292969 167.449219 102.71875 167.449219 C 103.007812 165.722656 103.292969 164.285156 104.15625 162.847656 C 104.15625 162.847656 104.15625 162.847656 104.15625 162.558594 C 103.867188 162.558594 103.292969 162.558594 103.007812 162.558594 C 103.007812 161.40625 103.582031 160.257812 104.15625 159.105469 C 104.15625 159.105469 104.15625 159.105469 104.15625 158.820312 C 103.582031 158.820312 103.292969 158.820312 103.007812 158.820312 C 103.292969 157.667969 104.15625 155.652344 104.730469 154.503906 C 104.15625 154.503906 103.582031 154.792969 103.582031 154.792969 C 103.867188 153.351562 105.308594 151.625 105.882812 150.476562 C 105.882812 150.1875 105.882812 150.1875 106.171875 149.898438 C 106.746094 151.050781 108.761719 152.203125 109.335938 153.351562 C 109.046875 153.351562 108.472656 153.351562 108.183594 153.351562 C 109.046875 154.214844 110.484375 155.367188 111.347656 156.230469 C 110.773438 156.515625 110.484375 156.515625 110.199219 156.804688 C 111.0625 157.378906 112.210938 157.957031 112.789062 158.820312 C 112.5 159.105469 112.210938 159.105469 111.636719 159.394531 C 113.074219 159.96875 114.226562 160.546875 115.375 161.40625 C 114.800781 161.695312 114.511719 161.984375 113.9375 162.269531 C 115.089844 162.847656 115.953125 163.710938 116.527344 164.574219 C 116.238281 164.574219 115.953125 164.859375 115.953125 165.148438 C 117.101562 165.722656 118.253906 166.585938 119.40625 167.738281 C 119.117188 169.464844 118.828125 169.75 118.542969 170.039062 Z M 118.542969 170.039062 " fill-opacity="1" fill-rule="nonzero"/><path fill="#7ccedc" d="M 93.800781 140.40625 C 92.648438 139.542969 91.5 138.96875 90.347656 138.105469 C 91.210938 138.105469 91.5 138.105469 92.074219 137.53125 C 90.921875 136.667969 90.058594 135.804688 88.910156 134.941406 C 89.195312 134.652344 89.484375 134.363281 89.773438 134.078125 C 88.621094 133.5 86.894531 132.636719 86.320312 131.777344 C 86.605469 131.488281 87.183594 131.199219 87.757812 130.914062 C 87.757812 130.914062 87.46875 130.625 87.46875 130.625 C 86.320312 130.050781 85.457031 129.1875 84.59375 128.609375 C 84.882812 128.324219 85.457031 128.035156 85.746094 128.035156 C 84.882812 127.460938 83.730469 126.597656 82.867188 126.023438 C 83.15625 126.023438 83.441406 125.734375 83.730469 125.445312 C 82.867188 124.871094 81.714844 124.007812 80.851562 123.433594 C 81.140625 123.144531 81.714844 123.144531 82.003906 122.855469 C 81.140625 122.28125 79.992188 121.417969 79.128906 120.554688 C 79.703125 120.554688 79.992188 120.269531 80.277344 119.980469 C 79.414062 119.40625 78.265625 118.542969 77.402344 117.964844 C 77.976562 117.964844 78.550781 117.964844 79.128906 117.964844 C 79.128906 117.964844 78.839844 117.679688 78.839844 117.679688 C 78.550781 117.101562 76.539062 115.953125 76.25 115.664062 C 76.25 115.664062 78.265625 115.953125 79.128906 116.238281 C 78.839844 115.953125 78.550781 115.375 78.265625 115.089844 C 79.414062 115.375 80.566406 115.953125 81.714844 116.527344 C 81.714844 116.238281 81.714844 115.664062 81.714844 115.089844 C 83.15625 115.664062 84.304688 116.238281 85.457031 116.816406 C 85.746094 116.527344 85.746094 115.953125 85.457031 115.664062 C 86.605469 116.527344 88.046875 117.390625 88.910156 118.253906 C 89.195312 117.964844 89.195312 117.679688 89.195312 117.390625 C 90.347656 118.253906 91.5 119.40625 92.648438 120.554688 C 92.9375 120.269531 92.9375 119.691406 93.222656 119.40625 C 94.375 120.554688 95.527344 121.992188 96.390625 123.433594 C 96.675781 123.144531 96.964844 122.28125 97.253906 121.992188 C 98.691406 123.144531 99.265625 125.445312 100.128906 126.882812 C 100.417969 126.882812 100.992188 126.597656 100.992188 126.308594 C 101.855469 128.035156 102.71875 129.761719 103.292969 131.488281 C 103.867188 131.199219 104.15625 130.914062 104.445312 130.050781 C 104.730469 131.777344 105.019531 133.5 105.308594 135.226562 C 105.882812 135.226562 106.171875 135.226562 106.457031 134.941406 C 107.035156 136.667969 107.035156 138.390625 107.035156 140.117188 C 107.320312 140.117188 107.609375 140.117188 107.898438 140.117188 C 108.183594 141.558594 108.472656 142.996094 107.898438 144.433594 C 108.472656 144.433594 109.046875 144.433594 109.621094 144.433594 C 109.335938 146.160156 108.761719 147.597656 107.898438 148.75 C 107.898438 148.75 107.898438 148.75 107.898438 149.039062 C 108.183594 149.039062 108.761719 149.039062 109.046875 149.039062 C 108.761719 150.1875 108.472656 151.339844 107.609375 152.203125 C 107.609375 152.203125 107.609375 152.203125 107.609375 152.488281 C 108.183594 152.488281 108.472656 152.488281 108.761719 152.488281 C 108.183594 153.640625 107.320312 155.652344 106.746094 156.515625 C 107.320312 156.515625 107.898438 156.230469 107.898438 156.230469 C 107.320312 157.667969 105.882812 159.105469 105.308594 160.257812 C 105.308594 160.546875 105.308594 160.546875 105.019531 160.832031 C 104.445312 159.683594 102.71875 158.242188 102.144531 157.09375 C 102.429688 157.09375 103.007812 157.09375 103.292969 157.09375 C 102.429688 156.230469 100.992188 154.792969 100.128906 153.929688 C 100.703125 153.929688 100.992188 153.640625 101.28125 153.640625 C 100.417969 153.066406 99.554688 152.488281 98.691406 151.625 C 98.976562 151.625 99.554688 151.339844 99.839844 151.339844 C 98.691406 150.761719 97.253906 149.898438 96.390625 149.039062 C 96.964844 148.75 97.253906 148.460938 97.828125 148.175781 C 96.964844 147.597656 96.101562 146.734375 95.527344 145.585938 C 95.8125 145.585938 96.101562 145.296875 96.101562 145.007812 C 94.949219 144.144531 93.800781 143.285156 92.9375 142.421875 C 93.222656 140.980469 93.511719 140.695312 93.800781 140.40625 Z M 93.800781 140.40625 " fill-opacity="1" fill-rule="nonzero"/><path fill="#f37c5a" d="M 263.539062 291.734375 C 256.921875 284.542969 248.003906 283.679688 242.539062 284.253906 C 238.222656 284.542969 234.195312 286.84375 231.605469 290.296875 C 226.140625 298.351562 231.03125 308.421875 234.484375 313.886719 C 235.921875 315.902344 237.648438 317.914062 239.375 319.640625 C 243.113281 322.804688 251.167969 331.148438 254.621094 347.257812 C 259.222656 368.546875 267.855469 368.546875 275.625 365.960938 C 285.40625 362.507812 288.570312 353.300781 284.542969 344.957031 C 280.515625 336.613281 276.484375 319.066406 276.484375 319.066406 C 276.484375 319.066406 273.898438 302.953125 263.539062 291.734375 Z M 263.539062 291.734375 " fill-opacity="1" fill-rule="nonzero"/><path fill="#464e58" d="M 274.183594 318.488281 C 271.882812 314.175781 268.144531 309.285156 262.101562 305.542969 C 254.332031 300.652344 247.714844 300.363281 245.128906 300.652344 C 244.265625 300.652344 243.113281 301.226562 242.539062 301.804688 C 239.949219 305.253906 238.796875 314.175781 239.949219 322.230469 C 241.101562 328.269531 244.550781 334.023438 247.714844 338.054688 C 249.441406 340.355469 250.882812 342.367188 251.746094 343.230469 C 253.757812 346.109375 259.222656 349.273438 261.8125 349.5625 C 264.402344 349.847656 264.976562 346.394531 257.5 342.367188 C 249.730469 338.339844 247.140625 332.011719 247.140625 332.011719 C 247.140625 331.4375 246.855469 330.859375 246.855469 330.285156 C 245.128906 321.65625 245.992188 306.40625 245.992188 306.40625 C 249.730469 304.96875 267.566406 313.886719 271.308594 317.625 C 271.59375 317.914062 272.171875 318.488281 272.457031 319.066406 C 275.046875 323.09375 274.183594 329.421875 273.320312 335.175781 C 272.457031 341.503906 275.335938 342.082031 275.335938 342.082031 C 277.925781 341.503906 278.5 337.191406 278.5 333.164062 C 278.5 330.285156 277.925781 327.410156 277.0625 324.820312 C 276.199219 322.515625 275.335938 320.503906 274.183594 318.488281 Z M 274.183594 318.488281 " fill-opacity="1" fill-rule="nonzero"/><path fill="#25313b" d="M 272.171875 319.066406 C 274.761719 323.09375 273.898438 329.421875 273.035156 335.175781 C 272.171875 341.503906 275.046875 342.082031 275.046875 342.082031 C 277.636719 341.503906 278.210938 337.191406 278.210938 333.164062 C 278.210938 330.285156 277.636719 327.410156 276.773438 324.820312 C 275.046875 321.65625 273.320312 319.929688 272.171875 319.066406 Z M 272.171875 319.066406 " fill-opacity="1" fill-rule="nonzero"/><path fill="#25313b" d="M 257.210938 342.367188 C 249.441406 338.339844 246.855469 332.011719 246.855469 332.011719 C 246.855469 331.4375 246.566406 330.859375 246.566406 330.285156 C 246.566406 332.011719 246.566406 334.3125 247.714844 337.765625 C 249.441406 340.066406 250.882812 342.082031 251.746094 342.945312 C 253.757812 345.820312 259.222656 348.984375 261.8125 349.273438 C 264.402344 349.847656 264.976562 346.683594 257.210938 342.367188 Z M 257.210938 342.367188 " fill-opacity="1" fill-rule="nonzero"/><path fill="#f37c5a" d="M 188.453125 285.117188 C 191.902344 275.910156 199.671875 271.59375 204.851562 269.871094 C 208.878906 268.429688 213.480469 269.007812 217.222656 271.308594 C 225.277344 276.484375 224.988281 287.707031 223.839844 294.324219 C 223.261719 296.914062 222.6875 299.214844 221.535156 301.515625 C 219.234375 305.832031 215.207031 316.761719 218.371094 332.875 C 222.398438 354.453125 214.34375 357.617188 206.289062 358.191406 C 195.929688 358.765625 189.316406 351.574219 189.890625 342.367188 C 190.464844 333.164062 187.300781 315.324219 187.300781 315.324219 C 187.300781 315.324219 183.273438 299.214844 188.453125 285.117188 Z M 188.453125 285.117188 " fill-opacity="1" fill-rule="nonzero"/><path fill="#464e58" d="M 189.027344 313.597656 C 189.601562 308.707031 191.039062 302.667969 195.070312 296.914062 C 200.246094 289.433594 206.289062 286.554688 208.878906 285.691406 C 209.742188 285.40625 210.890625 285.40625 211.753906 285.980469 C 215.496094 287.992188 220.097656 296.050781 222.113281 303.816406 C 223.550781 309.570312 222.398438 316.476562 221.25 321.367188 C 220.671875 324.242188 219.808594 326.546875 219.523438 327.695312 C 218.945312 330.859375 215.207031 336.328125 212.90625 337.476562 C 210.605469 338.628906 208.589844 336.039062 214.054688 329.132812 C 219.523438 322.230469 219.523438 315.613281 219.523438 315.613281 C 219.523438 315.039062 219.234375 314.460938 219.234375 313.886719 C 217.507812 305.253906 210.605469 291.445312 210.605469 291.445312 C 206.863281 291.734375 193.628906 306.695312 191.617188 311.585938 C 191.328125 312.160156 191.328125 312.734375 191.039062 313.3125 C 190.175781 317.914062 193.34375 323.667969 196.507812 328.558594 C 199.960938 334.023438 197.371094 335.75 197.371094 335.75 C 194.78125 336.328125 192.480469 332.585938 191.039062 328.558594 C 189.890625 325.96875 189.316406 323.09375 189.027344 320.214844 C 188.738281 317.914062 188.738281 315.902344 189.027344 313.597656 Z M 189.027344 313.597656 " fill-opacity="1" fill-rule="nonzero"/><path fill="#25313b" d="M 191.039062 313.3125 C 190.175781 317.914062 193.34375 323.667969 196.507812 328.558594 C 199.960938 334.023438 197.371094 335.75 197.371094 335.75 C 194.78125 336.328125 192.480469 332.585938 191.039062 328.558594 C 189.890625 325.96875 189.316406 323.09375 189.027344 320.214844 C 189.601562 316.761719 190.464844 314.460938 191.039062 313.3125 Z M 191.039062 313.3125 " fill-opacity="1" fill-rule="nonzero"/><path fill="#25313b" d="M 213.769531 329.132812 C 219.234375 322.230469 219.234375 315.613281 219.234375 315.613281 C 219.234375 315.039062 218.945312 314.460938 218.945312 313.886719 C 219.523438 315.324219 220.386719 317.625 220.960938 321.367188 C 220.386719 324.242188 219.523438 326.546875 219.234375 327.695312 C 218.660156 330.859375 214.917969 336.328125 212.617188 337.476562 C 210.316406 338.628906 208.300781 336.039062 213.769531 329.132812 Z M 213.769531 329.132812 " fill-opacity="1" fill-rule="nonzero"/></svg>