<svg xmlns="http://www.w3.org/2000/svg" xmlns:xlink="http://www.w3.org/1999/xlink" width="500" zoomAndPan="magnify" viewBox="0 0 375 374.999991" height="500" preserveAspectRatio="xMidYMid meet" version="1.0"><defs><clipPath id="de31198fd7"><path d="M 8.878906 8.878906 L 365.878906 8.878906 L 365.878906 262 L 8.878906 262 Z M 8.878906 8.878906 " clip-rule="nonzero"/></clipPath><clipPath id="0edc17ffcf"><path d="M 122 346 L 253 346 L 253 365.878906 L 122 365.878906 Z M 122 346 " clip-rule="nonzero"/></clipPath></defs><path fill="#99feff" d="M 291.1875 321.746094 C 291.128906 321.777344 291.03125 321.828125 291.03125 321.828125 C 284.988281 325.425781 277.972656 327.328125 270.738281 327.328125 C 263.46875 327.328125 256.414062 325.410156 250.347656 321.785156 C 244.0625 318.050781 236.78125 316.074219 229.285156 316.074219 C 221.785156 316.074219 214.519531 318.050781 208.253906 321.785156 C 202.171875 325.410156 195.117188 327.3125 187.863281 327.3125 C 180.609375 327.3125 173.558594 325.410156 167.492188 321.785156 C 161.246094 318.074219 153.96875 316.113281 146.457031 316.113281 C 139.132812 316.113281 132.011719 317.988281 125.851562 321.53125 C 125.707031 321.625 125.546875 321.683594 125.378906 321.746094 C 119.328125 325.351562 112.171875 327.296875 104.859375 327.296875 C 97.613281 327.296875 90.585938 325.394531 84.527344 321.785156 C 78.4375 318.15625 71.335938 316.210938 63.976562 316.128906 C 79.328125 330.855469 96.929688 342.59375 116.347656 351.0625 C 118.734375 350.273438 120.953125 349.277344 122.933594 348.097656 C 123.113281 347.953125 123.449219 347.792969 123.835938 347.671875 C 130.503906 343.832031 138.382812 341.773438 146.46875 341.773438 C 154.8125 341.773438 162.894531 343.960938 169.855469 348.097656 C 175.226562 351.292969 181.445312 352.980469 187.863281 352.980469 C 194.277344 352.980469 200.511719 351.292969 205.882812 348.097656 C 212.863281 343.933594 220.953125 341.742188 229.285156 341.742188 C 237.617188 341.742188 245.722656 343.933594 252.710938 348.097656 C 254.527344 349.179688 256.578125 350.128906 258.832031 350.910156 C 278.113281 342.457031 295.597656 330.769531 310.835938 316.148438 C 303.996094 316.371094 297.394531 318.234375 291.660156 321.53125 C 291.5 321.625 291.347656 321.683594 291.1875 321.746094 Z M 291.1875 321.746094 " fill-opacity="1" fill-rule="nonzero"/><path fill="#6e6d6d" d="M 63.488281 250.914062 C 71.824219 250.914062 79.914062 253.113281 86.890625 257.261719 C 92.261719 260.464844 98.480469 262.152344 104.90625 262.144531 C 111.328125 262.144531 117.5625 260.464844 122.933594 257.261719 C 123.167969 257.105469 123.492188 256.953125 123.835938 256.835938 C 130.503906 253.011719 138.363281 250.960938 146.441406 250.960938 C 149.945312 250.960938 153.417969 251.347656 156.804688 252.117188 C 128.070312 216.320312 54.566406 212.390625 23.878906 212.390625 C 17.914062 212.390625 13.378906 212.535156 10.769531 212.640625 C 13.203125 229.71875 18.089844 246.285156 25.308594 261.917969 C 30.660156 261.4375 35.753906 259.839844 40.070312 257.261719 C 47.050781 253.113281 55.148438 250.914062 63.488281 250.914062 Z M 63.488281 250.914062 " fill-opacity="1" fill-rule="nonzero"/><path fill="#f98404" d="M 205.882812 257.261719 C 212.863281 253.113281 220.953125 250.914062 229.285156 250.914062 C 237.617188 250.914062 245.722656 253.113281 252.710938 257.261719 C 258.070312 260.464844 264.296875 262.152344 270.714844 262.152344 C 277.136719 262.152344 283.375 260.464844 288.742188 257.261719 C 289.121094 257.066406 289.367188 256.953125 289.578125 256.859375 C 296.285156 253.011719 304.160156 250.960938 312.242188 250.960938 C 317.601562 250.960938 322.8125 251.84375 327.769531 253.589844 C 327.769531 253.484375 327.777344 253.363281 327.777344 253.257812 C 327.777344 212.851562 294.902344 179.976562 254.496094 179.976562 C 214.09375 179.976562 181.21875 212.851562 181.21875 253.257812 C 181.21875 255.902344 181.382812 258.683594 181.703125 261.542969 C 183.789062 261.910156 185.902344 262.082031 188.003906 262.082031 C 194.410156 262.082031 200.589844 260.417969 205.882812 257.261719 Z M 205.882812 257.261719 " fill-opacity="1" fill-rule="nonzero"/><g clip-path="url(#de31198fd7)"><path fill="#ffa559" d="M 187.421875 8.898438 C 89.003906 8.898438 8.945312 88.96875 8.945312 187.382812 C 8.945312 194.105469 9.339844 200.863281 10.175781 208.03125 C 13.15625 207.886719 18.554688 207.683594 25.6875 207.683594 C 35.410156 207.683594 50.429688 208.078125 66.835938 209.980469 C 115.351562 187.71875 134.90625 121.457031 137.359375 112.476562 C 136.9375 111.59375 136.175781 110.074219 135.035156 108.144531 C 134.167969 107.6875 132.296875 106.84375 130.136719 106.84375 C 128.570312 106.84375 127.136719 107.289062 125.867188 108.171875 C 125.476562 108.445312 125.023438 108.582031 124.542969 108.582031 C 123.789062 108.582031 123.078125 108.21875 122.652344 107.59375 C 121.925781 106.5625 122.1875 105.117188 123.230469 104.386719 C 125.289062 102.941406 127.597656 102.226562 130.09375 102.226562 C 130.410156 102.226562 130.738281 102.226562 131.066406 102.257812 C 130.136719 101.039062 129.152344 99.871094 128.125 98.730469 C 127.296875 98.464844 125.546875 98.007812 123.5625 98.007812 C 120.429688 98.007812 118.003906 99.125 116.363281 101.320312 C 115.933594 101.902344 115.246094 102.242188 114.523438 102.242188 C 114.023438 102.242188 113.535156 102.089844 113.140625 101.785156 C 112.636719 101.421875 112.316406 100.890625 112.226562 100.265625 C 112.140625 99.65625 112.304688 99.050781 112.664062 98.546875 C 114.980469 95.453125 118.339844 93.695312 122.421875 93.421875 C 121.117188 92.433594 119.769531 91.535156 118.402344 90.769531 C 116.324219 90.898438 108.660156 91.789062 106.652344 98.046875 C 106.34375 99.011719 105.460938 99.65625 104.449219 99.65625 C 104.210938 99.65625 103.984375 99.621094 103.753906 99.550781 C 102.53125 99.15625 101.855469 97.847656 102.25 96.640625 C 103.808594 91.773438 107.375 89.148438 110.78125 87.75 C 109.101562 87.386719 107.253906 87.203125 105.167969 87.1875 C 103.574219 87.582031 97.652344 89.515625 96.609375 97.195312 C 96.457031 98.335938 95.484375 99.195312 94.328125 99.195312 C 94.273438 99.195312 94.035156 99.179688 93.984375 99.171875 C 92.75 99.003906 91.867188 97.839844 92.03125 96.570312 C 92.425781 93.664062 93.402344 91.125 94.921875 88.980469 C 93.597656 89.421875 92.335938 89.941406 91.089844 90.519531 C 90.738281 90.769531 86.636719 93.832031 87.304688 101.101562 C 87.425781 102.363281 86.484375 103.496094 85.222656 103.609375 C 85.203125 103.609375 85.203125 103.609375 85.203125 103.609375 C 83.796875 103.609375 82.816406 102.714844 82.710938 101.527344 C 82.5 99.292969 82.632812 97.179688 83.105469 95.21875 C 81.433594 96.371094 79.882812 97.542969 78.40625 98.746094 C 78 99.09375 77.472656 99.277344 76.933594 99.277344 C 76.246094 99.277344 75.59375 98.980469 75.15625 98.441406 C 74.347656 97.460938 74.484375 96.007812 75.464844 95.1875 C 79.851562 91.558594 84.339844 88.640625 88.777344 86.519531 C 88.824219 86.496094 89.082031 86.351562 89.125 86.34375 C 94.425781 83.859375 99.757812 82.574219 104.941406 82.566406 C 105.125 82.519531 105.230469 82.503906 105.351562 82.503906 C 105.574219 82.503906 105.808594 82.535156 106.050781 82.617188 C 108.316406 82.640625 110.394531 82.898438 112.339844 83.371094 C 114.917969 83.996094 117.488281 85 120.011719 86.34375 C 122.097656 87.453125 124.035156 88.753906 125.820312 90.152344 C 125.800781 90.070312 125.789062 89.984375 125.777344 89.894531 C 125.714844 89.285156 125.898438 88.679688 126.28125 88.207031 C 126.671875 87.71875 127.226562 87.433594 127.839844 87.371094 C 128.269531 87.324219 128.6875 87.300781 129.089844 87.300781 C 130.199219 87.300781 131.292969 87.460938 132.335938 87.78125 C 131.933594 86.722656 131.507812 85.699219 131.058594 84.710938 C 130.277344 83.917969 127.355469 81.226562 124.070312 81.226562 C 122.640625 81.226562 121.289062 81.742188 120.035156 82.761719 C 119.632812 83.097656 119.113281 83.28125 118.578125 83.28125 C 117.882812 83.28125 117.230469 82.976562 116.789062 82.4375 C 115.984375 81.449219 116.128906 79.996094 117.117188 79.1875 C 119.207031 77.472656 121.53125 76.605469 124.011719 76.605469 C 124.921875 76.605469 125.859375 76.726562 126.792969 76.953125 C 125.777344 75.464844 124.667969 74.058594 123.511719 72.773438 C 122.726562 72.332031 119.257812 70.398438 115.558594 70.398438 C 112.664062 70.398438 110.324219 71.617188 108.609375 74.019531 C 108.175781 74.621094 107.46875 74.976562 106.726562 74.976562 C 106.242188 74.976562 105.777344 74.824219 105.382812 74.550781 C 104.339844 73.800781 104.105469 72.363281 104.851562 71.320312 C 107.226562 68.027344 110.515625 66.15625 114.4375 65.855469 C 112.308594 64.804688 110.039062 64 107.65625 63.472656 C 105.503906 63.9375 99.195312 65.898438 96.59375 73.0625 C 96.277344 73.972656 95.398438 74.582031 94.4375 74.582031 C 94.160156 74.582031 93.886719 74.535156 93.644531 74.4375 C 93.066406 74.230469 92.597656 73.816406 92.335938 73.25 C 92.078125 72.695312 92.046875 72.066406 92.261719 71.488281 C 93.546875 67.921875 95.742188 64.925781 98.691406 62.675781 C 95.339844 62.796875 91.789062 63.320312 88.109375 64.25 C 87.925781 64.292969 87.730469 64.316406 87.53125 64.316406 C 86.476562 64.316406 85.5625 63.601562 85.300781 62.570312 C 85.148438 61.976562 85.234375 61.351562 85.550781 60.820312 C 85.875 60.289062 86.375 59.921875 86.976562 59.769531 C 91.515625 58.625 95.894531 58.042969 100.007812 58.042969 C 102.769531 58.042969 105.460938 58.296875 108.011719 58.820312 C 108.03125 58.8125 108.042969 58.8125 108.074219 58.8125 C 108.226562 58.8125 108.515625 58.875 108.785156 58.996094 C 113.542969 60.023438 117.980469 62.035156 121.824219 64.941406 C 128.832031 70.246094 133.4375 77.835938 136.441406 85.410156 C 136.867188 84.753906 137.589844 84.351562 138.382812 84.351562 C 138.667969 84.351562 138.960938 84.40625 139.234375 84.511719 C 140.59375 85.042969 141.839844 85.867188 142.949219 86.9375 C 143.042969 85.589844 143.097656 84.269531 143.121094 82.96875 C 142.226562 81.515625 139.960938 78.597656 135.941406 78.597656 C 134.613281 78.597656 133.578125 77.570312 133.566406 76.300781 C 133.558594 75.691406 133.804688 75.113281 134.230469 74.664062 C 134.671875 74.230469 135.246094 73.988281 135.855469 73.972656 C 138.441406 73.972656 140.769531 74.703125 142.820312 76.101562 C 142.644531 74.308594 142.378906 72.589844 142.046875 70.964844 C 141.085938 69.835938 138.191406 66.933594 133.730469 66.933594 C 132.792969 66.933594 131.820312 67.070312 130.835938 67.328125 C 130.648438 67.375 130.460938 67.398438 130.257812 67.398438 C 129.210938 67.398438 128.285156 66.691406 128.023438 65.664062 C 127.707031 64.433594 128.449219 63.175781 129.683594 62.84375 C 131.03125 62.5 132.371094 62.324219 133.679688 62.324219 C 135.8125 62.324219 137.863281 62.78125 139.808594 63.664062 C 139.15625 62.136719 138.414062 60.652344 137.554688 59.222656 C 136.175781 58.296875 132.054688 55.773438 127.515625 55.773438 C 125.988281 55.773438 124.527344 56.070312 123.1875 56.640625 C 122.902344 56.761719 122.597656 56.828125 122.285156 56.828125 C 121.347656 56.828125 120.515625 56.273438 120.148438 55.421875 C 119.65625 54.25 120.210938 52.882812 121.371094 52.386719 C 123.308594 51.558594 125.386719 51.132812 127.546875 51.132812 C 128.695312 51.132812 129.875 51.253906 131.066406 51.5 C 128.773438 49.507812 126.140625 47.804688 123.230469 46.40625 C 122.078125 45.84375 121.59375 44.472656 122.140625 43.316406 C 122.519531 42.527344 123.339844 42.011719 124.222656 42.011719 C 124.574219 42.011719 124.90625 42.085938 125.226562 42.238281 C 132.070312 45.523438 137.445312 50.246094 141.207031 56.28125 C 141.359375 56.394531 141.558594 56.730469 141.664062 57.125 C 143.75 60.554688 145.359375 64.644531 146.367188 69.078125 C 146.609375 69.527344 146.683594 69.960938 146.640625 70.398438 C 147.351562 73.988281 147.71875 77.851562 147.726562 81.894531 C 147.871094 82.351562 147.851562 82.832031 147.710938 83.265625 C 147.652344 86.671875 147.351562 90.214844 146.828125 93.800781 C 146.882812 93.941406 146.871094 94.167969 146.820312 94.425781 C 146.957031 94.199219 147.132812 93.984375 147.347656 93.816406 C 149.363281 90.898438 151.503906 88.160156 153.742188 85.683594 C 153.9375 85.210938 154.273438 84.832031 154.710938 84.59375 C 157.457031 81.660156 160.332031 79.097656 163.273438 76.960938 C 163.578125 76.550781 164.003906 76.253906 164.492188 76.101562 C 168.230469 73.5625 172.183594 71.667969 176.230469 70.492188 C 176.414062 70.371094 176.777344 70.261719 177.140625 70.261719 C 180.015625 69.457031 183.210938 69.03125 186.378906 69.03125 C 190.234375 69.03125 194.1875 69.65625 198.144531 70.878906 C 199.355469 71.257812 200.042969 72.558594 199.660156 73.761719 C 199.355469 74.734375 198.476562 75.394531 197.457031 75.394531 C 197.230469 75.394531 196.992188 75.355469 196.773438 75.28125 C 193.6875 74.339844 190.597656 73.792969 187.574219 73.675781 C 190.5625 75.523438 192.742188 77.957031 194.066406 80.9375 C 194.582031 82.09375 194.050781 83.460938 192.894531 83.988281 C 192.589844 84.117188 192.273438 84.183594 191.953125 84.183594 C 191.042969 84.183594 190.21875 83.644531 189.839844 82.816406 C 187.199219 76.863281 180.007812 75.296875 177.578125 74.933594 C 175.96875 75.394531 174.40625 75.972656 172.882812 76.664062 C 175.53125 77.546875 178.539062 79.339844 180.859375 82.945312 C 181.542969 84.007812 181.230469 85.453125 180.152344 86.132812 C 179.789062 86.382812 179.363281 86.503906 178.914062 86.503906 C 178.132812 86.503906 177.402344 86.109375 176.96875 85.4375 C 174.296875 81.28125 170.40625 80.40625 167.613281 80.40625 C 167.074219 80.40625 166.621094 80.453125 166.269531 80.480469 C 164.917969 81.449219 163.5625 82.519531 162.226562 83.707031 C 164.703125 84.085938 166.890625 85.148438 168.746094 86.898438 C 169.199219 87.316406 169.453125 87.886719 169.476562 88.503906 C 169.492188 89.121094 169.273438 89.710938 168.855469 90.152344 C 168.417969 90.625 167.804688 90.882812 167.164062 90.882812 C 166.574219 90.882812 166.011719 90.664062 165.585938 90.257812 C 164.113281 88.875 162.253906 88.175781 160.105469 88.175781 C 158.925781 88.175781 157.921875 88.390625 157.3125 88.558594 C 156.445312 89.515625 155.585938 90.519531 154.742188 91.566406 C 154.832031 91.566406 154.917969 91.566406 155.003906 91.566406 C 156.445312 91.566406 157.828125 91.820312 159.113281 92.328125 C 160.171875 92.746094 160.757812 93.863281 160.539062 94.941406 C 165.84375 92.433594 171.804688 90.433594 178.023438 89.863281 C 178.085938 89.820312 178.34375 89.773438 178.601562 89.773438 C 178.648438 89.773438 178.890625 89.796875 178.941406 89.804688 C 179.886719 89.726562 180.988281 89.683594 182.085938 89.683594 C 183.121094 89.683594 184.152344 89.726562 185.183594 89.828125 C 189.960938 90.320312 194.570312 91.855469 198.917969 94.394531 C 199.113281 94.441406 199.433594 94.640625 199.691406 94.90625 C 205.042969 98.167969 210.003906 103.199219 214.246094 109.746094 C 214.929688 110.820312 214.625 112.246094 213.5625 112.949219 C 213.179688 113.191406 212.753906 113.3125 212.308594 113.3125 C 211.523438 113.3125 210.792969 112.917969 210.367188 112.261719 C 208.300781 109.070312 206.066406 106.273438 203.679688 103.898438 C 204.3125 107.558594 203.882812 111.25 202.402344 114.742188 C 202.042969 115.601562 201.207031 116.15625 200.277344 116.15625 C 199.964844 116.15625 199.65625 116.09375 199.375 115.964844 C 198.8125 115.730469 198.363281 115.273438 198.132812 114.710938 C 197.898438 114.132812 197.914062 113.511719 198.148438 112.933594 C 201.152344 105.863281 197.566406 99.855469 196.5625 98.386719 C 194.460938 97.148438 192.257812 96.191406 189.976562 95.519531 C 192.179688 97.894531 193.886719 101.300781 193.285156 106.050781 C 193.136719 107.207031 192.152344 108.066406 190.996094 108.066406 C 190.957031 108.066406 190.738281 108.066406 190.695312 108.050781 C 189.441406 107.898438 188.546875 106.742188 188.699219 105.472656 C 189.746094 97.117188 180.289062 94.792969 178.386719 94.410156 C 176.824219 94.5625 175.105469 94.835938 173.355469 95.246094 C 175.894531 96.640625 178.34375 99.109375 178.941406 103.46875 C 179.027344 104.082031 178.867188 104.683594 178.496094 105.175781 C 178.132812 105.671875 177.582031 105.992188 176.976562 106.066406 C 176.925781 106.074219 176.695312 106.089844 176.652344 106.089844 C 175.507812 106.089844 174.527344 105.238281 174.375 104.097656 C 173.613281 98.601562 167.957031 98.007812 165.570312 98.007812 C 165.335938 98.007812 165.128906 98.007812 164.976562 98.015625 C 163.972656 98.449219 162.957031 98.910156 161.949219 99.398438 C 163.273438 100.050781 164.472656 100.972656 165.523438 102.160156 C 166.359375 103.125 166.261719 104.585938 165.3125 105.421875 C 165.25 105.480469 165.171875 105.542969 165.097656 105.589844 C 167.488281 105.769531 169.765625 106.148438 171.925781 106.726562 C 174.714844 107.472656 177.285156 108.492188 179.597656 109.777344 C 181.339844 110.75 183.027344 111.976562 184.910156 113.640625 C 185.050781 113.660156 185.3125 113.875 185.535156 114.132812 C 189.351562 117.761719 192.378906 122.300781 194.574219 127.742188 C 194.621094 127.820312 194.691406 127.972656 194.714844 128.054688 C 196.53125 132.738281 197.820312 137.902344 198.570312 143.542969 C 198.734375 144.789062 197.84375 145.960938 196.585938 146.128906 C 196.542969 146.144531 196.316406 146.144531 196.273438 146.144531 C 195.125 146.144531 194.144531 145.292969 193.992188 144.152344 C 193.734375 142.25 193.398438 140.34375 192.957031 138.355469 C 191.953125 140.121094 190.628906 141.753906 188.960938 143.253906 C 188.53125 143.632812 187.984375 143.839844 187.421875 143.839844 C 186.761719 143.839844 186.136719 143.558594 185.695312 143.070312 C 185.285156 142.617188 185.082031 142.023438 185.109375 141.398438 C 185.140625 140.789062 185.414062 140.226562 185.871094 139.808594 C 191.101562 135.125 190.464844 130.296875 190.28125 129.371094 C 189.777344 128.183594 189.199219 126.96875 188.546875 125.742188 C 188.199219 128.351562 187.175781 130.875 185.488281 133.277344 C 185.058594 133.894531 184.351562 134.253906 183.605469 134.253906 C 183.125 134.253906 182.664062 134.113281 182.265625 133.839844 C 181.230469 133.101562 180.976562 131.667969 181.703125 130.617188 C 186.144531 124.328125 183.140625 118.832031 182.113281 117.304688 C 180.683594 116.019531 179.210938 114.910156 177.71875 114.027344 C 179.285156 117.386719 180.136719 121.753906 177.960938 126.375 C 177.582031 127.179688 176.769531 127.699219 175.878906 127.699219 C 175.53125 127.699219 175.195312 127.621094 174.890625 127.484375 C 174.335938 127.210938 173.917969 126.753906 173.703125 126.175781 C 173.492188 125.601562 173.523438 124.96875 173.78125 124.40625 C 176.578125 118.4375 171.578125 112.582031 170.128906 111.085938 C 168.582031 110.710938 166.960938 110.4375 165.3125 110.285156 C 168.117188 113.296875 169.429688 116.925781 169.023438 120.6875 C 168.898438 121.867188 167.914062 122.753906 166.726562 122.753906 C 165.214844 122.605469 164.292969 121.464844 164.429688 120.199219 C 165.046875 114.453125 159.59375 111.265625 157.570312 110.292969 C 156.042969 110.421875 154.523438 110.621094 153.015625 110.878906 C 155.246094 112.667969 156.71875 115.015625 157.3125 117.769531 C 157.585938 119.015625 156.796875 120.246094 155.550781 120.511719 C 155.398438 120.550781 155.230469 120.566406 155.0625 120.566406 C 153.984375 120.566406 153.039062 119.804688 152.8125 118.75 C 151.871094 114.4375 147.703125 112.917969 146.105469 112.5 C 144.199219 113.0625 142.738281 113.59375 141.847656 113.9375 C 140.296875 122.269531 128.800781 177.398438 90.429688 213.6875 C 126.816406 221.117188 151.617188 234.820312 164.171875 254.441406 C 166.195312 255.277344 168.109375 256.222656 169.855469 257.261719 C 172.046875 258.570312 174.433594 259.628906 176.96875 260.433594 C 176.714844 257.863281 176.609375 255.5 176.609375 253.257812 C 176.609375 248.4375 177.058594 243.570312 177.960938 238.796875 L 127.371094 222.796875 C 126.792969 222.617188 126.3125 222.21875 126.03125 221.671875 C 125.746094 221.117188 125.683594 220.488281 125.867188 219.910156 C 126.171875 218.945312 127.0625 218.296875 128.070312 218.296875 C 128.308594 218.296875 128.542969 218.328125 128.773438 218.394531 L 178.964844 234.277344 C 180.5625 227.921875 182.957031 221.792969 186.097656 216.054688 L 128.316406 181.253906 C 127.238281 180.59375 126.878906 179.179688 127.523438 178.089844 C 127.949219 177.398438 128.710938 176.964844 129.515625 176.964844 C 129.941406 176.964844 130.351562 177.082031 130.703125 177.300781 L 188.417969 212.0625 C 192.011719 206.308594 196.347656 201.046875 201.304688 196.398438 L 143.871094 136.691406 C 143.445312 136.242188 143.21875 135.664062 143.222656 135.042969 C 143.230469 134.417969 143.492188 133.855469 143.929688 133.429688 C 144.363281 133.003906 144.929688 132.777344 145.527344 132.777344 C 146.167969 132.777344 146.761719 133.035156 147.199219 133.476562 L 204.789062 193.34375 C 211.152344 188.066406 218.246094 183.847656 225.886719 180.828125 L 201.695312 129.636719 C 201.152344 128.488281 201.640625 127.105469 202.796875 126.558594 C 203.113281 126.421875 203.449219 126.34375 203.785156 126.34375 C 204.679688 126.34375 205.488281 126.847656 205.867188 127.660156 L 230.25 179.246094 C 237.328125 176.921875 244.703125 175.636719 252.191406 175.414062 L 252.191406 39.46875 C 252.191406 38.191406 253.226562 37.160156 254.496094 37.160156 C 255.773438 37.160156 256.808594 38.191406 256.808594 39.46875 L 256.808594 175.414062 C 265.414062 175.667969 273.832031 177.316406 281.84375 180.335938 L 309.390625 96.625 C 309.695312 95.671875 310.585938 95.035156 311.582031 95.035156 C 311.824219 95.035156 312.074219 95.074219 312.308594 95.148438 C 312.886719 95.339844 313.367188 95.75 313.648438 96.304688 C 313.921875 96.851562 313.96875 97.476562 313.769531 98.0625 L 286.132812 182.089844 C 294.832031 185.96875 302.660156 191.351562 309.4375 198.109375 L 340.511719 155.523438 C 340.949219 154.933594 341.652344 154.582031 342.386719 154.582031 C 342.875 154.582031 343.339844 154.734375 343.742188 155.023438 C 344.769531 155.777344 344.988281 157.230469 344.25 158.246094 L 312.675781 201.523438 C 318.105469 207.605469 322.515625 214.457031 325.796875 221.894531 L 349.902344 208.046875 C 350.25 207.851562 350.644531 207.742188 351.042969 207.742188 C 351.875 207.742188 352.648438 208.183594 353.054688 208.890625 C 353.6875 210 353.308594 211.417969 352.203125 212.046875 L 327.53125 226.210938 C 330.753906 234.886719 332.390625 243.988281 332.390625 253.257812 C 332.390625 254 332.367188 254.761719 332.34375 255.5 C 333.605469 256.101562 334.679688 256.671875 335.675781 257.261719 C 339.75 259.6875 344.542969 261.269531 349.566406 261.832031 C 360.40625 238.332031 365.898438 213.292969 365.898438 187.382812 C 365.898438 88.96875 285.835938 8.898438 187.421875 8.898438 Z M 187.421875 8.898438 " fill-opacity="1" fill-rule="nonzero"/></g><path fill="#ffa559" d="M 150.027344 106.699219 C 153.285156 106.003906 157.25 105.441406 161.464844 105.441406 C 161.738281 105.441406 162.011719 105.441406 162.285156 105.441406 C 162.195312 105.375 162.117188 105.292969 162.042969 105.214844 C 160.355469 103.292969 158.332031 102.886719 156.933594 102.886719 C 156.171875 102.886719 155.582031 103.003906 155.289062 103.078125 C 153.601562 104.144531 151.808594 105.375 150.027344 106.699219 Z M 150.027344 106.699219 " fill-opacity="1" fill-rule="nonzero"/><g clip-path="url(#0edc17ffcf)"><path fill="#99feff" d="M 229.285156 346.359375 C 221.785156 346.359375 214.519531 348.328125 208.253906 352.066406 C 202.171875 355.671875 195.117188 357.585938 187.863281 357.585938 C 180.609375 357.585938 173.558594 355.671875 167.492188 352.066406 C 161.246094 348.347656 153.96875 346.386719 146.464844 346.386719 C 139.144531 346.386719 132.011719 348.265625 125.859375 351.816406 C 125.707031 351.898438 125.546875 351.960938 125.378906 352.027344 C 124.441406 352.570312 123.480469 353.085938 122.445312 353.574219 C 143.222656 361.722656 165.074219 365.859375 187.421875 365.859375 C 209.941406 365.859375 231.945312 361.675781 252.839844 353.40625 C 251.941406 352.964844 251.121094 352.523438 250.347656 352.066406 C 244.0625 348.328125 236.78125 346.359375 229.285156 346.359375 Z M 229.285156 346.359375 " fill-opacity="1" fill-rule="nonzero"/></g><path fill="#ffa559" d="M 150.539062 97.277344 C 149.078125 99.445312 147.824219 101.511719 146.792969 103.308594 C 149.679688 101.164062 153.253906 98.761719 157.296875 96.585938 C 156.574219 96.3125 155.777344 96.175781 154.941406 96.175781 C 153.039062 96.175781 151.335938 96.882812 150.539062 97.277344 Z M 150.539062 97.277344 " fill-opacity="1" fill-rule="nonzero"/><path fill="#99feff" d="M 291.660156 291.273438 C 291.5 291.355469 291.347656 291.417969 291.1875 291.46875 C 285 295.148438 277.972656 297.042969 270.730469 297.042969 C 263.46875 297.042969 256.414062 295.132812 250.347656 291.515625 C 244.0625 287.773438 236.78125 285.796875 229.285156 285.796875 C 221.785156 285.796875 214.519531 287.773438 208.253906 291.515625 C 202.171875 295.132812 195.117188 297.042969 187.863281 297.042969 C 180.609375 297.042969 173.558594 295.132812 167.492188 291.515625 C 161.246094 287.789062 153.96875 285.828125 146.464844 285.828125 C 139.144531 285.828125 132.011719 287.707031 125.859375 291.273438 C 125.707031 291.347656 125.546875 291.417969 125.378906 291.46875 C 119.328125 295.074219 112.171875 297.027344 104.851562 297.027344 C 97.613281 297.027344 90.585938 295.121094 84.527344 291.515625 C 78.253906 287.773438 70.976562 285.796875 63.488281 285.796875 C 56.039062 285.796875 48.800781 287.757812 42.558594 291.441406 C 47.726562 298.617188 53.4375 305.429688 59.523438 311.6875 C 60.84375 311.574219 62.191406 311.527344 63.519531 311.527344 C 71.898438 311.527344 79.980469 313.703125 86.890625 317.824219 C 92.261719 321.015625 98.488281 322.703125 104.910156 322.703125 C 111.328125 322.703125 117.5625 321.007812 122.933594 317.824219 C 123.167969 317.664062 123.492188 317.503906 123.835938 317.382812 C 130.503906 313.550781 138.382812 311.496094 146.464844 311.496094 C 154.800781 311.496094 162.894531 313.6875 169.855469 317.824219 C 175.226562 321.015625 181.445312 322.703125 187.863281 322.703125 C 194.277344 322.703125 200.511719 321.015625 205.882812 317.824219 C 212.863281 313.65625 220.953125 311.464844 229.285156 311.464844 C 237.617188 311.464844 245.722656 313.65625 252.710938 317.824219 C 258.070312 321.015625 264.296875 322.703125 270.714844 322.703125 C 277.136719 322.703125 283.375 321.015625 288.742188 317.824219 C 289.121094 317.609375 289.367188 317.496094 289.578125 317.410156 C 296.253906 313.585938 304.148438 311.527344 312.296875 311.527344 C 313.332031 311.527344 314.347656 311.558594 315.375 311.632812 C 321.558594 305.261719 327.332031 298.351562 332.550781 291.074219 C 326.40625 287.621094 319.445312 285.828125 312.277344 285.828125 C 304.953125 285.828125 297.820312 287.707031 291.660156 291.273438 Z M 291.660156 291.273438 " fill-opacity="1" fill-rule="nonzero"/><path fill="#99feff" d="M 312.289062 255.550781 C 304.957031 255.550781 297.828125 257.429688 291.660156 260.980469 C 291.5 261.074219 291.347656 261.140625 291.1875 261.195312 C 291.128906 261.226562 291.03125 261.269531 291.03125 261.269531 C 284.988281 264.867188 277.972656 266.765625 270.738281 266.765625 C 263.46875 266.765625 256.414062 264.851562 250.347656 261.238281 C 244.0625 257.5 236.78125 255.523438 229.285156 255.523438 C 221.785156 255.523438 214.519531 257.5 208.253906 261.238281 C 202.171875 264.851562 195.117188 266.765625 187.863281 266.765625 C 180.609375 266.765625 173.558594 264.851562 167.492188 261.238281 C 161.246094 257.53125 153.96875 255.566406 146.464844 255.566406 C 139.144531 255.566406 132.011719 257.4375 125.851562 260.980469 C 125.707031 261.074219 125.546875 261.140625 125.378906 261.195312 C 119.328125 264.796875 112.171875 266.753906 104.859375 266.753906 C 97.613281 266.753906 90.585938 264.84375 84.527344 261.238281 C 78.253906 257.5 70.976562 255.523438 63.488281 255.523438 C 55.992188 255.523438 48.707031 257.5 42.433594 261.238281 C 38.019531 263.863281 32.84375 265.605469 27.375 266.316406 C 30.996094 273.617188 35.191406 280.78125 39.875 287.652344 L 40.070312 287.546875 C 47.0625 283.386719 55.15625 281.191406 63.488281 281.191406 C 71.824219 281.191406 79.914062 283.386719 86.890625 287.546875 C 92.261719 290.742188 98.488281 292.425781 104.910156 292.425781 C 111.328125 292.425781 117.5625 290.742188 122.933594 287.546875 C 123.167969 287.378906 123.492188 287.226562 123.835938 287.113281 C 130.503906 283.289062 138.382812 281.21875 146.464844 281.21875 C 154.800781 281.21875 162.894531 283.402344 169.855469 287.546875 C 175.226562 290.742188 181.445312 292.425781 187.863281 292.425781 C 194.277344 292.425781 200.511719 290.742188 205.882812 287.546875 C 212.863281 283.386719 220.953125 281.191406 229.285156 281.191406 C 237.617188 281.191406 245.722656 283.386719 252.710938 287.546875 C 258.070312 290.742188 264.296875 292.425781 270.714844 292.425781 C 277.136719 292.425781 283.375 290.742188 288.742188 287.546875 C 289.042969 287.378906 289.304688 287.242188 289.59375 287.136719 C 296.296875 283.289062 304.191406 281.21875 312.277344 281.21875 C 320.445312 281.21875 328.367188 283.304688 335.226562 287.28125 C 339.804688 280.535156 343.941406 273.449219 347.515625 266.203125 C 342.375 265.429688 337.484375 263.71875 333.3125 261.238281 C 327.070312 257.515625 319.800781 255.550781 312.289062 255.550781 Z M 312.289062 255.550781 " fill-opacity="1" fill-rule="nonzero"/><path fill="#ffa559" d="M 137.726562 88.890625 C 139.164062 93.164062 140.136719 97.316406 140.792969 100.90625 C 141.332031 98.601562 141.785156 96.289062 142.144531 93.984375 C 141.710938 92.859375 140.402344 90.039062 137.726562 88.890625 Z M 137.726562 88.890625 " fill-opacity="1" fill-rule="nonzero"/><path fill="#ffa559" d="M 129.046875 91.917969 C 128.800781 91.917969 128.558594 91.941406 128.296875 91.964844 C 128.292969 91.964844 128.046875 91.957031 127.941406 91.949219 C 131.25 94.898438 133.957031 98.167969 136.09375 101.191406 C 135.671875 99.003906 135.167969 96.820312 134.59375 94.730469 C 134.234375 94.257812 132.425781 91.917969 129.046875 91.917969 Z M 129.046875 91.917969 " fill-opacity="1" fill-rule="nonzero"/></svg>