<svg xmlns="http://www.w3.org/2000/svg" xmlns:xlink="http://www.w3.org/1999/xlink" width="500" zoomAndPan="magnify" viewBox="0 0 375 374.999991" height="500" preserveAspectRatio="xMidYMid meet" version="1.0"><defs><clipPath id="06d4b40529"><path d="M 10.316406 10.316406 L 364.316406 10.316406 L 364.316406 255 L 10.316406 255 Z M 10.316406 10.316406 " clip-rule="nonzero"/></clipPath><clipPath id="36f6f1c188"><path d="M 49 298 L 295 298 L 295 364.316406 L 49 364.316406 Z M 49 298 " clip-rule="nonzero"/></clipPath></defs><g clip-path="url(#06d4b40529)"><path fill="#fab60d" d="M 19.308594 238.707031 C 20.144531 238.0625 21.027344 237.460938 21.917969 236.828125 C 22.804688 236.1875 23.738281 235.585938 24.683594 234.972656 C 25.625 234.34375 26.613281 233.769531 27.609375 233.164062 C 27.859375 233.007812 28.109375 232.859375 28.359375 232.710938 C 28.617188 232.566406 28.871094 232.417969 29.128906 232.269531 C 29.644531 231.984375 30.164062 231.691406 30.6875 231.398438 C 31.210938 231.101562 31.75 230.828125 32.289062 230.550781 C 32.832031 230.273438 33.378906 229.992188 33.929688 229.710938 C 34.476562 229.425781 35.042969 229.171875 35.605469 228.898438 C 36.171875 228.628906 36.742188 228.351562 37.316406 228.089844 C 37.898438 227.839844 38.484375 227.585938 39.074219 227.332031 C 39.664062 227.078125 40.253906 226.808594 40.859375 226.574219 C 42.066406 226.101562 43.285156 225.585938 44.542969 225.152344 C 45.171875 224.925781 45.800781 224.703125 46.4375 224.476562 C 47.074219 224.265625 47.71875 224.050781 48.363281 223.839844 C 53.546875 222.148438 59.085938 220.796875 64.898438 219.832031 C 66.351562 219.574219 67.820312 219.378906 69.308594 219.175781 C 70.050781 219.074219 70.796875 219.003906 71.546875 218.914062 C 72.296875 218.835938 73.050781 218.738281 73.808594 218.683594 C 74.566406 218.617188 75.328125 218.554688 76.09375 218.484375 C 76.859375 218.421875 77.628906 218.386719 78.398438 218.339844 C 79.941406 218.242188 81.496094 218.210938 83.0625 218.160156 C 84.589844 218.160156 86.125 218.148438 87.667969 218.148438 C 88.035156 218.148438 88.402344 218.148438 88.769531 218.148438 C 89.136719 218.148438 89.496094 218.140625 89.914062 218.164062 C 90.726562 218.195312 91.542969 218.230469 92.359375 218.261719 C 93.175781 218.296875 94 218.328125 94.824219 218.367188 C 95.230469 218.386719 95.65625 218.394531 96.054688 218.425781 C 96.449219 218.453125 96.847656 218.480469 97.246094 218.511719 C 98.839844 218.636719 100.441406 218.765625 102.054688 218.886719 C 103.652344 219.0625 105.261719 219.234375 106.878906 219.410156 C 107.285156 219.457031 107.691406 219.5 108.09375 219.546875 C 108.496094 219.605469 108.898438 219.660156 109.300781 219.71875 C 110.109375 219.828125 110.914062 219.941406 111.722656 220.058594 C 112.535156 220.175781 113.347656 220.289062 114.160156 220.410156 C 114.964844 220.539062 115.777344 220.675781 116.585938 220.808594 C 118.203125 221.078125 119.84375 221.335938 121.453125 221.664062 C 127.957031 222.863281 134.441406 224.355469 140.910156 225.996094 C 147.378906 227.636719 153.824219 229.445312 160.226562 231.320312 C 166.628906 233.191406 172.992188 235.105469 179.324219 236.992188 C 185.632812 238.875 191.953125 240.691406 198.253906 242.417969 C 210.851562 245.871094 223.402344 248.875 235.742188 251.027344 C 248.082031 253.175781 260.210938 254.421875 271.894531 254.527344 C 274.808594 254.519531 277.707031 254.507812 280.5625 254.371094 C 281.996094 254.328125 283.410156 254.222656 284.828125 254.132812 L 285.355469 254.101562 L 285.488281 254.09375 C 285.183594 254.136719 285.484375 254.097656 285.453125 254.105469 L 285.742188 254.078125 C 286.121094 254.046875 286.507812 254.011719 286.882812 253.980469 C 287.261719 253.945312 287.644531 253.914062 288.023438 253.875 L 288.59375 253.828125 C 288.785156 253.808594 288.980469 253.792969 289.128906 253.773438 C 289.78125 253.703125 290.425781 253.628906 291.074219 253.558594 C 291.398438 253.523438 291.722656 253.484375 292.042969 253.453125 C 292.382812 253.40625 292.71875 253.355469 293.058594 253.308594 C 293.734375 253.214844 294.414062 253.125 295.089844 253.03125 C 295.765625 252.945312 296.433594 252.816406 297.105469 252.710938 C 297.773438 252.597656 298.445312 252.5 299.113281 252.378906 C 299.777344 252.25 300.441406 252.121094 301.097656 251.992188 C 302.425781 251.753906 303.726562 251.449219 305.03125 251.175781 C 305.6875 251.039062 306.332031 250.875 306.972656 250.71875 C 307.617188 250.5625 308.261719 250.40625 308.902344 250.25 C 310.171875 249.902344 311.441406 249.5625 312.691406 249.226562 C 313.316406 249.039062 313.9375 248.851562 314.558594 248.667969 C 315.175781 248.476562 315.796875 248.3125 316.402344 248.101562 C 317.011719 247.902344 317.617188 247.703125 318.222656 247.503906 C 318.835938 247.308594 319.4375 247.117188 320.027344 246.898438 C 324.808594 245.238281 329.347656 243.371094 333.605469 241.34375 C 337.867188 239.3125 341.839844 237.125 345.515625 234.839844 C 349.191406 232.554688 352.523438 230.140625 355.5625 227.722656 C 356.320312 227.113281 357.082031 226.523438 357.777344 225.894531 C 358.484375 225.277344 359.203125 224.679688 359.882812 224.070312 C 360.136719 223.832031 360.394531 223.589844 360.648438 223.355469 C 363.054688 211.714844 364.324219 199.667969 364.324219 187.316406 C 364.324219 89.554688 285.074219 10.308594 187.316406 10.308594 C 89.554688 10.308594 10.308594 89.554688 10.308594 187.316406 C 10.308594 205.515625 13.054688 223.070312 18.15625 239.589844 C 18.535156 239.300781 18.921875 239.011719 19.308594 238.707031 " fill-opacity="1" fill-rule="nonzero"/></g><g clip-path="url(#36f6f1c188)"><path fill="#4287cf" d="M 286.269531 331.570312 C 285.535156 331.835938 284.796875 332.101562 284.054688 332.367188 C 283.679688 332.496094 283.3125 332.636719 282.933594 332.761719 C 282.5625 332.882812 282.179688 333.003906 281.804688 333.125 C 281.050781 333.371094 280.289062 333.617188 279.527344 333.859375 C 278.765625 334.101562 277.988281 334.316406 277.214844 334.546875 C 276.4375 334.765625 275.671875 335.007812 274.882812 335.210938 C 274.09375 335.417969 273.304688 335.625 272.515625 335.824219 C 272.113281 335.929688 271.714844 336.027344 271.320312 336.128906 C 270.898438 336.222656 270.480469 336.316406 270.058594 336.410156 C 269.21875 336.59375 268.375 336.78125 267.53125 336.96875 C 267.304688 337.019531 267.125 337.054688 266.941406 337.09375 L 266.382812 337.203125 C 266.007812 337.28125 265.636719 337.351562 265.257812 337.429688 C 264.882812 337.5 264.507812 337.578125 264.132812 337.652344 L 263.851562 337.710938 C 263.726562 337.730469 263.933594 337.703125 263.535156 337.757812 L 263.382812 337.785156 L 262.773438 337.886719 C 261.136719 338.15625 259.496094 338.433594 257.839844 338.648438 C 254.53125 339.128906 251.183594 339.476562 247.796875 339.746094 C 234.261719 340.804688 220.273438 340.226562 206.433594 338.386719 C 192.578125 336.558594 178.855469 333.527344 165.507812 329.867188 C 158.832031 328.03125 152.242188 326.046875 145.75 323.972656 C 139.277344 321.902344 132.921875 319.757812 126.6875 317.652344 C 120.457031 315.542969 114.347656 313.488281 108.335938 311.546875 C 106.835938 311.0625 105.335938 310.5625 103.851562 310.113281 C 102.359375 309.664062 100.875 309.175781 99.402344 308.738281 C 97.925781 308.296875 96.457031 307.855469 94.992188 307.414062 C 93.53125 307 92.074219 306.589844 90.621094 306.179688 L 89.535156 305.871094 C 89.171875 305.769531 88.8125 305.683594 88.449219 305.585938 C 87.730469 305.398438 87.007812 305.207031 86.289062 305.019531 C 85.570312 304.824219 84.855469 304.636719 84.140625 304.445312 C 83.425781 304.273438 82.710938 304.101562 81.996094 303.933594 C 81.285156 303.761719 80.574219 303.589844 79.867188 303.417969 C 79.511719 303.335938 79.15625 303.246094 78.800781 303.164062 C 78.449219 303.085938 78.09375 303.011719 77.742188 302.929688 C 76.332031 302.621094 74.929688 302.3125 73.53125 302.007812 C 72.132812 301.746094 70.742188 301.484375 69.359375 301.222656 C 69.011719 301.152344 68.667969 301.085938 68.320312 301.019531 C 67.976562 300.949219 67.65625 300.90625 67.320312 300.847656 C 66.660156 300.742188 66 300.628906 65.34375 300.523438 C 64.683594 300.414062 64.027344 300.304688 63.371094 300.191406 C 63.058594 300.136719 62.683594 300.09375 62.316406 300.050781 C 61.953125 300.003906 61.585938 299.960938 61.222656 299.914062 C 60.496094 299.824219 59.769531 299.730469 59.046875 299.640625 C 58.683594 299.59375 58.324219 299.546875 57.964844 299.5 L 57.421875 299.433594 L 57.289062 299.417969 C 57.199219 299.40625 57.578125 299.425781 57.359375 299.414062 L 57.109375 299.386719 C 55.789062 299.253906 54.472656 299.101562 53.167969 299.011719 C 52.515625 298.96875 51.859375 298.898438 51.210938 298.859375 C 50.742188 298.832031 50.273438 298.800781 49.804688 298.777344 C 82.257812 338.765625 131.800781 364.324219 187.316406 364.324219 C 227.554688 364.324219 264.65625 350.894531 294.386719 328.273438 C 291.757812 329.445312 289.050781 330.546875 286.269531 331.570312 " fill-opacity="1" fill-rule="nonzero"/></g><path fill="#00adef" d="M 354.21875 245.890625 C 350.660156 249.285156 346.667969 252.613281 342.277344 255.78125 C 337.886719 258.945312 333.085938 261.949219 327.921875 264.703125 C 322.753906 267.453125 317.222656 269.972656 311.347656 272.121094 C 310.613281 272.386719 309.875 272.65625 309.132812 272.921875 C 308.757812 273.050781 308.390625 273.191406 308.011719 273.316406 C 307.640625 273.441406 307.261719 273.5625 306.882812 273.683594 C 306.128906 273.925781 305.367188 274.167969 304.605469 274.414062 C 303.84375 274.652344 303.066406 274.871094 302.292969 275.097656 C 301.519531 275.320312 300.75 275.5625 299.960938 275.765625 C 299.171875 275.972656 298.386719 276.175781 297.59375 276.382812 C 297.195312 276.480469 296.792969 276.582031 296.398438 276.683594 C 295.976562 276.777344 295.558594 276.871094 295.136719 276.964844 C 294.300781 277.152344 293.453125 277.335938 292.609375 277.523438 C 292.382812 277.574219 292.207031 277.609375 292.019531 277.648438 L 291.457031 277.757812 C 291.085938 277.832031 290.710938 277.90625 290.335938 277.980469 C 289.960938 278.058594 289.589844 278.128906 289.214844 278.207031 L 288.929688 278.261719 C 288.804688 278.28125 289.011719 278.257812 288.617188 278.316406 L 288.464844 278.339844 L 287.847656 278.441406 C 286.214844 278.707031 284.574219 278.988281 282.917969 279.203125 C 279.613281 279.6875 276.261719 280.03125 272.875 280.300781 C 259.339844 281.359375 245.355469 280.785156 231.507812 278.945312 C 217.660156 277.113281 203.933594 274.082031 190.585938 270.421875 C 183.910156 268.585938 177.324219 266.601562 170.828125 264.527344 C 164.355469 262.457031 158 260.316406 151.769531 258.207031 C 145.535156 256.097656 139.425781 254.042969 133.414062 252.101562 C 131.914062 251.621094 130.414062 251.121094 128.929688 250.667969 C 127.441406 250.214844 125.957031 249.726562 124.480469 249.289062 C 123.003906 248.847656 121.535156 248.40625 120.070312 247.96875 C 118.609375 247.554688 117.152344 247.144531 115.703125 246.730469 L 114.613281 246.425781 C 114.253906 246.324219 113.890625 246.238281 113.53125 246.140625 C 112.808594 245.953125 112.085938 245.765625 111.367188 245.574219 C 110.652344 245.382812 109.933594 245.191406 109.21875 245 C 108.503906 244.828125 107.789062 244.65625 107.078125 244.484375 C 106.363281 244.3125 105.652344 244.144531 104.945312 243.96875 C 104.589844 243.886719 104.234375 243.800781 103.882812 243.714844 C 103.527344 243.640625 103.175781 243.5625 102.820312 243.488281 C 101.410156 243.175781 100.007812 242.871094 98.609375 242.5625 C 97.210938 242.300781 95.820312 242.039062 94.4375 241.773438 C 94.09375 241.710938 93.746094 241.640625 93.402344 241.574219 C 93.054688 241.503906 92.734375 241.460938 92.398438 241.40625 C 91.738281 241.296875 91.078125 241.183594 90.421875 241.078125 C 89.761719 240.96875 89.105469 240.855469 88.449219 240.746094 C 88.140625 240.691406 87.761719 240.648438 87.398438 240.601562 C 87.03125 240.558594 86.667969 240.515625 86.300781 240.46875 C 85.574219 240.378906 84.847656 240.285156 84.125 240.195312 C 83.761719 240.148438 83.402344 240.101562 83.042969 240.054688 L 82.5 239.984375 L 82.367188 239.96875 C 82.277344 239.957031 82.65625 239.976562 82.4375 239.964844 L 82.191406 239.9375 C 80.871094 239.804688 79.554688 239.652344 78.246094 239.566406 C 77.59375 239.519531 76.941406 239.453125 76.289062 239.414062 C 75.640625 239.375 74.992188 239.335938 74.347656 239.300781 C 73.699219 239.253906 73.058594 239.242188 72.414062 239.214844 C 71.773438 239.195312 71.132812 239.167969 70.496094 239.160156 C 69.226562 239.160156 67.957031 239.105469 66.703125 239.136719 C 66.074219 239.144531 65.449219 239.152344 64.828125 239.160156 C 64.203125 239.183594 63.585938 239.207031 62.96875 239.230469 C 62.660156 239.242188 62.351562 239.253906 62.046875 239.265625 C 61.738281 239.285156 61.433594 239.300781 61.128906 239.320312 C 60.515625 239.351562 59.90625 239.390625 59.300781 239.425781 C 58.695312 239.46875 58.09375 239.523438 57.496094 239.574219 C 56.894531 239.625 56.292969 239.664062 55.707031 239.742188 C 54.523438 239.882812 53.339844 239.988281 52.1875 240.160156 C 47.546875 240.789062 43.117188 241.660156 38.957031 242.765625 C 36.878906 243.332031 34.859375 243.925781 32.914062 244.574219 C 31.945312 244.90625 30.976562 245.210938 30.050781 245.578125 C 29.117188 245.925781 28.179688 246.25 27.289062 246.632812 C 26.390625 247 25.492188 247.34375 24.636719 247.742188 C 23.777344 248.121094 22.910156 248.476562 22.09375 248.878906 C 21.871094 248.984375 21.648438 249.09375 21.429688 249.199219 C 25.449219 259.964844 30.484375 270.238281 36.421875 279.898438 C 37.546875 279.675781 38.675781 279.46875 39.820312 279.28125 C 41.273438 279.015625 42.742188 278.828125 44.230469 278.621094 C 44.972656 278.523438 45.71875 278.449219 46.46875 278.363281 C 47.21875 278.277344 47.972656 278.1875 48.730469 278.128906 C 49.492188 278.066406 50.25 277.996094 51.015625 277.933594 C 51.78125 277.863281 52.546875 277.832031 53.320312 277.785156 C 54.863281 277.6875 56.417969 277.65625 57.984375 277.609375 C 59.511719 277.601562 61.042969 277.597656 62.589844 277.589844 C 62.957031 277.589844 63.324219 277.59375 63.691406 277.59375 C 64.058594 277.59375 64.417969 277.589844 64.839844 277.613281 C 65.648438 277.640625 66.464844 277.675781 67.28125 277.707031 C 68.101562 277.742188 68.921875 277.777344 69.746094 277.8125 C 70.152344 277.832031 70.578125 277.839844 70.976562 277.871094 C 71.371094 277.898438 71.769531 277.929688 72.167969 277.953125 C 73.761719 278.078125 75.363281 278.210938 76.976562 278.335938 C 78.574219 278.511719 80.183594 278.683594 81.800781 278.859375 C 82.207031 278.902344 82.609375 278.949219 83.015625 278.996094 C 83.417969 279.050781 83.820312 279.105469 84.222656 279.160156 C 85.027344 279.277344 85.835938 279.390625 86.644531 279.503906 C 87.457031 279.617188 88.269531 279.738281 89.082031 279.851562 C 89.890625 279.984375 90.695312 280.121094 91.507812 280.253906 C 93.125 280.523438 94.765625 280.785156 96.375 281.109375 C 102.878906 282.3125 109.363281 283.800781 115.832031 285.441406 C 122.296875 287.085938 128.75 288.894531 135.148438 290.765625 C 141.550781 292.636719 147.910156 294.550781 154.246094 296.441406 C 160.554688 298.316406 166.875 300.136719 173.175781 301.863281 C 185.773438 305.316406 198.320312 308.320312 210.664062 310.472656 C 258.589844 318.832031 324.757812 312.71875 348.058594 262.230469 C 350.546875 256.835938 352.539062 251.222656 354.492188 245.621094 C 354.402344 245.710938 354.3125 245.796875 354.21875 245.890625 " fill-opacity="1" fill-rule="nonzero"/></svg>