<svg xmlns="http://www.w3.org/2000/svg" xmlns:xlink="http://www.w3.org/1999/xlink" width="500" zoomAndPan="magnify" viewBox="0 0 375 374.999991" height="500" preserveAspectRatio="xMidYMid meet" version="1.0"><defs><clipPath id="655c77da1f"><path d="M 6.015625 6.265625 L 369.015625 6.265625 L 369.015625 370 L 6.015625 370 Z M 6.015625 6.265625 " clip-rule="nonzero"/></clipPath></defs><path fill="#1a9ce5" d="M 22.585938 258.636719 C 31.140625 277.570312 41.101562 294.125 41.101562 294.125 C 41.101562 294.125 54.945312 245.917969 58.109375 238.046875 C 61.273438 230.175781 71.164062 208.15625 71.164062 208.15625 L 7.878906 208.15625 C 9.480469 219.761719 13.445312 238.394531 22.585938 258.636719 Z M 22.585938 258.636719 " fill-opacity="1" fill-rule="nonzero"/><path fill="#1a9ce5" d="M 364.171875 208.15625 L 96.367188 208.15625 C 96.367188 208.15625 74.503906 303.527344 83.300781 334.054688 C 83.300781 334.054688 142.167969 381.1875 227.753906 363.714844 C 313.332031 346.242188 347.066406 273.273438 351.496094 261.65625 C 369.015625 215.707031 364.171875 208.15625 364.171875 208.15625 Z M 364.171875 208.15625 " fill-opacity="1" fill-rule="nonzero"/><path fill="#ff4106" d="M 274.296875 121.332031 C 262.753906 121.332031 251.835938 124.011719 242.125 128.773438 C 245.398438 129.570312 248.371094 131.007812 250.953125 133.511719 C 254.113281 136.574219 257.226562 141.488281 257.160156 146.015625 C 257.117188 149.03125 252.433594 149.027344 252.480469 146.015625 C 252.527344 142.738281 249.917969 139.023438 247.644531 136.820312 C 244.972656 134.226562 241.703125 133.140625 238.074219 132.773438 C 237.339844 132.699219 236.789062 132.359375 236.414062 131.894531 C 215.28125 144.714844 201.160156 167.941406 201.160156 194.46875 C 201.160156 197.765625 201.378906 205.761719 201.804688 208.941406 C 202.648438 208.792969 345.140625 208.710938 345.140625 208.710938 C 345.542969 205.605469 347.445312 197.683594 347.445312 194.46875 C 347.441406 154.078125 314.695312 121.332031 274.296875 121.332031 Z M 311.113281 169.671875 C 308.980469 172.519531 304.640625 173.574219 301.40625 174.582031 C 296.992188 175.960938 292.777344 176.191406 288.179688 176.296875 C 286.015625 176.34375 283.816406 176.332031 281.699219 175.832031 C 279.617188 175.339844 277.851562 174.1875 275.988281 173.195312 C 274.0625 172.171875 272.332031 171.902344 270.234375 172.535156 C 268.296875 173.117188 266.492188 174.066406 264.558594 174.671875 C 261.671875 175.570312 260.449219 171.050781 263.3125 170.15625 C 266.523438 169.15625 269.480469 167.433594 272.820312 167.484375 C 272.527344 167.214844 272.296875 166.847656 272.171875 166.359375 C 271.078125 162.054688 269.453125 157.207031 265.410156 154.789062 C 261.742188 152.59375 256.863281 153.003906 252.824219 153.832031 C 248.1875 154.785156 244.441406 158.132812 242.03125 162.128906 C 241.308594 163.332031 240.6875 164.617188 240.117188 165.902344 C 239.816406 166.582031 239.539062 167.273438 239.308594 167.980469 C 239.179688 168.367188 239.097656 168.757812 238.988281 169.148438 C 238.960938 169.242188 239.046875 169.671875 238.945312 169.246094 C 239.640625 172.183594 235.125 173.421875 234.429688 170.492188 C 233.976562 168.578125 234.78125 166.605469 235.503906 164.863281 C 236.257812 163.042969 237.085938 161.210938 238.128906 159.535156 C 241.167969 154.667969 245.863281 150.503906 251.578125 149.320312 C 256.875 148.222656 262.960938 147.871094 267.769531 150.746094 C 272.898438 153.8125 275.277344 159.585938 276.683594 165.113281 C 277.027344 166.464844 276.25 167.453125 275.242188 167.839844 C 276.871094 168.308594 278.363281 169.171875 279.832031 169.996094 C 281.570312 170.964844 283.214844 171.511719 285.210938 171.609375 C 289.183594 171.804688 293.609375 171.847656 297.480469 170.886719 C 299.542969 170.378906 301.710938 169.734375 303.667969 168.910156 C 304.53125 168.546875 306.496094 168.074219 307.066406 167.3125 C 308.855469 164.917969 312.917969 167.253906 311.113281 169.671875 Z M 311.113281 169.671875 " fill-opacity="1" fill-rule="nonzero"/><path fill="#f4bd5b" d="M 75.234375 199.492188 C 57.363281 229.277344 41.523438 292.667969 41.523438 292.667969 C 45.589844 303.164062 81.589844 333.363281 81.589844 333.363281 C 81.589844 333.363281 84.773438 271.527344 89.664062 235.898438 C 94.558594 200.273438 121.410156 137.800781 121.410156 137.800781 C 121.410156 137.800781 93.105469 169.707031 75.234375 199.492188 Z M 75.234375 199.492188 " fill-opacity="1" fill-rule="nonzero"/><g clip-path="url(#655c77da1f)"><path fill="#000000" d="M 354.75 117.183594 C 345.609375 95.570312 332.523438 76.164062 315.855469 59.496094 C 299.1875 42.828125 279.777344 29.742188 258.164062 20.605469 C 235.789062 11.140625 212.015625 6.339844 187.515625 6.339844 C 163.011719 6.339844 139.242188 11.140625 116.867188 20.605469 C 95.253906 29.746094 75.84375 42.832031 59.175781 59.496094 C 42.507812 76.160156 29.421875 95.570312 20.28125 117.183594 C 10.816406 139.558594 6.015625 163.324219 6.015625 187.824219 C 6.015625 212.320312 10.816406 236.089844 20.28125 258.464844 C 29.421875 280.078125 42.507812 299.484375 59.175781 316.152344 C 75.84375 332.820312 95.253906 345.902344 116.867188 355.042969 C 139.242188 364.507812 163.011719 369.304688 187.515625 369.304688 C 212.019531 369.304688 235.789062 364.507812 258.164062 355.042969 C 279.777344 345.902344 299.1875 332.816406 315.855469 316.152344 C 332.523438 299.488281 345.609375 280.078125 354.75 258.464844 C 364.214844 236.089844 369.015625 212.324219 369.015625 187.824219 C 369.015625 163.324219 364.214844 139.558594 354.75 117.183594 Z M 40.429688 288.011719 C 24.855469 265.226562 14.433594 238.660156 10.859375 209.992188 L 68.835938 209.992188 C 56.976562 233.128906 47.910156 257.285156 41.84375 281.949219 C 41.351562 283.964844 40.882812 285.988281 40.429688 288.011719 Z M 97.019531 190.328125 C 97.785156 190.578125 98.527344 190.820312 99.222656 191.105469 C 98.503906 193.378906 97.789062 195.710938 97.085938 198.097656 C 96.058594 201.582031 95.085938 205.09375 94.152344 208.621094 C 93.347656 208.9375 92.636719 209.503906 92.136719 210.152344 C 91.78125 210.617188 91.507812 211.101562 91.269531 211.527344 C 91.054688 211.914062 90.851562 212.277344 90.628906 212.546875 C 89.476562 213.9375 86.996094 213.742188 85.25 212.847656 C 83.9375 212.179688 82.761719 211.195312 81.519531 210.15625 C 80.699219 209.464844 79.847656 208.753906 78.925781 208.109375 C 77.957031 207.433594 77.109375 207.40625 76.414062 208.027344 C 76.320312 208.109375 76.152344 208.277344 76.019531 208.527344 C 75.5625 208.398438 74.929688 208.199219 74.078125 207.890625 L 74.078125 207.441406 C 74.960938 205.773438 75.84375 204.136719 76.722656 202.546875 C 80.328125 196.003906 83.984375 189.886719 87.597656 184.207031 C 88.433594 184.203125 88.859375 184.355469 88.976562 184.433594 C 90.863281 188.320312 94.132812 189.386719 97.019531 190.328125 Z M 89.664062 180.988281 C 100.785156 163.933594 111.300781 151.152344 118.386719 143.222656 C 113.609375 152.738281 106.789062 167.878906 100.285156 187.792969 C 99.558594 187.507812 98.820312 187.265625 98.097656 187.03125 C 95.535156 186.195312 93.320312 185.472656 92.078125 182.882812 C 91.734375 182.175781 91.050781 181.382812 89.664062 180.988281 Z M 78.324219 212.007812 C 78.644531 212.269531 78.964844 212.539062 79.292969 212.8125 C 80.628906 213.933594 82.011719 215.089844 83.671875 215.9375 C 84.988281 216.609375 86.546875 217.007812 88.074219 217.007812 C 89.625 217.007812 91.140625 216.597656 92.359375 215.660156 C 90.265625 224.214844 88.441406 232.890625 86.898438 241.660156 C 84.285156 241.351562 81.523438 242.472656 79.898438 244.550781 C 79.128906 245.539062 78.667969 246.609375 78.222656 247.644531 C 78.042969 248.066406 77.871094 248.464844 77.683594 248.84375 C 77.347656 249.523438 76.648438 250.695312 75.714844 250.90625 C 74.746094 251.125 73.472656 250.324219 72.355469 249.554688 L 64.261719 243.992188 C 63.042969 243.152344 61.003906 241.75 58.660156 242.203125 C 58.472656 242.238281 58.289062 242.289062 58.113281 242.34375 C 62.605469 230.804688 67.441406 220.300781 72.265625 210.917969 C 75.765625 212.238281 77.367188 212.433594 78.324219 212.007812 Z M 68.347656 319.964844 C 69.832031 319.164062 71.21875 319.015625 72.558594 319.519531 C 75.722656 320.699219 78.421875 325.375 79.949219 329.582031 C 75.945312 326.539062 72.078125 323.328125 68.347656 319.964844 Z M 80.625 322.839844 C 78.898438 319.921875 76.617188 317.332031 73.769531 316.269531 C 71.925781 315.582031 69.070312 315.28125 65.695312 317.523438 C 57.417969 309.746094 49.882812 301.183594 43.207031 291.964844 C 43.394531 291.097656 43.574219 290.222656 43.769531 289.363281 C 44.832031 289.015625 46.152344 289.230469 47.171875 289.691406 C 48.601562 290.335938 49.851562 291.429688 51.171875 292.589844 C 51.4375 292.820312 51.699219 293.054688 51.96875 293.285156 C 56.175781 296.898438 60.078125 298.664062 63.863281 298.664062 C 64.125 298.664062 64.386719 298.65625 64.644531 298.636719 C 71.011719 298.230469 75.621094 292.8125 78.535156 288.773438 C 79.460938 287.484375 80.460938 286.101562 81.589844 285.074219 C 80.71875 297.566406 80.398438 310.171875 80.625 322.839844 Z M 81.914062 280.714844 C 79.195312 281.9375 77.300781 284.554688 75.722656 286.746094 C 73.222656 290.214844 69.328125 294.863281 64.421875 295.179688 C 61.339844 295.371094 58.003906 293.898438 54.226562 290.652344 C 53.96875 290.433594 53.710938 290.207031 53.457031 289.984375 C 52 288.707031 50.496094 287.386719 48.597656 286.53125 C 47.277344 285.933594 45.898438 285.675781 44.601562 285.734375 C 47.855469 271.925781 51.859375 259.050781 56.257812 247.203125 C 56.839844 246.960938 57.363281 246.636719 57.832031 246.347656 C 58.375 246.007812 58.890625 245.6875 59.316406 245.605469 C 60.160156 245.441406 61.25 246.128906 62.292969 246.84375 L 70.386719 252.410156 C 71.824219 253.398438 73.480469 254.410156 75.34375 254.410156 C 75.714844 254.410156 76.089844 254.371094 76.476562 254.285156 C 78.234375 253.886719 79.726562 252.535156 80.792969 250.371094 C 81.019531 249.910156 81.214844 249.453125 81.40625 249.003906 C 81.777344 248.136719 82.132812 247.3125 82.625 246.683594 C 83.472656 245.605469 84.933594 244.980469 86.304688 245.082031 C 84.652344 254.949219 83.351562 264.929688 82.410156 274.980469 C 82.230469 276.890625 82.066406 278.800781 81.914062 280.714844 Z M 187.515625 365.839844 C 149.121094 365.839844 113.523438 353.621094 84.410156 332.871094 C 82.394531 282.546875 89.386719 240.46875 97.375 209.992188 L 364.171875 209.992188 C 353.222656 297.726562 278.175781 365.839844 187.515625 365.839844 Z M 346.828125 206.527344 C 347.503906 202.519531 347.863281 198.40625 347.863281 194.210938 C 347.863281 153.53125 314.761719 120.4375 274.082031 120.4375 C 265.304688 120.4375 256.886719 121.984375 249.078125 124.808594 C 246.011719 126.4375 250.085938 128.164062 251.636719 127.582031 C 258.6875 125.199219 266.234375 123.902344 274.082031 123.902344 C 312.851562 123.902344 344.398438 155.445312 344.398438 194.210938 C 344.398438 198.414062 344.019531 202.527344 343.308594 206.527344 L 204.851562 206.527344 C 204.144531 202.527344 203.761719 198.414062 203.761719 194.210938 C 203.761719 175.476562 211.128906 158.429688 223.121094 145.8125 C 228.636719 140.367188 224.714844 139.605469 222.253906 141.753906 C 208.707031 155.140625 200.296875 173.710938 200.296875 194.210938 C 200.296875 198.40625 200.65625 202.523438 201.332031 206.527344 L 98.300781 206.527344 C 98.988281 204.003906 99.679688 201.566406 100.371094 199.214844 C 112.613281 157.628906 127.5 133.691406 127.648438 133.453125 L 134.742188 122.167969 L 124.996094 131.261719 C 124.730469 131.511719 98.089844 156.628906 73.746094 200.757812 C 72.691406 202.671875 71.65625 204.597656 70.640625 206.527344 L 10.460938 206.527344 C 9.816406 200.378906 9.480469 194.136719 9.480469 187.820312 C 9.480469 89.664062 89.347656 9.804688 187.515625 9.804688 C 285.683594 9.804688 365.550781 89.664062 365.550781 187.820312 C 365.550781 194.136719 365.214844 200.378906 364.570312 206.527344 Z M 346.828125 206.527344 " fill-opacity="1" fill-rule="nonzero"/></g><path fill="#000000" d="M 96.6875 128.015625 C 83.519531 144.113281 94.835938 160.964844 94.835938 160.964844 L 95.914062 146.773438 L 99.121094 155.296875 L 101.472656 137.386719 L 105.121094 146.632812 L 109.816406 127.523438 L 112.15625 138.425781 L 119.050781 121.011719 L 119.882812 128.671875 C 119.882812 128.671875 122.558594 120.097656 129.484375 116.84375 C 129.484375 116.84375 109.855469 111.917969 96.6875 128.015625 Z M 96.6875 128.015625 " fill-opacity="1" fill-rule="nonzero"/><path fill="#000000" d="M 97.035156 111.402344 L 97.914062 118.414062 L 108.839844 108.75 L 105.132812 117.820312 L 117.65625 108.199219 L 114.84375 114.089844 C 114.84375 114.089844 122.082031 110.785156 128.902344 113.441406 C 128.902344 113.441406 111.496094 86.171875 83.214844 107.875 C 54.929688 129.578125 80.972656 145.984375 80.972656 145.984375 C 80.972656 145.984375 76.132812 136.273438 79.726562 128.433594 C 79.648438 130.769531 82.210938 139.246094 82.210938 139.246094 C 82.210938 139.246094 81.777344 121.8125 86.589844 118.285156 C 88.320312 125.628906 90.40625 121.066406 90.40625 121.066406 Z M 97.035156 111.402344 " fill-opacity="1" fill-rule="nonzero"/><path fill="#000000" d="M 96.585938 77.101562 C 65.484375 86.070312 56.070312 97.550781 68.03125 117.953125 L 70.453125 102.097656 L 71.214844 112.15625 L 79.25 95.820312 L 79.285156 104.410156 L 90.03125 89.042969 L 88.90625 98.308594 L 108.019531 84.378906 L 99.941406 96.742188 L 120.601562 89.074219 L 115.542969 94.871094 L 129.359375 92.832031 L 123.605469 98.269531 C 123.605469 98.269531 135.289062 104.234375 133.429688 110.121094 C 136.414062 101.496094 127.6875 68.125 96.585938 77.101562 Z M 96.585938 77.101562 " fill-opacity="1" fill-rule="nonzero"/><path fill="#000000" d="M 136.945312 105.542969 C 136.945312 105.542969 155.847656 66.179688 128.78125 57.75 C 101.710938 49.324219 95.300781 72.382812 95.300781 72.382812 L 111.59375 62.4375 L 107.15625 69.085938 L 123.144531 67.628906 L 117.886719 73.191406 L 128.769531 73.355469 L 124.792969 79.125 L 137.269531 84.15625 L 133.257812 86.753906 C 136.984375 89.9375 136.945312 105.542969 136.945312 105.542969 Z M 136.945312 105.542969 " fill-opacity="1" fill-rule="nonzero"/><path fill="#000000" d="M 140.976562 115.792969 C 143.382812 123.054688 139 130.894531 139 130.894531 L 145.128906 126.230469 L 137.238281 143.214844 L 146.761719 137.410156 L 136.125 153.964844 L 145.347656 150.25 L 133.96875 164.28125 L 142.363281 160.742188 L 132.804688 171.289062 C 132.804688 171.289062 152.816406 167.90625 155.4375 147.273438 C 158.054688 126.640625 140.976562 115.792969 140.976562 115.792969 Z M 140.976562 115.792969 " fill-opacity="1" fill-rule="nonzero"/><path fill="#000000" d="M 143.84375 113.871094 C 150.464844 116.992188 153.046875 124.515625 153.046875 124.515625 L 155.382812 118.421875 L 157.023438 134.128906 L 161.054688 125.203125 L 161.558594 139.777344 L 167.25 135.589844 L 164.800781 147.046875 C 164.800781 147.046875 162.925781 151.699219 169.449219 147.902344 C 170.195312 153.820312 157.246094 165.503906 157.246094 165.503906 C 157.246094 165.503906 165.160156 161.53125 166.804688 159.867188 C 163.589844 167.871094 153.210938 171.039062 153.210938 171.039062 C 153.210938 171.039062 183.035156 178.648438 179.324219 143.191406 C 175.609375 107.734375 143.84375 113.871094 143.84375 113.871094 Z M 143.84375 113.871094 " fill-opacity="1" fill-rule="nonzero"/><path fill="#000000" d="M 143.140625 108.304688 C 146.136719 102.902344 158.5 107.277344 158.5 107.277344 L 158.488281 99.355469 L 166.515625 110.789062 L 167.242188 103.128906 L 175.894531 123.390625 L 179.308594 109.027344 L 182.351562 132.476562 L 188.300781 125.285156 L 184.542969 143.65625 L 190.800781 137.769531 L 184.476562 154.839844 L 192.296875 148.472656 L 182.460938 161.136719 C 205.492188 155.777344 207.34375 141.050781 192.453125 112.3125 C 177.566406 83.570312 147.347656 100.203125 143.140625 108.304688 Z M 143.140625 108.304688 " fill-opacity="1" fill-rule="nonzero"/><path fill="#000000" d="M 160.21875 92.347656 L 159.339844 87.648438 L 171.578125 93.242188 L 173.03125 86.382812 L 180.632812 94.167969 L 181.050781 86.523438 L 190.996094 99.128906 L 192.769531 91.335938 L 196.757812 109.996094 C 196.757812 109.996094 209.085938 89.480469 184.339844 75.640625 C 159.601562 61.800781 144.042969 102.601562 144.042969 102.601562 C 144.042969 102.601562 155.34375 91.835938 160.21875 92.347656 Z M 160.21875 92.347656 " fill-opacity="1" fill-rule="nonzero"/><path fill="#000000" d="M 148.121094 242.722656 L 335.59375 242.722656 C 336.550781 242.722656 337.328125 241.945312 337.328125 240.988281 C 337.328125 240.03125 336.550781 239.257812 335.59375 239.257812 L 148.121094 239.257812 C 147.167969 239.257812 146.390625 240.03125 146.390625 240.988281 C 146.390625 241.945312 147.167969 242.722656 148.121094 242.722656 Z M 148.121094 242.722656 " fill-opacity="1" fill-rule="nonzero"/><path fill="#000000" d="M 107.097656 274.679688 L 335.59375 274.679688 C 336.550781 274.679688 337.324219 273.902344 337.324219 272.945312 C 337.324219 271.988281 336.550781 271.214844 335.59375 271.214844 L 107.097656 271.214844 C 106.140625 271.214844 105.363281 271.988281 105.363281 272.945312 C 105.363281 273.902344 106.140625 274.679688 107.097656 274.679688 Z M 107.097656 274.679688 " fill-opacity="1" fill-rule="nonzero"/><path fill="#000000" d="M 306.019531 301.351562 L 129.484375 301.351562 C 128.527344 301.351562 127.75 302.128906 127.75 303.085938 C 127.75 304.042969 128.527344 304.816406 129.484375 304.816406 L 306.019531 304.816406 C 306.976562 304.816406 307.753906 304.042969 307.753906 303.085938 C 307.753906 302.128906 306.976562 301.351562 306.019531 301.351562 Z M 306.019531 301.351562 " fill-opacity="1" fill-rule="nonzero"/><path fill="#000000" d="M 102.453125 332.710938 L 278.984375 332.710938 C 279.945312 332.710938 280.71875 331.933594 280.71875 330.980469 C 280.71875 330.019531 279.941406 329.246094 278.984375 329.246094 L 102.453125 329.246094 C 101.496094 329.246094 100.71875 330.023438 100.71875 330.980469 C 100.71875 331.933594 101.496094 332.710938 102.453125 332.710938 Z M 102.453125 332.710938 " fill-opacity="1" fill-rule="nonzero"/><path fill="#000000" d="M 48.105469 227.082031 L 21.710938 227.082031 C 20.753906 227.082031 19.976562 227.855469 19.976562 228.8125 C 19.976562 229.773438 20.753906 230.546875 21.710938 230.546875 L 48.105469 230.546875 C 49.0625 230.546875 49.839844 229.769531 49.839844 228.8125 C 49.839844 227.855469 49.0625 227.082031 48.105469 227.082031 Z M 48.105469 227.082031 " fill-opacity="1" fill-rule="nonzero"/><path fill="#000000" d="M 212.855469 146.597656 C 212.855469 147.554688 213.632812 148.328125 214.589844 148.328125 C 215.546875 148.328125 216.320312 147.554688 216.320312 146.597656 C 216.320312 136.15625 224.816406 127.660156 235.257812 127.660156 C 245.621094 127.660156 254.066406 136.03125 254.191406 146.363281 C 242.648438 147.253906 233.527344 156.925781 233.527344 168.691406 C 233.527344 169.648438 234.300781 170.425781 235.257812 170.425781 C 236.21875 170.425781 236.992188 169.648438 236.992188 168.691406 C 236.992188 158.25 245.488281 149.757812 255.929688 149.757812 C 265.613281 149.757812 273.617188 157.0625 274.730469 166.449219 C 267.941406 165.285156 264.273438 167.035156 264.058594 167.140625 C 263.203125 167.570312 262.847656 168.617188 263.277344 169.472656 C 263.703125 170.328125 264.738281 170.679688 265.59375 170.253906 C 265.640625 170.230469 269.121094 168.664062 275.753906 170.195312 C 276.007812 170.339844 276.292969 170.425781 276.601562 170.425781 C 276.625 170.425781 276.644531 170.421875 276.664062 170.421875 C 278.675781 170.953125 280.953125 171.761719 283.492188 172.964844 C 286.503906 174.394531 289.625 175.113281 292.753906 175.113281 C 295.5 175.113281 298.257812 174.5625 300.953125 173.457031 C 305.269531 171.6875 307.917969 169.121094 308.027344 169.011719 C 308.710938 168.34375 308.722656 167.25 308.054688 166.566406 C 307.386719 165.882812 306.289062 165.871094 305.601562 166.535156 C 305.234375 166.894531 296.414062 175.265625 284.980469 169.835938 C 282.542969 168.679688 280.3125 167.855469 278.289062 167.269531 C 277.585938 156.152344 268.742188 147.214844 257.660156 146.363281 C 257.535156 134.121094 247.539062 124.195312 235.261719 124.195312 C 222.90625 124.195312 212.855469 134.246094 212.855469 146.597656 Z M 212.855469 146.597656 " fill-opacity="1" fill-rule="nonzero"/><path fill="#000000" d="M 307.351562 88.894531 C 306.980469 89.253906 298.160156 97.628906 286.726562 92.195312 C 284.292969 91.039062 282.0625 90.210938 280.035156 89.632812 C 279.335938 78.511719 270.488281 69.574219 259.40625 68.722656 C 259.28125 56.480469 249.285156 46.554688 237.007812 46.554688 C 224.832031 46.554688 214.902344 56.316406 214.617188 68.425781 C 214.273438 68.433594 213.929688 68.425781 213.589844 68.402344 C 211.484375 68.257812 209.761719 67.542969 208.988281 66.496094 C 207.734375 64.796875 205.96875 63.796875 203.882812 63.601562 C 200.824219 63.316406 197.285156 64.800781 194.171875 67.683594 C 193.46875 68.335938 193.425781 69.433594 194.078125 70.132812 C 194.726562 70.835938 195.824219 70.878906 196.527344 70.230469 C 198.882812 68.050781 201.507812 66.863281 203.558594 67.054688 C 204.664062 67.15625 205.527344 67.648438 206.199219 68.554688 C 207.589844 70.4375 210.195312 71.640625 213.351562 71.859375 C 213.71875 71.886719 214.082031 71.898438 214.445312 71.898438 C 218.183594 71.898438 221.746094 70.582031 223.9375 68.339844 C 224.605469 67.65625 224.597656 66.558594 223.910156 65.890625 C 223.226562 65.21875 222.128906 65.230469 221.460938 65.914062 C 220.640625 66.75 219.457031 67.414062 218.105469 67.851562 C 218.679688 57.925781 226.9375 50.019531 237.007812 50.019531 C 247.371094 50.019531 255.816406 58.390625 255.941406 68.722656 C 244.398438 69.617188 235.277344 79.285156 235.277344 91.050781 C 235.277344 92.007812 236.050781 92.785156 237.007812 92.785156 C 237.96875 92.785156 238.742188 92.007812 238.742188 91.050781 C 238.742188 80.609375 247.238281 72.117188 257.679688 72.117188 C 267.363281 72.117188 275.367188 79.421875 276.480469 88.808594 C 269.691406 87.640625 266.023438 89.394531 265.808594 89.5 C 264.953125 89.929688 264.597656 90.972656 265.023438 91.832031 C 265.453125 92.6875 266.484375 93.039062 267.34375 92.609375 C 267.386719 92.589844 270.867188 91.019531 277.503906 92.554688 C 277.753906 92.699219 278.042969 92.785156 278.351562 92.785156 C 278.371094 92.785156 278.394531 92.78125 278.414062 92.78125 C 280.425781 93.308594 282.703125 94.117188 285.242188 95.324219 C 288.253906 96.753906 291.375 97.472656 294.507812 97.472656 C 297.253906 97.472656 300.007812 96.917969 302.703125 95.816406 C 307.023438 94.046875 309.667969 91.480469 309.777344 91.371094 C 310.460938 90.703125 310.472656 89.609375 309.804688 88.925781 C 309.132812 88.242188 308.035156 88.230469 307.351562 88.894531 Z M 307.351562 88.894531 " fill-opacity="1" fill-rule="nonzero"/><path fill="#000000" d="M 59.941406 146.121094 C 47.765625 146.121094 37.835938 155.886719 37.550781 167.996094 C 37.207031 168 36.863281 167.996094 36.523438 167.972656 C 34.417969 167.824219 32.695312 167.113281 31.921875 166.0625 C 30.667969 164.367188 28.902344 163.367188 26.816406 163.171875 C 23.757812 162.886719 20.21875 164.371094 17.105469 167.253906 C 16.402344 167.902344 16.359375 169 17.011719 169.703125 C 17.660156 170.40625 18.757812 170.445312 19.460938 169.796875 C 21.816406 167.617188 24.445312 166.425781 26.492188 166.625 C 27.597656 166.726562 28.460938 167.21875 29.132812 168.125 C 30.523438 170.007812 33.128906 171.210938 36.285156 171.429688 C 36.652344 171.453125 37.015625 171.46875 37.378906 171.46875 C 41.117188 171.46875 44.679688 170.148438 46.871094 167.910156 C 47.539062 167.226562 47.53125 166.128906 46.847656 165.457031 C 46.160156 164.789062 45.0625 164.800781 44.394531 165.484375 C 43.574219 166.320312 42.390625 166.984375 41.039062 167.421875 C 41.613281 157.492188 49.871094 149.589844 59.941406 149.589844 C 70.382812 149.589844 78.878906 158.085938 78.878906 168.523438 C 78.878906 169.480469 79.65625 170.257812 80.613281 170.257812 C 81.570312 170.257812 82.347656 169.480469 82.347656 168.523438 C 82.347656 156.171875 72.296875 146.121094 59.941406 146.121094 Z M 59.941406 146.121094 " fill-opacity="1" fill-rule="nonzero"/></svg>